<svg id="svg" version="1.1" width="400" height="400" viewBox="0 0 400 400" xmlns="http://www.w3.org/2000/svg" xmlns:xlink="http://www.w3.org/1999/xlink" ><g id="svgg"><path id="path0" d="M276.200 61.597 C 273.223 62.468,271.700 62.782,270.400 62.793 C 269.630 62.800,268.468 63.082,267.818 63.421 C 267.168 63.760,265.818 64.143,264.818 64.270 C 263.818 64.398,262.439 64.840,261.753 65.252 C 261.067 65.663,260.112 66.000,259.632 66.000 C 259.152 66.000,258.003 66.386,257.079 66.858 C 253.082 68.899,252.410 69.200,251.849 69.200 C 251.524 69.200,251.018 69.439,250.725 69.732 C 250.170 70.287,248.705 71.140,246.500 72.191 C 245.785 72.532,245.200 72.959,245.200 73.141 C 245.200 73.323,244.795 73.684,244.300 73.944 C 241.951 75.178,238.664 77.866,235.069 81.495 C 231.121 85.478,230.676 86.015,227.698 90.400 C 227.325 90.950,226.790 91.544,226.510 91.720 C 226.229 91.896,226.000 92.277,226.000 92.566 C 226.000 92.855,225.640 93.550,225.200 94.109 C 224.760 94.669,224.400 95.389,224.400 95.709 C 224.400 96.030,224.040 96.750,223.600 97.309 C 223.160 97.869,222.800 98.589,222.800 98.909 C 222.800 99.230,222.440 99.950,222.000 100.509 C 221.560 101.069,221.200 101.879,221.200 102.309 C 221.200 102.740,220.840 103.550,220.400 104.109 C 219.960 104.669,219.600 105.527,219.600 106.016 C 219.600 106.505,219.263 107.467,218.852 108.153 C 218.440 108.839,217.993 110.256,217.859 111.303 C 217.724 112.350,217.363 113.610,217.055 114.103 C 216.747 114.596,216.394 116.170,216.270 117.600 C 216.147 119.030,215.730 120.920,215.344 121.800 C 214.701 123.268,214.632 125.827,214.508 152.800 C 214.365 184.090,214.379 183.730,213.303 184.256 C 212.917 184.445,201.260 184.690,187.400 184.800 L 162.200 185.000 162.200 214.800 L 162.200 244.600 187.335 244.800 L 212.470 245.000 213.435 246.122 L 214.400 247.245 214.400 323.622 L 214.400 400.000 245.200 400.000 L 276.000 400.000 276.000 323.574 C 276.000 246.288,276.005 246.011,277.360 245.106 C 277.602 244.944,289.011 244.809,302.713 244.806 C 322.304 244.801,327.652 244.693,327.752 244.300 C 327.822 244.025,328.098 243.170,328.366 242.400 C 328.634 241.630,329.008 238.750,329.197 236.000 C 329.386 233.250,329.822 230.100,330.166 229.000 C 330.510 227.900,330.797 225.650,330.804 224.000 C 330.811 222.350,331.086 219.830,331.415 218.400 C 331.744 216.970,332.187 213.500,332.399 210.688 C 332.611 207.876,332.975 205.221,333.207 204.788 C 333.439 204.354,333.803 201.556,334.016 198.569 C 334.230 195.583,334.605 192.764,334.851 192.306 C 335.096 191.847,335.390 189.971,335.505 188.136 L 335.713 184.800 306.656 184.800 C 277.663 184.800,277.598 184.798,276.759 183.959 C 275.401 182.601,275.715 136.323,277.100 133.688 C 277.595 132.746,278.000 131.558,278.000 131.049 C 278.000 130.539,278.360 129.707,278.800 129.200 C 279.240 128.693,279.600 127.947,279.600 127.542 C 279.600 127.138,279.960 126.582,280.400 126.307 C 280.840 126.032,281.200 125.655,281.200 125.468 C 281.200 124.410,287.292 119.600,288.632 119.600 C 289.067 119.600,289.861 119.293,290.397 118.917 C 290.933 118.542,292.188 118.116,293.186 117.971 C 294.184 117.826,296.073 117.413,297.384 117.054 C 299.432 116.492,302.406 116.400,318.484 116.400 L 337.200 116.400 337.200 89.660 L 337.200 62.920 332.057 62.648 C 329.228 62.499,326.303 62.173,325.557 61.924 C 323.891 61.369,278.020 61.065,276.200 61.597 " stroke="none" fill="#fbfbfb" fill-rule="evenodd"></path><path id="path1" d="M12.000 0.400 C 12.000 0.620,11.353 0.800,10.563 0.800 C 9.462 0.800,9.076 0.987,8.916 1.600 C 8.800 2.043,8.370 2.400,7.953 2.400 C 7.467 2.400,7.200 2.683,7.200 3.200 C 7.200 3.733,6.933 4.000,6.400 4.000 C 5.867 4.000,5.600 4.267,5.600 4.800 C 5.600 5.333,5.333 5.600,4.800 5.600 C 4.267 5.600,4.000 5.867,4.000 6.400 C 4.000 6.933,3.733 7.200,3.200 7.200 C 2.683 7.200,2.400 7.467,2.400 7.953 C 2.400 8.370,2.043 8.800,1.600 8.916 C 0.987 9.076,0.800 9.462,0.800 10.563 C 0.800 11.353,0.620 12.000,0.400 12.000 C 0.134 12.000,0.000 74.933,0.000 200.000 C 0.000 325.067,0.134 388.000,0.400 388.000 C 0.620 388.000,0.800 388.647,0.800 389.437 C 0.800 390.538,0.987 390.924,1.600 391.084 C 2.043 391.200,2.400 391.630,2.400 392.047 C 2.400 392.533,2.683 392.800,3.200 392.800 C 3.733 392.800,4.000 393.067,4.000 393.600 C 4.000 394.133,4.267 394.400,4.800 394.400 C 5.333 394.400,5.600 394.667,5.600 395.200 C 5.600 395.733,5.867 396.000,6.400 396.000 C 6.933 396.000,7.200 396.267,7.200 396.800 C 7.200 397.317,7.467 397.600,7.953 397.600 C 8.370 397.600,8.800 397.957,8.916 398.400 C 9.076 399.013,9.462 399.200,10.563 399.200 C 11.353 399.200,12.000 399.380,12.000 399.600 C 12.000 399.866,45.667 400.000,112.200 400.000 L 212.400 400.000 212.400 323.400 L 212.400 246.800 187.249 246.800 C 166.532 246.800,162.018 246.704,161.646 246.256 C 161.318 245.860,161.223 237.293,161.298 214.756 L 161.400 183.800 186.800 183.600 L 212.200 183.400 212.409 156.400 C 212.596 132.275,212.691 129.187,213.305 127.400 C 213.704 126.236,213.999 124.146,214.009 122.400 C 214.022 120.283,214.255 118.929,214.800 117.800 C 215.225 116.920,215.579 115.434,215.586 114.499 C 215.594 113.563,215.960 112.125,216.400 111.304 C 216.840 110.484,217.200 109.246,217.200 108.555 C 217.200 107.864,217.465 107.078,217.789 106.809 C 218.114 106.540,218.499 105.663,218.645 104.860 C 218.791 104.057,219.230 102.770,219.621 102.000 C 220.011 101.230,220.841 99.568,221.465 98.306 C 223.299 94.598,223.931 93.430,224.385 92.911 C 224.620 92.641,224.985 91.966,225.196 91.411 C 225.407 90.855,225.743 90.400,225.942 90.400 C 226.140 90.400,226.521 89.873,226.788 89.229 C 227.055 88.585,227.527 87.960,227.837 87.841 C 228.146 87.722,228.400 87.356,228.400 87.027 C 228.400 86.697,228.760 86.235,229.200 86.000 C 229.640 85.765,230.000 85.402,230.000 85.194 C 230.000 84.646,238.170 76.400,238.713 76.400 C 238.966 76.400,239.365 76.040,239.600 75.600 C 239.835 75.160,240.297 74.800,240.627 74.800 C 240.956 74.800,241.322 74.546,241.441 74.237 C 241.560 73.927,242.185 73.455,242.829 73.188 C 243.473 72.921,244.000 72.535,244.000 72.331 C 244.000 72.126,244.540 71.770,245.200 71.540 C 245.860 71.310,246.400 70.973,246.400 70.792 C 246.400 70.610,247.014 70.259,247.765 70.012 C 248.515 69.764,249.230 69.300,249.352 68.981 C 249.475 68.661,249.916 68.400,250.334 68.400 C 250.751 68.400,251.550 68.040,252.109 67.600 C 252.669 67.160,253.437 66.800,253.816 66.800 C 254.195 66.800,255.067 66.462,255.753 66.049 C 256.439 65.635,257.657 65.181,258.460 65.038 C 259.263 64.895,260.140 64.514,260.409 64.189 C 260.678 63.865,261.464 63.600,262.155 63.600 C 262.846 63.600,264.084 63.240,264.904 62.800 C 265.725 62.360,267.163 61.999,268.099 61.998 C 269.034 61.996,270.340 61.701,271.000 61.341 C 271.802 60.904,273.792 60.589,277.000 60.393 C 279.640 60.231,282.429 59.896,283.197 59.649 C 285.422 58.934,308.555 59.052,310.600 59.788 C 311.786 60.216,314.427 60.378,320.800 60.416 C 331.106 60.478,336.699 61.213,338.541 62.749 C 339.614 63.643,339.543 115.565,338.469 116.538 C 337.814 117.130,336.090 117.200,322.169 117.204 C 310.006 117.208,306.198 117.331,304.762 117.767 C 303.751 118.073,300.871 118.452,298.362 118.608 C 294.978 118.818,293.478 119.086,292.553 119.646 C 291.867 120.061,290.856 120.400,290.307 120.400 C 289.757 120.400,288.879 120.735,288.354 121.145 C 287.829 121.555,287.012 122.012,286.537 122.160 C 286.062 122.309,285.573 122.694,285.450 123.015 C 285.326 123.337,284.992 123.600,284.708 123.600 C 283.926 123.600,280.400 128.113,280.400 129.115 C 280.400 129.422,280.040 130.131,279.600 130.691 C 279.160 131.250,278.800 132.223,278.800 132.852 C 278.800 133.482,278.438 135.041,277.997 136.318 C 277.224 138.551,277.197 139.500,277.297 161.020 L 277.400 183.400 306.783 183.503 C 322.943 183.559,336.307 183.747,336.481 183.921 C 337.064 184.504,336.131 197.078,335.431 198.077 C 334.959 198.751,334.799 199.989,334.796 202.989 C 334.793 205.586,334.563 207.705,334.143 209.000 C 333.787 210.100,333.366 213.256,333.208 216.013 C 333.051 218.770,332.693 221.452,332.414 221.974 C 332.135 222.495,331.753 225.370,331.566 228.361 C 331.378 231.352,330.957 234.520,330.630 235.400 C 330.271 236.365,330.028 238.444,330.018 240.642 C 330.001 244.026,329.924 244.365,328.927 245.442 L 327.853 246.600 302.627 246.800 L 277.400 247.000 277.299 323.500 L 277.198 400.000 332.599 400.000 C 369.266 400.000,388.000 399.865,388.000 399.600 C 388.000 399.380,388.647 399.200,389.437 399.200 C 390.538 399.200,390.924 399.013,391.084 398.400 C 391.200 397.957,391.630 397.600,392.047 397.600 C 392.533 397.600,392.800 397.317,392.800 396.800 C 392.800 396.267,393.067 396.000,393.600 396.000 C 394.133 396.000,394.400 395.733,394.400 395.200 C 394.400 394.667,394.667 394.400,395.200 394.400 C 395.733 394.400,396.000 394.133,396.000 393.600 C 396.000 393.067,396.267 392.800,396.800 392.800 C 397.317 392.800,397.600 392.533,397.600 392.047 C 397.600 391.630,397.957 391.200,398.400 391.084 C 399.013 390.924,399.200 390.538,399.200 389.437 C 399.200 388.647,399.380 388.000,399.600 388.000 C 399.866 388.000,400.000 325.067,400.000 200.000 C 400.000 74.933,399.866 12.000,399.600 12.000 C 399.380 12.000,399.200 11.353,399.200 10.563 C 399.200 9.462,399.013 9.076,398.400 8.916 C 397.957 8.800,397.600 8.370,397.600 7.953 C 397.600 7.467,397.317 7.200,396.800 7.200 C 396.267 7.200,396.000 6.933,396.000 6.400 C 396.000 5.867,395.733 5.600,395.200 5.600 C 394.667 5.600,394.400 5.333,394.400 4.800 C 394.400 4.267,394.133 4.000,393.600 4.000 C 393.067 4.000,392.800 3.733,392.800 3.200 C 392.800 2.683,392.533 2.400,392.047 2.400 C 391.630 2.400,391.200 2.043,391.084 1.600 C 390.924 0.987,390.538 0.800,389.437 0.800 C 388.647 0.800,388.000 0.620,388.000 0.400 C 388.000 0.134,325.067 0.000,200.000 0.000 C 74.933 0.000,12.000 0.134,12.000 0.400 " stroke="none" fill="#4464b4" fill-rule="evenodd"></path><path id="path2" d="M279.600 60.788 C 277.510 60.930,274.450 61.355,272.800 61.734 C 264.551 63.628,260.021 64.979,257.200 66.385 C 256.430 66.769,255.260 67.214,254.600 67.373 C 253.940 67.532,253.130 67.897,252.800 68.184 C 252.470 68.471,251.750 68.841,251.200 69.007 C 250.650 69.172,250.110 69.430,250.000 69.580 C 249.890 69.730,248.720 70.459,247.400 71.200 C 246.080 71.941,244.910 72.651,244.800 72.779 C 244.690 72.906,243.520 73.728,242.200 74.605 C 239.123 76.650,230.280 85.499,228.205 88.609 C 227.328 89.924,226.508 91.090,226.383 91.200 C 226.048 91.495,222.734 97.513,221.758 99.600 C 219.011 105.471,216.491 112.891,215.644 117.600 C 215.427 118.810,215.071 120.700,214.853 121.800 C 213.881 126.718,213.594 135.094,213.597 158.451 C 213.599 178.278,213.498 183.187,213.076 183.537 C 212.715 183.836,204.802 184.007,187.576 184.086 C 173.839 184.148,162.375 184.346,162.100 184.524 C 161.573 184.865,161.323 243.612,161.843 244.967 C 162.061 245.535,164.654 245.600,187.043 245.600 C 211.467 245.600,212.017 245.617,212.800 246.400 C 213.594 247.194,213.600 247.733,213.600 323.600 C 213.600 374.267,213.735 400.000,214.000 400.000 C 214.265 400.000,214.400 374.274,214.400 323.622 L 214.400 247.245 213.435 246.122 L 212.470 245.000 187.335 244.800 L 162.200 244.600 162.200 214.800 L 162.200 185.000 187.400 184.800 C 201.260 184.690,212.917 184.445,213.303 184.256 C 214.379 183.730,214.365 184.090,214.508 152.800 C 214.632 125.827,214.701 123.268,215.344 121.800 C 215.730 120.920,216.147 119.030,216.270 117.600 C 216.394 116.170,216.747 114.596,217.055 114.103 C 217.363 113.610,217.724 112.350,217.859 111.303 C 217.993 110.256,218.440 108.839,218.852 108.153 C 219.263 107.467,219.600 106.505,219.600 106.016 C 219.600 105.527,219.960 104.669,220.400 104.109 C 220.840 103.550,221.200 102.740,221.200 102.309 C 221.200 101.879,221.560 101.069,222.000 100.509 C 222.440 99.950,222.800 99.230,222.800 98.909 C 222.800 98.589,223.160 97.869,223.600 97.309 C 224.040 96.750,224.400 96.030,224.400 95.709 C 224.400 95.389,224.760 94.669,225.200 94.109 C 225.640 93.550,226.000 92.855,226.000 92.566 C 226.000 92.277,226.229 91.896,226.510 91.720 C 226.790 91.544,227.325 90.950,227.698 90.400 C 230.676 86.015,231.121 85.478,235.069 81.495 C 238.664 77.866,241.951 75.178,244.300 73.944 C 244.795 73.684,245.200 73.323,245.200 73.141 C 245.200 72.959,245.785 72.532,246.500 72.191 C 248.705 71.140,250.170 70.287,250.725 69.732 C 251.018 69.439,251.524 69.200,251.849 69.200 C 252.175 69.200,253.197 68.814,254.121 68.342 C 258.213 66.253,258.807 66.000,259.632 66.000 C 260.112 66.000,261.067 65.663,261.753 65.252 C 262.439 64.840,263.882 64.390,264.960 64.251 C 266.037 64.112,267.155 63.803,267.443 63.564 C 267.731 63.325,269.280 62.966,270.884 62.767 C 272.488 62.568,274.340 62.179,275.000 61.902 C 276.705 61.188,322.566 61.177,325.239 61.890 C 326.250 62.160,329.355 62.503,332.139 62.651 L 337.200 62.922 337.200 89.661 L 337.200 116.400 318.484 116.400 C 302.406 116.400,299.432 116.492,297.384 117.054 C 296.073 117.413,294.184 117.826,293.186 117.971 C 292.188 118.116,290.933 118.542,290.397 118.917 C 289.861 119.293,289.067 119.600,288.632 119.600 C 287.292 119.600,281.200 124.410,281.200 125.468 C 281.200 125.655,280.840 126.032,280.400 126.307 C 279.960 126.582,279.600 127.138,279.600 127.542 C 279.600 127.947,279.240 128.693,278.800 129.200 C 278.360 129.707,278.000 130.539,278.000 131.049 C 278.000 131.558,277.595 132.746,277.100 133.688 C 275.715 136.323,275.401 182.601,276.759 183.959 C 277.598 184.798,277.663 184.800,306.656 184.800 L 335.713 184.800 335.505 188.136 C 335.390 189.971,335.096 191.847,334.851 192.306 C 334.605 192.764,334.230 195.583,334.016 198.569 C 333.803 201.556,333.439 204.354,333.207 204.788 C 332.975 205.221,332.611 207.876,332.399 210.688 C 332.187 213.500,331.744 216.970,331.415 218.400 C 331.086 219.830,330.811 222.350,330.804 224.000 C 330.797 225.650,330.510 227.900,330.166 229.000 C 329.822 230.100,329.386 233.250,329.197 236.000 C 329.008 238.750,328.634 241.630,328.366 242.400 C 328.098 243.170,327.822 244.025,327.752 244.300 C 327.652 244.693,322.304 244.801,302.713 244.806 C 289.011 244.809,277.602 244.944,277.360 245.106 C 277.118 245.268,276.713 245.793,276.460 246.274 C 275.852 247.429,275.792 400.000,276.400 400.000 C 276.665 400.000,276.800 374.160,276.800 323.280 C 276.800 264.142,276.910 246.450,277.280 246.080 C 277.643 245.717,283.817 245.600,302.618 245.600 C 325.793 245.600,327.517 245.553,328.087 244.900 C 328.769 244.118,329.449 240.527,329.772 236.000 C 329.890 234.350,330.256 231.740,330.586 230.200 C 330.916 228.660,331.192 226.320,331.200 225.000 C 331.208 223.680,331.484 221.340,331.813 219.800 C 332.143 218.260,332.588 215.020,332.801 212.600 C 333.015 210.180,333.360 207.480,333.569 206.600 C 333.777 205.720,334.142 202.885,334.380 200.299 C 334.617 197.713,335.079 194.327,335.406 192.773 C 336.161 189.183,336.189 185.055,335.462 184.452 C 335.080 184.134,326.548 183.976,305.962 183.903 L 277.000 183.800 276.893 160.600 C 276.828 146.502,276.939 136.772,277.176 135.800 C 278.021 132.332,278.630 130.558,279.300 129.611 C 279.685 129.067,280.000 128.330,280.000 127.974 C 280.000 127.099,284.630 122.328,286.504 121.271 C 293.012 117.599,296.815 117.080,318.600 116.889 C 330.409 116.785,337.179 116.579,337.500 116.315 C 338.230 115.712,338.230 63.480,337.500 62.902 C 335.340 61.191,295.289 59.729,279.600 60.788 " stroke="none" fill="#acbcdc" fill-rule="evenodd"></path><path id="path3" d="M281.300 60.676 C 281.685 60.776,282.315 60.776,282.700 60.676 C 283.085 60.575,282.770 60.493,282.000 60.493 C 281.230 60.493,280.915 60.575,281.300 60.676 M310.500 60.676 C 310.885 60.776,311.515 60.776,311.900 60.676 C 312.285 60.575,311.970 60.493,311.200 60.493 C 310.430 60.493,310.115 60.575,310.500 60.676 M272.600 61.600 C 272.096 61.817,272.022 61.944,272.400 61.944 C 272.730 61.944,273.360 61.789,273.800 61.600 C 274.304 61.383,274.378 61.256,274.000 61.256 C 273.670 61.256,273.040 61.411,272.600 61.600 M326.433 61.344 C 326.525 61.423,327.770 61.586,329.200 61.706 C 330.760 61.837,331.400 61.795,330.800 61.602 C 329.812 61.284,326.111 61.065,326.433 61.344 M334.500 62.276 C 334.885 62.376,335.515 62.376,335.900 62.276 C 336.285 62.175,335.970 62.093,335.200 62.093 C 334.430 62.093,334.115 62.175,334.500 62.276 M260.976 64.622 C 260.212 65.234,260.213 65.238,261.000 64.876 C 261.440 64.674,262.070 64.408,262.400 64.286 C 262.918 64.093,262.915 64.059,262.376 64.032 C 262.034 64.014,261.404 64.280,260.976 64.622 M256.200 66.427 C 255.540 66.850,255.180 67.196,255.400 67.195 C 255.620 67.195,256.340 66.837,257.000 66.400 C 257.660 65.963,258.020 65.617,257.800 65.632 C 257.580 65.647,256.860 66.004,256.200 66.427 M239.673 76.086 C 238.753 76.793,238.000 77.514,238.000 77.689 C 238.000 77.863,238.511 77.551,239.136 76.994 C 239.761 76.437,240.616 75.722,241.036 75.404 C 241.456 75.086,241.698 74.820,241.573 74.813 C 241.448 74.806,240.593 75.379,239.673 76.086 M217.988 107.622 C 217.746 108.074,217.607 108.622,217.680 108.839 C 217.752 109.057,218.018 108.687,218.271 108.017 C 218.797 106.625,218.639 106.405,217.988 107.622 M304.500 117.076 C 304.885 117.176,305.515 117.176,305.900 117.076 C 306.285 116.975,305.970 116.893,305.200 116.893 C 304.430 116.893,304.115 116.975,304.500 117.076 M290.600 119.414 C 289.940 119.717,289.681 119.972,290.024 119.982 C 290.366 119.992,290.996 119.736,291.424 119.413 C 292.372 118.696,292.169 118.696,290.600 119.414 M283.200 123.884 L 281.400 125.732 283.200 124.190 C 284.774 122.842,285.559 121.960,285.133 122.018 C 285.060 122.028,284.190 122.868,283.200 123.884 M214.093 126.800 C 214.093 127.570,214.175 127.885,214.276 127.500 C 214.376 127.115,214.376 126.485,214.276 126.100 C 214.175 125.715,214.093 126.030,214.093 126.800 M213.443 131.433 C 213.309 131.781,213.200 143.535,213.200 157.553 C 213.200 177.287,213.088 183.171,212.703 183.620 C 212.333 184.052,212.382 184.045,212.894 183.594 C 213.465 183.093,214.305 130.799,213.743 130.800 C 213.711 130.800,213.576 131.085,213.443 131.433 M277.915 133.010 C 277.792 133.445,277.569 134.160,277.420 134.600 C 277.271 135.040,277.442 134.894,277.800 134.276 C 278.158 133.658,278.381 132.942,278.295 132.686 C 278.210 132.430,278.039 132.576,277.915 133.010 M161.845 184.328 C 161.733 184.508,162.173 184.577,162.821 184.482 C 163.470 184.387,164.000 184.240,164.000 184.155 C 164.000 183.850,162.043 184.007,161.845 184.328 M335.467 184.402 C 335.724 184.732,336.011 185.632,336.103 186.402 L 336.272 187.800 336.336 186.349 C 336.379 185.385,336.165 184.714,335.700 184.349 C 335.090 183.871,335.060 183.878,335.467 184.402 M335.254 193.467 C 335.225 193.944,335.096 194.664,334.970 195.067 C 334.752 195.761,334.764 195.762,335.196 195.088 C 335.447 194.697,335.575 193.977,335.481 193.488 C 335.309 192.601,335.309 192.601,335.254 193.467 M334.101 203.800 C 334.105 204.680,334.187 204.993,334.283 204.495 C 334.379 203.998,334.375 203.278,334.275 202.895 C 334.175 202.513,334.096 202.920,334.101 203.800 M332.893 210.800 C 332.893 211.570,332.975 211.885,333.076 211.500 C 333.176 211.115,333.176 210.485,333.076 210.100 C 332.975 209.715,332.893 210.030,332.893 210.800 M332.493 216.400 C 332.493 217.170,332.575 217.485,332.676 217.100 C 332.776 216.715,332.776 216.085,332.676 215.700 C 332.575 215.315,332.493 215.630,332.493 216.400 M331.822 219.422 C 331.672 220.225,331.628 220.962,331.726 221.060 C 331.824 221.157,332.027 220.581,332.178 219.778 C 332.328 218.975,332.372 218.238,332.274 218.140 C 332.176 218.043,331.973 218.619,331.822 219.422 M331.293 223.200 C 331.293 223.970,331.375 224.285,331.476 223.900 C 331.576 223.515,331.576 222.885,331.476 222.500 C 331.375 222.115,331.293 222.430,331.293 223.200 M330.250 231.650 C 330.109 232.353,330.069 233.002,330.159 233.092 C 330.250 233.183,330.448 232.691,330.600 232.000 C 330.752 231.309,330.793 230.659,330.691 230.558 C 330.589 230.456,330.391 230.947,330.250 231.650 M329.693 236.000 C 329.693 236.770,329.775 237.085,329.876 236.700 C 329.976 236.315,329.976 235.685,329.876 235.300 C 329.775 234.915,329.693 235.230,329.693 236.000 M328.854 243.238 C 328.726 245.694,329.769 245.600,302.517 245.600 C 279.348 245.600,277.663 245.647,277.168 246.300 C 276.718 246.896,276.722 246.925,277.199 246.500 C 277.635 246.111,283.296 246.000,302.610 246.000 L 327.461 246.000 328.363 245.039 C 328.947 244.418,329.203 243.747,329.087 243.139 C 328.916 242.238,328.907 242.242,328.854 243.238 M187.067 245.994 C 200.964 246.107,212.484 246.350,212.667 246.533 C 212.850 246.717,213.091 281.367,213.202 323.533 L 213.404 400.200 213.502 323.700 C 213.599 247.667,213.595 247.195,212.800 246.400 C 212.015 245.615,211.531 245.602,186.900 245.694 L 161.800 245.788 187.067 245.994 " stroke="none" fill="#9cacd4" fill-rule="evenodd"></path><path id="path4" d="M282.600 59.789 C 281.218 60.244,283.124 60.319,296.600 60.341 C 310.639 60.362,312.040 60.307,310.600 59.788 C 308.392 58.993,285.014 58.993,282.600 59.789 M272.800 60.667 C 272.470 60.780,271.633 61.126,270.940 61.436 C 270.246 61.746,268.941 62.000,268.038 62.000 C 267.136 62.000,265.725 62.360,264.904 62.800 C 264.084 63.240,262.846 63.600,262.155 63.600 C 261.464 63.600,260.678 63.865,260.409 64.189 C 260.140 64.514,259.263 64.895,258.460 65.038 C 257.657 65.181,256.439 65.635,255.753 66.049 C 255.067 66.462,254.195 66.800,253.816 66.800 C 253.437 66.800,252.669 67.160,252.109 67.600 C 251.550 68.040,250.751 68.400,250.334 68.400 C 249.916 68.400,249.475 68.661,249.352 68.981 C 249.230 69.300,248.515 69.764,247.765 70.012 C 247.014 70.259,246.400 70.610,246.400 70.792 C 246.400 70.973,245.860 71.310,245.200 71.540 C 244.540 71.770,244.000 72.126,244.000 72.331 C 244.000 72.535,243.473 72.921,242.829 73.188 C 242.185 73.455,241.560 73.927,241.441 74.237 C 241.322 74.546,240.956 74.800,240.627 74.800 C 240.297 74.800,239.835 75.160,239.600 75.600 C 239.365 76.040,238.966 76.400,238.713 76.400 C 238.170 76.400,230.000 84.646,230.000 85.194 C 230.000 85.402,229.640 85.765,229.200 86.000 C 228.760 86.235,228.400 86.697,228.400 87.027 C 228.400 87.356,228.146 87.722,227.837 87.841 C 227.527 87.960,227.055 88.585,226.788 89.229 C 226.521 89.873,226.140 90.400,225.942 90.400 C 225.743 90.400,225.407 90.855,225.196 91.411 C 224.985 91.966,224.620 92.641,224.385 92.911 C 223.931 93.430,223.299 94.598,221.465 98.306 C 220.841 99.568,220.011 101.230,219.621 102.000 C 219.230 102.770,218.791 104.057,218.645 104.860 C 218.499 105.663,218.114 106.540,217.789 106.809 C 217.465 107.078,217.200 107.864,217.200 108.555 C 217.200 109.246,216.840 110.484,216.400 111.304 C 215.960 112.125,215.594 113.563,215.586 114.499 C 215.579 115.434,215.225 116.920,214.800 117.800 C 214.216 119.010,214.039 120.180,214.077 122.600 L 214.126 125.800 214.395 123.200 C 214.543 121.770,214.965 119.527,215.332 118.216 C 215.699 116.905,216.000 115.411,216.000 114.896 C 216.000 114.381,216.249 113.474,216.553 112.880 C 216.857 112.286,217.234 110.990,217.391 110.000 C 217.548 109.010,217.930 107.801,218.238 107.314 C 218.547 106.827,218.800 106.209,218.800 105.940 C 218.800 105.391,219.632 103.522,222.334 98.000 C 228.596 85.201,239.056 74.823,252.306 68.264 C 256.395 66.240,257.778 65.639,259.000 65.353 C 259.660 65.199,260.560 64.849,261.000 64.575 C 261.440 64.301,262.610 63.948,263.600 63.791 C 264.590 63.634,265.886 63.257,266.480 62.953 C 267.074 62.649,267.981 62.400,268.496 62.400 C 269.011 62.400,270.505 62.103,271.816 61.741 C 273.127 61.378,275.730 60.957,277.600 60.804 L 281.000 60.527 277.200 60.495 C 275.110 60.477,273.130 60.555,272.800 60.667 M320.600 60.791 C 325.220 60.962,329.720 61.303,330.600 61.548 C 331.480 61.794,333.100 61.989,334.200 61.980 L 336.200 61.965 334.600 61.341 C 333.330 60.846,330.854 60.693,322.600 60.599 L 312.200 60.480 320.600 60.791 M337.103 62.414 L 338.006 62.776 337.903 89.688 L 337.800 116.600 322.000 116.807 L 306.200 117.014 322.038 117.107 C 336.941 117.195,337.915 117.157,338.538 116.469 C 339.612 115.281,339.546 63.637,338.469 62.662 C 338.066 62.298,337.391 62.011,336.969 62.025 C 336.299 62.047,336.316 62.097,337.103 62.414 M298.837 117.636 C 298.308 117.847,296.625 118.198,295.099 118.414 C 293.573 118.631,291.941 119.076,291.473 119.404 C 291.005 119.732,290.254 120.000,289.804 120.000 C 289.354 120.000,288.323 120.450,287.514 121.000 C 286.705 121.550,285.922 122.000,285.775 122.000 C 284.218 122.000,278.432 130.366,278.386 132.683 C 278.378 133.077,278.114 133.850,277.800 134.400 C 277.486 134.950,277.229 136.030,277.230 136.800 L 277.231 138.200 277.836 136.805 C 278.169 136.038,278.540 134.598,278.661 133.605 C 278.782 132.612,279.223 131.312,279.641 130.716 C 280.058 130.120,280.400 129.390,280.400 129.094 C 280.400 128.109,283.936 123.600,284.708 123.600 C 284.992 123.600,285.326 123.337,285.450 123.015 C 285.573 122.694,286.062 122.309,286.537 122.160 C 287.012 122.012,287.829 121.555,288.354 121.145 C 288.879 120.735,289.757 120.400,290.307 120.400 C 290.856 120.400,291.867 120.061,292.553 119.646 C 293.477 119.087,294.976 118.819,298.337 118.610 C 300.832 118.455,303.622 118.092,304.537 117.803 L 306.200 117.279 303.000 117.265 C 301.240 117.257,299.367 117.424,298.837 117.636 M213.223 127.600 C 212.755 129.063,212.605 134.453,212.423 156.400 L 212.200 183.400 186.800 183.600 L 161.400 183.800 161.298 214.756 C 161.223 237.293,161.318 245.860,161.646 246.256 C 162.018 246.704,166.532 246.800,187.249 246.800 L 212.400 246.800 212.400 323.400 C 212.400 374.200,212.535 400.000,212.800 400.000 C 213.558 400.000,213.331 247.388,212.571 246.629 C 212.013 246.071,209.140 246.000,186.979 246.000 L 162.015 246.000 161.797 245.100 C 161.678 244.605,161.629 230.700,161.690 214.200 L 161.800 184.200 186.963 184.097 C 204.739 184.024,212.283 183.863,212.663 183.548 C 213.102 183.183,213.200 178.446,213.200 157.525 C 213.200 140.440,213.339 131.687,213.620 131.163 C 213.850 130.732,213.985 129.349,213.920 128.090 L 213.800 125.800 213.223 127.600 M276.993 161.000 L 277.000 183.800 306.162 183.903 C 337.348 184.012,336.227 183.930,336.527 186.130 C 336.636 186.932,336.681 186.737,336.650 185.600 L 336.600 183.800 307.000 183.600 L 277.400 183.400 277.193 160.800 L 276.987 138.200 276.993 161.000 M335.880 190.988 C 335.748 192.852,335.451 194.730,335.220 195.162 C 334.989 195.594,334.800 196.629,334.800 197.463 L 334.800 198.978 335.459 198.037 C 335.948 197.339,336.169 195.866,336.314 192.348 C 336.539 186.892,336.236 185.944,335.880 190.988 M334.484 201.816 C 334.438 203.365,334.130 205.669,333.800 206.935 C 332.868 210.514,333.057 212.477,334.038 209.400 C 334.627 207.551,334.776 206.082,334.686 203.000 C 334.595 199.883,334.550 199.622,334.484 201.816 M332.794 214.500 C 332.791 215.875,332.531 218.089,332.218 219.419 C 331.904 220.750,331.457 224.020,331.226 226.687 C 330.994 229.353,330.624 232.011,330.402 232.593 C 330.181 233.176,330.008 234.405,330.018 235.326 L 330.035 237.000 330.630 235.400 C 330.957 234.520,331.378 231.352,331.566 228.361 C 331.756 225.318,332.136 222.499,332.427 221.961 C 332.957 220.982,333.519 212.000,333.050 212.000 C 332.913 212.000,332.797 213.125,332.794 214.500 M329.475 240.658 C 329.277 243.467,329.065 244.292,328.346 245.058 L 327.461 246.000 302.610 246.000 C 283.816 246.000,277.643 246.117,277.280 246.480 C 276.909 246.851,276.822 264.410,276.898 323.580 L 276.997 400.200 277.198 323.600 L 277.400 247.000 302.627 246.800 L 327.853 246.600 328.927 245.442 C 329.923 244.366,330.000 244.029,330.000 240.742 C 330.000 236.250,329.788 236.216,329.475 240.658 " stroke="none" fill="#7c94c9" fill-rule="evenodd"></path></g></svg>