<svg id="svg" version="1.1" width="400" height="400" viewBox="0 0 400 400" xmlns="http://www.w3.org/2000/svg" xmlns:xlink="http://www.w3.org/1999/xlink" ><g id="svgg"><path id="path0" d="M161.100 127.882 C 161.595 127.978,162.405 127.978,162.900 127.882 C 163.395 127.787,162.990 127.709,162.000 127.709 C 161.010 127.709,160.605 127.787,161.100 127.882 M203.600 127.886 C 217.311 128.167,228.708 128.173,228.539 127.900 C 228.436 127.735,221.568 127.639,213.276 127.688 C 204.984 127.736,200.630 127.825,203.600 127.886 M236.200 128.350 C 240.987 128.550,242.400 128.742,243.189 129.300 C 243.915 129.814,244.872 129.984,246.789 129.940 C 248.225 129.907,248.860 129.805,248.200 129.712 C 247.540 129.620,246.190 129.263,245.200 128.918 C 243.904 128.467,241.550 128.265,236.800 128.196 L 230.200 128.101 236.200 128.350 M281.148 129.888 C 282.079 131.236,282.808 131.874,282.789 131.324 C 282.783 131.146,282.211 130.460,281.518 129.800 L 280.259 128.600 281.148 129.888 M251.535 130.922 C 251.830 131.276,252.820 131.715,253.735 131.896 C 254.783 132.103,255.400 132.443,255.400 132.813 C 255.400 133.535,251.796 133.508,249.853 132.770 C 245.249 131.023,224.776 130.875,191.800 132.352 C 184.256 132.690,184.800 132.616,184.801 133.300 C 184.801 133.684,183.288 133.773,178.252 133.682 C 171.843 133.566,171.698 133.582,171.478 134.422 C 171.354 134.897,171.063 135.163,170.827 135.017 C 170.592 134.872,170.400 134.943,170.400 135.176 C 170.400 135.434,169.304 135.600,167.599 135.600 C 165.575 135.600,164.389 135.819,163.326 136.388 C 162.517 136.822,160.823 137.293,159.562 137.436 C 157.729 137.644,157.226 137.856,157.059 138.495 C 156.887 139.154,156.594 139.263,155.375 139.121 C 154.139 138.977,153.680 139.156,152.548 140.223 C 150.104 142.528,142.743 143.608,142.472 141.701 C 142.228 139.983,138.442 140.159,138.371 141.891 C 138.305 143.492,136.977 145.006,135.743 144.886 C 134.904 144.804,134.293 145.062,133.614 145.786 C 132.920 146.524,132.250 146.800,131.151 146.800 C 130.091 146.800,129.317 147.101,128.551 147.810 C 127.143 149.116,126.787 148.953,126.018 146.653 L 125.383 144.754 124.473 145.722 C 123.973 146.255,123.593 146.850,123.629 147.045 C 123.797 147.952,123.538 148.400,122.847 148.400 C 121.628 148.400,119.361 151.235,119.056 153.138 C 118.673 155.533,116.687 157.376,116.295 155.700 C 116.107 154.894,115.872 156.156,115.199 161.600 C 114.210 169.595,114.057 174.998,114.091 200.800 C 114.110 215.430,114.233 226.179,114.363 224.687 C 114.620 221.750,115.814 220.219,120.212 217.192 L 121.825 216.082 122.912 216.874 C 123.511 217.310,124.000 217.577,124.000 217.468 C 124.000 217.359,124.675 217.602,125.500 218.009 C 127.252 218.873,128.118 218.227,128.591 215.705 L 128.836 214.400 135.218 214.400 L 141.600 214.400 141.600 215.400 C 141.600 215.950,141.944 216.744,142.366 217.166 C 143.161 217.961,145.200 223.505,145.200 224.872 C 145.200 225.965,145.875 227.105,146.822 227.612 C 147.763 228.116,147.675 227.317,146.400 223.800 C 144.047 217.311,143.307 203.808,145.008 198.400 C 145.319 197.410,146.141 194.761,146.833 192.513 C 147.526 190.265,148.336 188.105,148.634 187.713 C 148.931 187.321,149.183 186.730,149.192 186.400 C 149.207 185.910,152.704 180.096,153.884 178.600 C 154.058 178.379,154.729 177.479,155.377 176.600 C 160.010 170.300,174.924 160.012,179.444 159.998 C 179.860 159.996,180.740 159.711,181.400 159.364 C 182.060 159.017,184.040 158.567,185.800 158.363 C 201.064 156.593,209.020 158.105,222.003 165.243 C 225.136 166.965,233.004 173.972,234.820 176.657 C 238.414 181.971,239.923 184.314,240.129 184.900 C 240.264 185.285,240.531 185.600,240.721 185.600 C 240.911 185.600,241.071 185.825,241.076 186.100 C 241.080 186.375,241.634 188.040,242.305 189.800 C 245.226 197.458,245.401 198.517,245.395 208.600 C 245.390 217.105,245.322 217.989,244.495 220.302 C 244.003 221.677,243.600 223.060,243.600 223.375 C 243.600 223.937,241.655 228.989,241.114 229.832 C 240.962 230.069,240.178 231.509,239.372 233.032 C 235.394 240.546,223.469 252.800,220.134 252.800 C 219.909 252.800,219.414 253.142,219.036 253.560 C 218.657 253.979,217.748 254.433,217.014 254.571 C 215.193 254.913,214.261 256.000,215.789 256.000 C 216.879 256.000,219.200 254.874,219.200 254.346 C 219.200 254.076,221.116 253.408,224.673 252.440 C 225.839 252.122,226.727 251.502,227.606 250.392 C 228.306 249.508,229.215 248.800,229.650 248.800 C 230.080 248.800,231.151 248.433,232.030 247.985 C 235.202 246.367,235.495 246.331,236.594 247.430 C 237.147 247.984,237.623 248.788,237.650 249.218 C 237.678 249.648,237.722 250.225,237.750 250.500 C 237.778 250.775,238.573 251.359,239.517 251.797 C 240.632 252.315,241.298 252.911,241.417 253.497 C 241.518 253.994,241.693 254.850,241.808 255.400 C 241.922 255.950,242.287 256.400,242.620 256.400 C 242.953 256.400,243.333 256.680,243.464 257.023 C 243.596 257.366,243.933 257.558,244.214 257.450 C 244.495 257.342,245.040 257.602,245.424 258.027 C 245.872 258.521,245.948 258.800,245.635 258.800 C 244.936 258.800,245.462 260.210,246.631 261.471 C 247.164 262.046,247.606 262.896,247.613 263.358 C 247.620 263.821,247.890 264.549,248.213 264.976 C 248.536 265.404,248.800 266.169,248.800 266.676 C 248.800 267.184,248.980 267.600,249.200 267.600 C 249.420 267.600,249.600 268.067,249.600 268.637 C 249.600 269.338,249.859 269.743,250.400 269.884 C 250.840 269.999,251.200 270.240,251.200 270.419 C 251.200 270.598,251.605 270.802,252.100 270.872 C 253.100 271.014,253.571 272.589,252.834 273.326 C 252.216 273.944,252.297 274.800,252.973 274.800 C 253.288 274.800,253.660 275.160,253.800 275.600 C 254.153 276.711,255.144 276.601,255.600 275.400 C 256.255 273.678,260.400 274.209,260.400 276.014 C 260.400 276.446,260.249 276.800,260.064 276.800 C 259.880 276.800,259.523 277.251,259.272 277.802 C 259.020 278.354,258.677 278.783,258.507 278.755 C 256.702 278.462,255.847 279.614,255.507 282.796 C 255.412 283.678,255.149 283.828,253.207 284.106 C 252.001 284.279,250.381 284.846,249.607 285.367 C 248.252 286.279,246.506 286.943,244.400 287.347 C 243.850 287.453,244.210 287.482,245.200 287.412 C 247.265 287.266,252.066 285.935,253.814 285.023 C 254.466 284.683,255.291 284.404,255.646 284.402 C 256.001 284.401,256.721 284.065,257.246 283.657 C 257.771 283.248,258.740 282.627,259.400 282.277 C 260.855 281.506,266.610 276.016,268.285 273.800 C 270.983 270.233,272.856 265.596,274.586 258.200 C 275.985 252.218,276.570 169.133,275.258 162.800 C 275.053 161.810,274.572 159.380,274.190 157.400 C 273.807 155.420,273.248 153.314,272.947 152.720 C 272.646 152.126,272.400 151.330,272.400 150.951 C 272.400 150.009,270.132 145.405,268.557 143.151 C 265.649 138.987,256.476 131.600,254.214 131.600 C 253.854 131.600,252.984 131.302,252.280 130.938 C 251.124 130.341,251.052 130.339,251.535 130.922 M288.631 133.903 C 288.175 134.358,288.437 137.016,289.013 137.776 C 289.657 138.628,289.785 140.689,289.246 141.540 C 289.005 141.919,288.826 141.664,288.641 140.678 C 288.482 139.832,287.992 139.025,287.402 138.638 L 286.426 137.999 287.176 139.299 C 287.588 140.015,288.495 142.310,289.191 144.400 C 289.887 146.490,290.691 148.740,290.978 149.400 C 291.265 150.060,291.611 151.733,291.746 153.118 C 291.881 154.504,292.190 156.008,292.433 156.461 C 294.677 160.654,294.447 249.153,292.161 260.958 C 289.496 274.718,284.493 284.400,276.041 292.154 C 275.294 292.839,274.034 294.005,273.241 294.744 C 271.223 296.625,268.446 298.403,263.834 300.767 C 261.653 301.885,260.033 302.817,260.234 302.837 C 261.441 302.959,264.581 302.662,267.000 302.197 C 270.162 301.589,270.471 301.745,271.177 304.303 C 271.381 305.040,272.279 306.353,273.174 307.221 C 274.574 308.580,274.800 309.036,274.800 310.503 C 274.800 311.741,275.007 312.337,275.556 312.679 C 275.992 312.952,276.404 313.795,276.530 314.676 C 277.022 318.109,277.497 319.994,278.033 320.640 C 278.345 321.016,278.555 321.385,278.500 321.461 C 278.398 321.603,278.419 321.886,278.585 322.600 C 278.636 322.820,278.706 323.745,278.739 324.657 C 278.802 326.378,280.492 327.600,282.808 327.600 C 283.446 327.600,283.600 327.871,283.600 329.000 C 283.600 330.127,283.446 330.400,282.810 330.400 C 282.337 330.400,281.772 330.881,281.400 331.600 C 281.059 332.260,280.604 332.800,280.390 332.800 C 280.175 332.800,280.000 333.493,280.000 334.340 C 280.000 337.382,277.694 341.689,275.813 342.161 C 275.132 342.332,274.800 342.690,274.800 343.254 C 274.800 344.073,274.918 344.088,279.900 343.873 C 285.863 343.617,285.124 343.752,285.056 342.926 C 285.014 342.425,285.361 342.230,286.400 342.167 C 289.965 341.951,290.400 341.837,290.400 341.115 C 290.400 340.394,291.287 340.183,293.610 340.353 C 294.166 340.394,294.991 340.082,295.444 339.660 C 295.896 339.238,296.824 338.770,297.506 338.621 C 298.700 338.358,300.064 337.263,299.349 337.140 C 299.157 337.107,299.806 336.972,300.791 336.840 C 302.018 336.675,302.710 336.349,302.991 335.800 C 303.216 335.360,303.715 334.985,304.100 334.967 C 305.983 334.877,306.322 334.741,306.516 334.000 C 306.641 333.521,307.062 333.200,307.563 333.200 C 308.116 333.200,308.400 332.945,308.400 332.447 C 308.400 332.021,308.761 331.599,309.230 331.476 C 309.686 331.357,310.153 330.903,310.267 330.467 C 310.381 330.031,310.817 329.584,311.237 329.474 C 311.657 329.365,312.000 329.009,312.000 328.684 C 312.000 328.359,312.360 327.999,312.800 327.884 C 313.240 327.769,313.600 327.409,313.600 327.084 C 313.600 326.759,313.973 326.396,314.430 326.276 C 314.886 326.157,315.357 325.686,315.476 325.230 C 315.599 324.761,316.021 324.400,316.447 324.400 C 316.919 324.400,317.200 324.118,317.200 323.643 C 317.200 323.170,317.574 322.793,318.200 322.636 C 318.819 322.480,319.200 322.101,319.200 321.639 C 319.200 321.229,319.560 320.799,320.000 320.684 C 320.631 320.519,320.800 320.138,320.800 318.884 C 320.800 317.637,320.971 317.249,321.589 317.087 C 322.149 316.941,322.454 316.405,322.640 315.240 C 322.839 313.997,323.084 313.600,323.651 313.600 C 324.133 313.600,324.400 313.315,324.400 312.800 C 324.400 312.350,324.667 312.000,325.010 312.000 C 325.808 312.000,326.400 310.383,326.400 308.201 C 326.400 306.798,326.559 306.403,327.211 306.197 C 327.656 306.055,327.995 305.728,327.963 305.470 C 327.750 303.739,328.044 302.800,328.800 302.800 C 329.535 302.800,329.600 302.533,329.600 299.495 C 329.600 296.451,329.671 296.158,330.500 295.795 L 331.400 295.400 331.506 283.261 C 331.608 271.521,331.638 271.115,332.409 270.914 C 333.388 270.658,333.682 158.937,332.709 156.739 C 332.257 155.719,332.083 155.658,329.814 155.721 C 328.151 155.767,327.384 155.634,327.350 155.294 C 327.322 155.022,327.277 154.665,327.250 154.500 C 327.131 153.785,324.130 151.827,323.037 151.752 C 322.378 151.706,321.631 151.383,321.376 151.034 C 321.121 150.685,320.450 150.400,319.885 150.400 C 319.266 150.400,318.546 150.003,318.071 149.400 C 317.318 148.442,317.100 148.400,312.904 148.400 C 309.032 148.400,308.440 148.307,307.800 147.600 C 307.402 147.160,306.655 146.800,306.141 146.800 C 305.627 146.800,304.710 146.287,304.103 145.659 C 302.322 143.817,299.299 142.805,299.150 144.000 C 299.054 144.771,298.964 145.009,298.335 146.174 L 297.701 147.347 297.401 146.403 C 297.020 145.202,294.865 142.988,293.736 142.637 C 292.216 142.165,291.934 141.479,292.402 139.390 C 292.946 136.965,289.941 132.593,288.631 133.903 M258.420 135.010 C 259.753 135.699,259.936 136.321,258.900 136.642 C 258.515 136.761,257.901 137.017,257.536 137.210 C 256.788 137.606,256.400 136.976,256.400 135.367 C 256.400 134.241,256.797 134.171,258.420 135.010 M297.237 137.702 C 296.131 140.612,296.827 142.936,298.600 142.255 C 299.200 142.025,299.272 141.664,299.065 139.916 C 298.754 137.290,297.823 136.162,297.237 137.702 M128.047 141.162 C 127.613 141.438,127.676 141.570,128.344 141.782 C 129.302 142.086,130.131 141.735,129.783 141.172 C 129.496 140.708,128.771 140.704,128.047 141.162 M331.223 147.600 C 331.117 152.151,330.992 153.517,330.819 152.000 L 330.569 149.800 330.385 152.450 C 330.244 154.473,330.319 155.054,330.703 154.906 C 331.512 154.594,331.637 153.358,331.503 147.000 L 331.377 141.000 331.223 147.600 M291.357 144.824 C 291.630 146.527,291.401 147.371,290.772 146.983 C 290.301 146.692,290.279 143.200,290.749 143.200 C 290.941 143.200,291.215 143.931,291.357 144.824 M250.555 143.990 C 251.851 144.202,253.246 144.679,253.655 145.050 C 254.343 145.673,254.400 145.674,254.400 145.062 C 254.400 144.698,254.659 144.400,254.976 144.400 C 255.803 144.400,256.160 145.164,255.460 145.432 C 254.993 145.612,255.094 145.883,255.945 146.730 C 259.704 150.468,260.713 155.621,258.605 160.317 C 253.426 171.857,236.181 168.149,236.277 155.515 C 236.337 147.524,242.375 142.651,250.555 143.990 M118.232 148.992 C 117.814 149.769,117.590 150.524,117.736 150.669 C 117.881 150.814,118.000 150.693,118.000 150.398 C 118.000 150.104,118.288 149.544,118.641 149.155 C 118.994 148.765,119.217 148.251,119.138 148.013 C 119.058 147.774,118.651 148.215,118.232 148.992 M293.166 150.600 C 293.203 153.297,292.511 153.631,292.192 151.071 C 291.872 148.512,292.242 146.807,292.815 148.200 C 292.996 148.640,293.154 149.720,293.166 150.600 M116.930 153.062 C 116.430 154.686,116.542 155.218,117.236 154.524 C 117.468 154.292,117.600 153.523,117.529 152.816 L 117.400 151.531 116.930 153.062 M97.693 154.400 C 97.693 155.170,97.775 155.485,97.876 155.100 C 97.976 154.715,97.976 154.085,97.876 153.700 C 97.775 153.315,97.693 153.630,97.693 154.400 M95.966 160.113 C 95.618 160.381,95.215 161.073,95.071 161.651 C 94.927 162.229,94.312 163.025,93.705 163.421 C 93.097 163.816,92.385 164.423,92.123 164.770 C 91.697 165.333,91.552 165.307,90.758 164.524 C 89.219 163.006,87.731 164.145,87.400 167.095 C 87.055 170.178,86.960 170.400,85.992 170.400 C 85.425 170.400,85.024 170.015,84.740 169.200 C 84.226 167.726,82.800 167.507,82.800 168.901 C 82.800 169.650,82.364 169.955,80.223 170.702 C 78.416 171.333,77.100 172.139,75.820 173.401 C 74.511 174.692,73.671 175.200,72.846 175.200 C 72.125 175.200,71.491 175.511,71.142 176.037 C 70.733 176.653,70.099 176.900,68.734 176.973 C 66.846 177.075,64.000 178.419,64.000 179.210 C 64.000 179.451,63.820 179.536,63.600 179.400 C 63.380 179.264,63.200 179.435,63.200 179.780 C 63.200 180.138,62.514 180.681,61.600 181.047 C 60.306 181.564,59.998 181.889,59.987 182.743 C 59.980 183.325,59.710 184.149,59.387 184.576 C 59.005 185.082,58.770 186.476,58.715 188.576 C 58.666 190.438,58.533 189.011,58.400 185.200 C 58.273 181.570,58.132 192.235,58.085 208.900 C 58.012 234.830,58.082 239.200,58.567 239.200 C 58.879 239.200,59.419 239.309,59.767 239.443 C 60.262 239.633,60.410 239.393,60.447 238.343 L 60.495 237.000 60.800 238.200 L 61.105 239.400 61.153 238.143 C 61.180 237.429,61.459 236.786,61.800 236.655 C 62.130 236.529,62.400 236.149,62.400 235.813 C 62.400 235.051,63.047 235.040,65.110 235.768 L 66.721 236.337 68.185 234.668 C 68.989 233.751,69.741 232.550,69.854 232.000 C 70.043 231.084,70.212 231.011,71.852 231.142 C 74.400 231.344,76.986 230.585,79.558 228.878 C 81.578 227.537,82.037 227.400,84.507 227.400 C 87.215 227.400,87.977 227.031,87.994 225.714 C 87.997 225.446,88.308 224.546,88.684 223.714 C 90.607 219.460,93.054 219.782,94.034 224.416 C 95.610 231.870,95.983 226.959,96.024 198.200 C 96.050 180.949,96.459 166.251,97.046 161.500 C 97.287 159.547,97.068 159.266,95.966 160.113 M187.800 176.159 C 184.362 176.740,178.902 179.304,175.565 181.905 C 174.227 182.947,172.709 184.079,172.191 184.420 C 171.673 184.761,170.578 186.021,169.760 187.220 C 168.941 188.419,168.163 189.490,168.032 189.600 C 167.640 189.927,165.600 193.160,165.600 193.453 C 165.600 193.601,165.156 194.661,164.614 195.807 C 162.864 199.506,161.679 207.361,162.302 211.132 C 163.086 215.881,163.887 219.168,164.487 220.094 C 164.810 220.592,165.205 221.540,165.366 222.200 C 165.527 222.860,165.985 223.760,166.384 224.200 C 166.782 224.640,167.244 225.450,167.411 226.000 C 167.578 226.550,168.093 227.428,168.557 227.950 C 169.705 229.244,172.887 232.416,174.050 233.425 C 175.571 234.745,180.900 237.920,182.084 238.212 C 182.680 238.358,183.373 238.726,183.624 239.029 C 183.875 239.331,184.647 239.665,185.340 239.770 C 186.033 239.875,188.370 240.259,190.534 240.623 C 195.259 241.419,200.354 241.140,199.011 240.159 C 198.434 239.736,196.709 239.600,191.947 239.600 C 188.187 239.600,185.548 239.439,185.400 239.201 C 185.265 238.981,184.200 238.350,183.035 237.799 C 181.869 237.248,179.985 235.918,178.847 234.844 C 176.667 232.787,173.897 230.800,173.209 230.800 C 172.425 230.800,171.200 229.192,171.200 228.163 C 171.200 227.467,170.940 227.057,170.413 226.919 C 169.585 226.703,169.543 226.610,168.805 223.340 C 167.926 219.452,169.208 216.164,170.755 218.337 C 171.220 218.990,171.600 219.721,171.600 219.962 C 171.600 220.219,172.396 220.400,173.524 220.400 C 174.596 220.400,175.791 220.660,176.224 220.987 C 176.651 221.310,177.405 221.580,177.900 221.587 C 178.395 221.594,178.806 221.735,178.813 221.900 C 178.820 222.065,179.086 222.545,179.405 222.966 C 179.914 223.638,180.446 223.827,182.225 223.967 C 182.458 223.985,183.017 224.343,183.468 224.763 C 184.307 225.545,185.600 224.837,185.600 223.595 C 185.600 223.042,187.500 223.099,187.686 223.657 C 187.799 223.997,188.054 223.999,188.675 223.667 C 189.405 223.276,189.570 223.361,189.975 224.339 C 190.613 225.881,193.433 227.198,196.111 227.206 C 198.553 227.213,199.005 227.436,199.565 228.908 C 199.923 229.850,200.215 230.006,201.690 230.046 C 204.574 230.123,205.397 230.307,206.958 231.228 C 207.892 231.779,208.288 232.222,208.004 232.398 C 207.753 232.553,207.509 232.940,207.462 233.258 C 207.330 234.158,204.344 237.561,202.900 238.458 C 200.778 239.776,201.170 240.435,203.700 239.804 C 209.868 238.266,215.285 234.933,219.776 229.912 C 222.025 227.397,222.541 226.652,223.868 224.000 C 224.253 223.230,224.771 222.330,225.018 222.000 C 227.501 218.686,228.884 201.608,226.875 199.068 C 226.671 198.811,226.278 197.880,226.001 197.000 C 222.990 187.439,212.605 178.226,202.360 176.029 C 199.781 175.476,191.402 175.551,187.800 176.159 M253.200 304.800 C 252.754 305.088,252.984 305.189,254.100 305.194 C 254.925 305.197,255.600 305.020,255.600 304.800 C 255.600 304.291,253.988 304.291,253.200 304.800 " stroke="none" fill="#df2572" fill-rule="evenodd"></path><path id="path1" d="M127.316 71.200 C 127.114 71.970,126.770 72.000,117.986 72.000 C 108.230 72.000,107.600 72.075,107.600 73.243 C 107.600 73.938,107.254 74.000,103.363 74.000 C 99.500 74.000,99.107 74.069,98.921 74.779 C 98.768 75.365,98.307 75.588,97.059 75.679 C 95.688 75.779,95.378 75.956,95.272 76.700 C 95.162 77.479,94.905 77.600,93.372 77.600 C 91.867 77.600,91.600 77.720,91.600 78.400 C 91.600 79.064,91.333 79.200,90.027 79.200 C 88.821 79.200,88.396 79.381,88.207 79.977 C 88.033 80.527,87.528 80.790,86.480 80.877 C 85.398 80.967,84.894 81.242,84.605 81.900 C 84.296 82.604,83.882 82.800,82.705 82.800 C 81.485 82.800,81.200 82.946,81.200 83.572 C 81.200 84.068,80.878 84.390,80.300 84.472 C 79.722 84.554,79.354 84.922,79.272 85.500 C 79.190 86.078,78.868 86.400,78.372 86.400 C 77.876 86.400,77.600 86.676,77.600 87.172 C 77.600 87.668,77.278 87.990,76.700 88.072 C 76.122 88.154,75.754 88.522,75.672 89.100 C 75.590 89.678,75.268 90.000,74.772 90.000 C 74.276 90.000,74.000 90.276,74.000 90.772 C 74.000 91.268,73.678 91.590,73.100 91.672 C 72.522 91.754,72.154 92.122,72.072 92.700 C 71.990 93.278,71.668 93.600,71.172 93.600 C 70.667 93.600,70.400 93.876,70.400 94.400 C 70.400 94.918,70.133 95.200,69.643 95.200 C 68.788 95.200,68.400 95.944,68.400 97.586 C 68.400 98.370,68.160 98.769,67.600 98.916 C 66.964 99.082,66.800 99.462,66.800 100.763 C 66.800 102.133,66.670 102.400,66.000 102.400 C 65.320 102.400,65.200 102.667,65.200 104.172 C 65.200 105.705,65.079 105.962,64.300 106.072 C 63.552 106.178,63.379 106.487,63.277 107.900 C 63.178 109.274,63.005 109.600,62.377 109.600 C 61.741 109.600,61.600 109.882,61.600 111.157 C 61.600 112.483,61.452 112.750,60.600 112.964 C 59.609 113.213,59.600 113.256,59.600 117.608 C 59.600 121.733,59.551 122.000,58.800 122.000 C 58.007 122.000,58.000 122.250,58.051 149.500 C 58.096 173.439,58.519 197.913,58.728 188.576 C 58.775 186.458,59.001 185.087,59.387 184.576 C 59.710 184.149,59.980 183.325,59.987 182.743 C 59.998 181.889,60.306 181.564,61.600 181.047 C 62.514 180.681,63.200 180.138,63.200 179.780 C 63.200 179.435,63.380 179.264,63.600 179.400 C 63.820 179.536,64.000 179.451,64.000 179.210 C 64.000 178.419,66.846 177.075,68.734 176.973 C 70.099 176.900,70.733 176.653,71.142 176.037 C 71.491 175.511,72.125 175.200,72.846 175.200 C 73.671 175.200,74.511 174.692,75.820 173.401 C 77.100 172.139,78.416 171.333,80.223 170.702 C 82.364 169.955,82.800 169.650,82.800 168.901 C 82.800 167.507,84.226 167.726,84.740 169.200 C 85.024 170.015,85.425 170.400,85.992 170.400 C 86.960 170.400,87.055 170.178,87.400 167.095 C 87.727 164.181,89.224 163.002,90.711 164.489 L 91.552 165.330 92.617 164.365 C 93.202 163.834,94.023 163.085,94.441 162.700 C 94.858 162.315,95.200 161.670,95.200 161.268 C 95.200 160.865,95.638 160.301,96.174 160.014 C 97.008 159.568,97.183 159.112,97.392 156.846 C 97.668 153.852,98.352 150.877,98.832 150.580 C 99.009 150.471,99.278 149.531,99.431 148.491 C 99.583 147.451,100.043 146.122,100.454 145.538 C 100.864 144.954,101.200 144.112,101.200 143.667 C 101.200 142.796,104.563 136.072,106.078 133.914 C 109.358 129.241,117.499 120.800,118.727 120.800 C 118.965 120.800,119.304 120.561,119.480 120.269 C 121.088 117.600,136.503 111.884,145.000 110.807 C 161.824 108.674,243.851 108.879,247.800 111.063 C 248.240 111.307,249.950 111.725,251.600 111.992 C 253.250 112.259,254.999 112.730,255.486 113.039 C 255.973 113.348,256.847 113.600,257.427 113.600 C 258.007 113.600,259.319 114.033,260.341 114.563 C 261.363 115.092,263.280 116.032,264.600 116.652 C 266.718 117.647,268.991 118.964,270.200 119.898 C 270.420 120.067,271.101 120.528,271.713 120.921 C 272.324 121.313,273.917 122.662,275.251 123.917 C 276.585 125.173,277.956 126.359,278.297 126.553 C 278.638 126.746,279.475 127.544,280.158 128.325 C 280.841 129.106,281.678 130.028,282.018 130.373 C 282.358 130.718,282.856 131.450,283.125 132.000 C 283.393 132.550,284.146 133.810,284.798 134.800 C 285.450 135.790,286.159 136.994,286.373 137.476 C 286.587 137.957,287.123 138.544,287.564 138.781 C 288.026 139.028,288.479 139.816,288.635 140.644 C 288.824 141.651,289.006 141.918,289.246 141.540 C 289.785 140.689,289.657 138.628,289.013 137.776 C 288.437 137.016,288.175 134.358,288.631 133.903 C 289.941 132.593,292.946 136.965,292.402 139.390 C 291.934 141.479,292.216 142.165,293.736 142.637 C 294.865 142.988,297.020 145.202,297.401 146.403 L 297.701 147.347 298.335 146.174 C 298.964 145.009,299.054 144.771,299.150 144.000 C 299.299 142.805,302.322 143.817,304.103 145.659 C 304.710 146.287,305.627 146.800,306.141 146.800 C 306.655 146.800,307.402 147.160,307.800 147.600 C 308.440 148.307,309.032 148.400,312.904 148.400 C 317.100 148.400,317.318 148.442,318.071 149.400 C 318.546 150.003,319.266 150.400,319.885 150.400 C 320.450 150.400,321.121 150.685,321.376 151.034 C 321.631 151.383,322.378 151.706,323.037 151.752 C 324.130 151.827,327.131 153.785,327.250 154.500 C 327.277 154.665,327.322 155.017,327.350 155.282 C 327.381 155.584,328.146 155.771,329.400 155.782 L 331.400 155.800 331.529 139.915 L 331.658 124.030 330.629 123.772 L 329.600 123.513 329.600 118.319 C 329.600 113.462,329.548 113.112,328.800 112.916 C 328.173 112.752,328.000 112.370,328.000 111.153 C 328.000 109.882,327.859 109.600,327.223 109.600 C 326.595 109.600,326.422 109.274,326.323 107.900 C 326.221 106.487,326.048 106.178,325.300 106.072 C 324.521 105.962,324.400 105.705,324.400 104.172 C 324.400 102.667,324.280 102.400,323.600 102.400 C 322.983 102.400,322.800 102.133,322.800 101.233 C 322.800 99.545,322.419 98.800,321.557 98.800 C 321.055 98.800,320.800 98.518,320.800 97.963 C 320.800 97.462,320.479 97.041,320.000 96.916 C 319.557 96.800,319.200 96.370,319.200 95.953 C 319.200 95.416,318.913 95.200,318.200 95.200 C 317.467 95.200,317.200 94.987,317.200 94.400 C 317.200 93.875,316.933 93.600,316.423 93.600 C 315.795 93.600,315.622 93.274,315.523 91.900 C 315.422 90.502,315.244 90.178,314.525 90.075 C 313.979 89.998,313.602 89.621,313.525 89.075 C 313.426 88.386,313.091 88.174,311.941 88.078 C 310.893 87.991,310.425 87.737,310.278 87.178 C 310.159 86.720,309.731 86.400,309.237 86.400 C 308.654 86.400,308.400 86.146,308.400 85.563 C 308.400 85.066,308.080 84.641,307.613 84.519 C 307.181 84.406,306.718 83.973,306.586 83.557 C 306.405 82.986,305.965 82.800,304.801 82.800 C 303.503 82.800,303.235 82.656,303.128 81.900 C 303.046 81.322,302.678 80.954,302.100 80.872 C 301.522 80.790,301.200 80.468,301.200 79.972 C 301.200 79.467,300.924 79.200,300.400 79.200 C 299.867 79.200,299.600 78.933,299.600 78.400 C 299.600 77.683,299.333 77.600,297.043 77.600 C 294.650 77.600,294.471 77.536,294.236 76.600 C 294.022 75.749,293.754 75.600,292.439 75.600 C 291.230 75.600,290.848 75.426,290.684 74.800 C 290.502 74.103,290.138 74.000,287.865 74.000 C 285.464 74.000,285.245 73.928,285.128 73.100 C 285.002 72.212,284.912 72.199,278.144 72.091 C 271.700 71.988,271.276 71.934,271.082 71.191 C 270.753 69.934,127.644 69.944,127.316 71.200 M155.400 127.974 C 149.272 128.190,146.567 128.440,145.400 128.900 C 144.520 129.247,142.867 129.627,141.727 129.743 C 140.587 129.860,138.930 130.326,138.043 130.778 C 137.157 131.230,136.089 131.600,135.670 131.600 C 135.251 131.600,134.450 131.960,133.891 132.400 C 133.331 132.840,132.708 133.200,132.505 133.200 C 131.780 133.200,128.199 135.821,126.813 137.366 C 126.036 138.232,124.455 139.868,123.300 141.002 C 122.145 142.135,121.200 143.318,121.200 143.631 C 121.199 143.944,120.749 144.723,120.200 145.362 C 119.650 146.001,119.200 146.977,119.200 147.531 C 119.200 148.084,118.900 148.869,118.532 149.275 C 118.145 149.702,117.787 150.948,117.680 152.239 C 117.566 153.614,117.286 154.546,116.948 154.675 C 116.321 154.916,116.194 156.400,116.800 156.400 C 117.650 156.400,118.801 154.737,119.056 153.138 C 119.361 151.235,121.628 148.400,122.847 148.400 C 123.538 148.400,123.797 147.952,123.629 147.045 C 123.593 146.850,123.973 146.255,124.473 145.722 L 125.383 144.754 126.018 146.653 C 126.787 148.953,127.143 149.116,128.551 147.810 C 129.317 147.101,130.091 146.800,131.151 146.800 C 132.250 146.800,132.920 146.524,133.614 145.786 C 134.293 145.062,134.904 144.804,135.743 144.886 C 136.977 145.006,138.305 143.492,138.371 141.891 C 138.442 140.159,142.228 139.983,142.472 141.701 C 142.743 143.608,150.104 142.528,152.548 140.223 C 153.680 139.156,154.139 138.977,155.375 139.121 C 156.594 139.263,156.887 139.154,157.059 138.495 C 157.226 137.856,157.729 137.644,159.562 137.436 C 160.823 137.293,162.517 136.822,163.326 136.388 C 164.389 135.819,165.575 135.600,167.599 135.600 C 169.304 135.600,170.400 135.434,170.400 135.176 C 170.400 134.943,170.592 134.872,170.827 135.017 C 171.063 135.163,171.354 134.897,171.478 134.422 C 171.698 133.582,171.843 133.566,178.252 133.682 C 183.288 133.773,184.801 133.684,184.801 133.300 C 184.800 132.616,184.256 132.690,191.800 132.352 C 224.776 130.875,245.249 131.023,249.853 132.770 C 251.787 133.504,255.400 133.535,255.400 132.818 C 255.400 132.462,254.786 132.108,253.820 131.908 C 252.951 131.727,251.906 131.277,251.497 130.907 C 250.970 130.430,249.734 130.172,247.238 130.017 C 245.304 129.898,243.469 129.591,243.161 129.336 C 242.302 128.625,240.503 128.455,231.400 128.225 C 216.347 127.844,164.013 127.671,155.400 127.974 M256.400 135.367 C 256.400 136.976,256.788 137.606,257.536 137.210 C 257.901 137.017,258.515 136.761,258.900 136.642 C 259.936 136.321,259.753 135.699,258.420 135.010 C 256.797 134.171,256.400 134.241,256.400 135.367 M299.065 139.916 C 299.272 141.664,299.200 142.025,298.600 142.255 C 296.827 142.936,296.131 140.612,297.237 137.702 C 297.823 136.162,298.754 137.290,299.065 139.916 M129.783 141.172 C 130.131 141.735,129.302 142.086,128.344 141.782 C 127.676 141.570,127.613 141.438,128.047 141.162 C 128.771 140.704,129.496 140.708,129.783 141.172 M290.400 144.976 C 290.400 146.690,290.892 147.621,291.381 146.831 C 291.712 146.295,291.173 143.200,290.749 143.200 C 290.557 143.200,290.400 143.999,290.400 144.976 M254.400 145.000 C 254.400 145.412,254.662 145.608,255.100 145.524 C 255.943 145.361,255.890 144.652,255.021 144.471 C 254.659 144.395,254.400 144.616,254.400 145.000 M292.198 148.106 C 291.782 149.126,292.374 153.485,292.831 152.764 C 293.270 152.069,293.261 149.284,292.815 148.200 C 292.511 147.461,292.464 147.454,292.198 148.106 M330.908 152.680 C 331.014 153.973,330.912 154.825,330.639 154.931 C 330.338 155.047,330.248 154.266,330.352 152.450 C 330.520 149.516,330.652 149.570,330.908 152.680 M332.400 156.176 C 332.400 156.493,332.569 156.857,332.776 156.985 C 332.982 157.113,333.124 156.853,333.091 156.409 C 333.022 155.495,332.400 155.286,332.400 156.176 " stroke="none" fill="#6050a2" fill-rule="evenodd"></path><path id="path2" d="M128.591 215.705 C 128.118 218.227,127.252 218.873,125.500 218.009 C 124.675 217.602,124.000 217.359,124.000 217.468 C 124.000 217.577,123.511 217.310,122.912 216.874 L 121.825 216.082 120.088 217.277 C 119.133 217.934,117.462 219.334,116.375 220.386 L 114.400 222.300 114.399 231.450 C 114.399 242.534,115.862 259.579,116.963 261.316 C 117.271 261.802,117.644 262.955,117.793 263.877 C 117.941 264.799,118.320 265.768,118.635 266.029 C 118.950 266.290,119.316 267.186,119.450 268.020 C 119.589 268.891,120.098 269.888,120.646 270.365 C 121.171 270.821,121.608 271.421,121.618 271.697 C 121.628 271.974,122.437 273.010,123.415 274.000 C 124.393 274.990,125.195 276.025,125.197 276.300 C 125.199 276.575,125.335 276.803,125.500 276.807 C 125.665 276.811,126.660 277.621,127.712 278.607 C 128.763 279.593,129.978 280.400,130.412 280.400 C 130.845 280.400,131.517 280.717,131.905 281.105 C 133.299 282.499,135.039 283.526,136.804 283.996 C 137.792 284.259,138.870 284.705,139.200 284.986 C 139.530 285.268,141.407 285.623,143.371 285.776 C 145.336 285.928,147.496 286.340,148.171 286.690 C 149.117 287.180,151.011 287.363,156.400 287.482 C 160.250 287.567,172.697 287.898,184.061 288.218 C 227.836 289.451,244.624 288.721,249.607 285.367 C 250.381 284.846,252.001 284.279,253.207 284.106 C 255.149 283.828,255.412 283.678,255.507 282.796 C 255.847 279.614,256.702 278.462,258.507 278.755 C 258.677 278.783,259.020 278.354,259.272 277.802 C 259.523 277.251,259.880 276.800,260.064 276.800 C 260.249 276.800,260.400 276.446,260.400 276.014 C 260.400 274.209,256.255 273.678,255.600 275.400 C 255.144 276.601,254.153 276.711,253.800 275.600 C 253.660 275.160,253.288 274.800,252.973 274.800 C 252.297 274.800,252.216 273.944,252.834 273.326 C 253.571 272.589,253.100 271.014,252.100 270.872 C 251.605 270.802,251.200 270.598,251.200 270.419 C 251.200 270.240,250.840 269.999,250.400 269.884 C 249.859 269.743,249.600 269.338,249.600 268.637 C 249.600 268.067,249.420 267.600,249.200 267.600 C 248.980 267.600,248.800 267.184,248.800 266.676 C 248.800 266.169,248.536 265.404,248.213 264.976 C 247.890 264.549,247.620 263.821,247.613 263.358 C 247.606 262.896,247.164 262.046,246.631 261.471 C 245.462 260.210,244.936 258.800,245.635 258.800 C 245.948 258.800,245.872 258.521,245.424 258.027 C 245.040 257.602,244.495 257.342,244.214 257.450 C 243.933 257.558,243.596 257.366,243.464 257.023 C 243.333 256.680,242.953 256.400,242.620 256.400 C 242.287 256.400,241.922 255.950,241.808 255.400 C 241.693 254.850,241.518 253.994,241.417 253.497 C 241.298 252.911,240.632 252.315,239.517 251.797 C 238.573 251.359,237.778 250.775,237.750 250.500 C 237.722 250.225,237.678 249.648,237.650 249.218 C 237.623 248.788,237.147 247.984,236.594 247.430 C 235.495 246.331,235.202 246.367,232.030 247.985 C 231.151 248.433,230.080 248.800,229.650 248.800 C 229.215 248.800,228.306 249.508,227.606 250.392 C 226.727 251.502,225.839 252.122,224.673 252.440 C 221.116 253.408,219.200 254.076,219.200 254.346 C 219.200 254.862,216.891 256.000,215.844 256.000 C 214.479 256.000,211.253 256.772,210.000 257.398 C 209.450 257.673,208.100 258.096,207.000 258.338 C 205.900 258.579,204.155 258.962,203.123 259.189 C 200.246 259.819,187.983 259.715,185.914 259.043 C 184.971 258.737,183.474 258.399,182.587 258.293 C 181.700 258.187,180.170 257.740,179.187 257.300 C 178.204 256.861,176.743 256.383,175.940 256.240 C 175.137 256.096,174.260 255.714,173.991 255.389 C 173.722 255.065,173.281 254.800,173.011 254.800 C 172.330 254.800,168.900 252.942,167.422 251.773 C 166.750 251.242,165.840 250.545,165.400 250.225 C 158.710 245.353,153.898 240.045,150.944 234.279 C 150.583 233.576,150.174 232.910,150.033 232.800 C 149.893 232.690,149.435 231.823,149.016 230.873 C 148.597 229.923,147.567 228.438,146.727 227.573 C 145.824 226.642,145.200 225.609,145.200 225.045 C 145.200 223.540,143.211 218.011,142.366 217.166 C 141.944 216.744,141.600 215.950,141.600 215.400 L 141.600 214.400 135.218 214.400 L 128.836 214.400 128.591 215.705 M169.254 218.052 C 168.431 219.385,168.289 221.056,168.805 223.340 C 169.543 226.610,169.585 226.703,170.413 226.919 C 170.940 227.057,171.200 227.467,171.200 228.163 C 171.200 229.192,172.425 230.800,173.209 230.800 C 173.895 230.800,176.666 232.786,178.834 234.832 C 179.964 235.899,181.724 237.166,182.745 237.648 C 183.765 238.129,184.874 238.757,185.209 239.042 C 185.632 239.401,187.776 239.613,192.209 239.734 C 195.724 239.829,199.275 240.038,200.100 240.197 C 201.305 240.431,201.600 240.368,201.600 239.876 C 201.600 239.540,202.185 238.902,202.900 238.458 C 204.344 237.561,207.330 234.158,207.462 233.258 C 207.509 232.940,207.753 232.553,208.004 232.398 C 208.288 232.222,207.892 231.779,206.958 231.228 C 205.397 230.307,204.574 230.123,201.690 230.046 C 200.215 230.006,199.923 229.850,199.565 228.908 C 199.005 227.436,198.553 227.213,196.111 227.206 C 193.433 227.198,190.613 225.881,189.975 224.339 C 189.570 223.361,189.405 223.276,188.675 223.667 C 188.054 223.999,187.799 223.997,187.686 223.657 C 187.500 223.099,185.600 223.042,185.600 223.595 C 185.600 224.837,184.307 225.545,183.468 224.763 C 183.017 224.343,182.458 223.985,182.225 223.967 C 180.446 223.827,179.914 223.638,179.405 222.966 C 179.086 222.545,178.820 222.065,178.813 221.900 C 178.806 221.735,178.395 221.594,177.900 221.587 C 177.405 221.580,176.651 221.310,176.224 220.987 C 175.791 220.660,174.596 220.400,173.524 220.400 C 172.252 220.400,171.599 220.230,171.598 219.900 C 171.597 219.625,171.192 218.898,170.698 218.285 L 169.800 217.169 169.254 218.052 M89.946 221.500 C 89.250 222.344,88.002 225.036,87.994 225.714 C 87.977 227.031,87.215 227.400,84.507 227.400 C 82.037 227.400,81.578 227.537,79.558 228.878 C 76.986 230.585,74.400 231.344,71.852 231.142 C 70.212 231.011,70.043 231.084,69.854 232.000 C 69.741 232.550,68.989 233.751,68.185 234.668 L 66.721 236.337 65.110 235.768 C 63.047 235.040,62.400 235.051,62.400 235.813 C 62.400 236.149,62.130 236.529,61.800 236.655 C 61.459 236.786,61.180 237.429,61.153 238.143 L 61.105 239.400 60.800 238.200 L 60.495 237.000 60.447 238.290 C 60.403 239.503,60.329 239.566,59.200 239.340 L 58.000 239.100 58.000 266.117 C 58.000 293.391,58.037 294.400,59.043 294.400 C 59.484 294.400,59.600 295.277,59.600 298.600 C 59.600 301.100,59.762 302.820,60.000 302.850 C 60.220 302.877,60.625 302.923,60.900 302.950 C 61.185 302.978,61.486 303.775,61.600 304.800 C 61.710 305.790,62.010 306.600,62.267 306.600 C 63.038 306.600,63.280 307.073,63.280 308.576 C 63.280 309.751,63.451 310.048,64.240 310.246 C 65.048 310.448,65.200 310.734,65.200 312.043 C 65.200 313.316,65.341 313.600,65.973 313.600 C 66.513 313.600,66.785 313.923,66.873 314.667 C 66.994 315.683,67.029 315.698,67.600 314.990 C 68.035 314.451,68.050 314.336,67.657 314.573 C 67.103 314.907,67.102 314.910,67.795 312.500 C 67.937 312.005,68.232 311.600,68.451 311.600 C 68.669 311.600,68.736 311.780,68.600 312.000 C 68.456 312.234,68.866 312.400,69.586 312.400 C 70.534 312.400,70.908 312.632,71.200 313.400 C 71.409 313.950,71.855 314.400,72.190 314.400 C 72.574 314.400,72.800 314.029,72.800 313.400 C 72.800 312.778,72.573 312.400,72.200 312.400 C 71.843 312.400,71.602 312.036,71.606 311.500 C 71.614 310.294,72.551 308.576,73.133 308.700 C 73.390 308.755,73.600 308.638,73.600 308.440 C 73.600 308.242,74.505 307.755,75.611 307.357 C 76.907 306.891,77.551 306.450,77.424 306.118 C 77.040 305.117,80.410 303.625,83.540 303.410 C 84.277 303.360,84.997 303.157,85.140 302.959 C 85.283 302.762,86.261 302.195,87.313 301.699 C 88.365 301.203,89.329 300.528,89.456 300.199 C 89.585 299.862,90.181 299.600,90.819 299.600 C 91.443 299.600,92.051 299.442,92.170 299.248 C 92.625 298.513,98.435 297.429,99.237 297.930 C 100.490 298.713,101.203 298.483,101.457 297.215 C 101.911 294.945,104.937 294.049,106.909 295.600 C 108.017 296.471,110.111 296.642,111.802 295.999 C 112.611 295.692,112.996 295.738,113.456 296.199 C 114.229 296.972,115.200 296.972,115.200 296.200 C 115.200 295.870,114.860 295.600,114.443 295.600 C 113.997 295.600,113.587 295.231,113.444 294.700 C 113.311 294.205,112.579 293.350,111.818 292.800 C 111.057 292.250,110.242 291.346,110.006 290.790 C 109.771 290.235,108.863 289.087,107.989 288.238 C 107.115 287.390,106.400 286.370,106.400 285.972 C 106.400 285.573,106.210 285.130,105.979 284.987 C 105.747 284.844,104.811 283.168,103.898 281.263 C 102.986 279.358,102.101 277.742,101.932 277.671 C 101.763 277.600,101.504 276.880,101.356 276.071 C 101.208 275.262,100.677 273.790,100.177 272.800 C 99.676 271.810,99.141 270.208,98.988 269.241 C 98.835 268.273,98.480 266.923,98.199 266.241 C 97.918 265.558,97.563 263.650,97.411 262.000 C 97.258 260.350,96.894 258.010,96.601 256.800 C 96.252 255.357,95.973 250.128,95.790 241.600 C 95.592 232.389,95.363 228.309,95.004 227.600 C 94.725 227.050,94.289 225.617,94.035 224.416 C 93.328 221.079,91.418 219.717,89.946 221.500 M266.800 302.224 C 265.370 302.515,263.120 302.782,261.800 302.817 C 259.535 302.877,255.600 304.156,255.600 304.833 C 255.600 304.992,254.745 305.211,253.700 305.318 C 249.840 305.715,242.970 306.808,242.000 307.179 C 240.609 307.712,225.955 308.400,215.984 308.400 C 207.847 308.400,207.679 308.417,207.886 309.207 C 208.315 310.847,212.201 312.731,213.121 311.746 C 214.651 310.108,216.452 311.172,218.762 315.077 C 220.713 318.376,224.593 321.600,226.611 321.600 C 226.854 321.600,227.433 322.276,227.898 323.103 C 228.894 324.877,230.150 326.087,231.784 326.848 C 232.539 327.200,233.456 328.271,234.313 329.800 C 236.002 332.814,236.918 333.794,239.292 335.129 C 241.408 336.319,242.054 338.081,241.883 342.200 C 241.787 344.523,241.556 344.769,239.400 344.841 C 231.144 345.117,238.912 345.515,253.300 345.553 C 270.949 345.599,271.200 345.589,271.200 344.800 C 271.200 344.119,271.467 344.000,273.000 344.000 C 274.528 344.000,274.800 343.880,274.800 343.208 C 274.800 342.693,275.155 342.326,275.813 342.161 C 277.694 341.689,280.000 337.382,280.000 334.340 C 280.000 333.493,280.175 332.800,280.390 332.800 C 280.604 332.800,281.059 332.260,281.400 331.600 C 281.772 330.881,282.337 330.400,282.810 330.400 C 283.446 330.400,283.600 330.127,283.600 329.000 C 283.600 327.871,283.446 327.600,282.808 327.600 C 280.492 327.600,278.802 326.378,278.739 324.657 C 278.658 322.454,278.631 322.283,278.266 321.700 C 278.094 321.425,278.075 321.200,278.225 321.200 C 278.375 321.200,278.266 320.920,277.982 320.579 C 277.492 319.988,277.011 318.034,276.530 314.676 C 276.404 313.795,275.992 312.952,275.556 312.679 C 275.010 312.338,274.800 311.742,274.800 310.527 C 274.800 309.073,274.558 308.601,273.000 307.021 C 272.010 306.017,271.200 304.917,271.200 304.578 C 271.200 303.782,270.068 301.585,269.690 301.648 C 269.530 301.674,268.230 301.933,266.800 302.224 M70.221 306.900 C 69.826 308.688,69.552 309.104,68.378 309.699 C 66.470 310.668,65.661 310.637,66.572 309.631 C 67.238 308.895,67.223 308.834,66.234 308.185 C 65.014 307.386,64.932 306.766,65.928 305.865 C 66.571 305.283,66.746 305.274,67.428 305.790 C 68.233 306.400,70.035 306.621,69.953 306.100 C 69.843 305.403,70.024 304.800,70.343 304.800 C 70.531 304.800,70.476 305.745,70.221 306.900 M73.600 315.600 C 73.600 316.347,73.707 316.453,74.080 316.080 C 74.453 315.707,74.453 315.493,74.080 315.120 C 73.707 314.747,73.600 314.853,73.600 315.600 M66.875 316.425 C 66.967 316.701,67.472 316.992,67.997 317.072 C 69.072 317.236,69.013 317.123,67.654 316.415 C 66.898 316.022,66.741 316.024,66.875 316.425 M68.400 318.194 C 68.400 318.844,69.283 319.382,69.950 319.138 C 70.157 319.062,69.893 318.677,69.363 318.281 C 68.523 317.654,68.400 317.643,68.400 318.194 M288.400 342.000 L 287.000 342.295 288.500 342.347 C 289.325 342.376,290.000 342.220,290.000 342.000 C 290.000 341.780,289.955 341.624,289.900 341.653 C 289.845 341.682,289.170 341.838,288.400 342.000 " stroke="none" fill="#f1622c" fill-rule="evenodd"></path><path id="path3" d="M167.000 109.626 C 153.804 109.926,143.548 110.569,142.000 111.193 C 141.450 111.415,139.740 111.853,138.200 112.167 C 133.274 113.172,129.360 114.740,121.400 118.901 C 120.520 119.361,119.656 119.977,119.480 120.269 C 119.304 120.561,118.965 120.800,118.727 120.800 C 117.499 120.800,109.358 129.241,106.078 133.914 C 104.563 136.072,101.200 142.796,101.200 143.667 C 101.200 144.112,100.866 144.954,100.458 145.538 C 100.049 146.122,99.593 147.410,99.444 148.400 C 99.295 149.390,98.913 150.920,98.594 151.800 C 97.730 154.184,96.785 162.753,96.365 172.000 C 96.011 179.806,96.200 235.681,96.602 242.000 C 97.572 257.260,97.953 260.699,99.027 263.914 C 99.342 264.857,99.600 266.522,99.600 267.614 C 99.600 269.109,99.811 269.811,100.455 270.455 C 100.925 270.925,101.457 271.964,101.636 272.763 C 102.185 275.206,106.502 283.683,107.640 284.551 C 108.551 285.247,114.400 292.056,114.400 292.421 C 114.400 292.600,114.780 292.867,115.244 293.014 C 115.709 293.161,116.814 293.939,117.701 294.741 C 119.326 296.212,121.192 297.472,123.400 298.591 C 124.060 298.926,125.320 299.651,126.200 300.202 C 128.310 301.524,130.225 302.400,131.007 302.400 C 131.355 302.400,132.126 302.649,132.720 302.954 C 133.314 303.259,135.240 303.816,137.000 304.191 C 138.760 304.567,141.100 305.127,142.200 305.435 C 149.073 307.360,217.831 308.197,235.800 306.574 C 246.860 305.575,249.350 305.258,251.150 304.620 C 252.113 304.279,253.286 304.000,253.756 304.000 C 254.227 304.000,255.284 303.640,256.104 303.200 C 256.925 302.760,257.901 302.400,258.272 302.400 C 259.661 302.400,268.809 297.812,270.775 296.129 C 271.629 295.398,272.441 294.800,272.580 294.800 C 273.497 294.800,282.730 284.733,284.320 282.000 C 285.426 280.098,288.000 274.912,288.000 274.585 C 288.000 274.440,288.266 273.754,288.591 273.060 C 289.567 270.977,291.147 265.810,291.567 263.328 C 291.784 262.048,292.236 259.740,292.572 258.200 C 294.464 249.520,294.339 160.024,292.430 156.456 C 292.189 156.006,291.881 154.504,291.746 153.118 C 291.611 151.733,291.265 150.060,290.978 149.400 C 290.691 148.740,289.881 146.490,289.178 144.400 C 288.474 142.310,287.458 139.790,286.920 138.800 C 284.296 133.977,281.273 129.628,278.995 127.400 C 276.099 124.568,272.744 121.583,271.713 120.921 C 271.101 120.528,270.420 120.067,270.200 119.898 C 268.991 118.964,266.718 117.647,264.600 116.652 C 263.280 116.032,261.363 115.092,260.341 114.563 C 259.319 114.033,258.007 113.600,257.427 113.600 C 256.847 113.600,255.973 113.348,255.486 113.039 C 254.999 112.730,253.250 112.259,251.600 111.992 C 249.950 111.725,248.240 111.309,247.800 111.068 C 245.193 109.642,201.002 108.853,167.000 109.626 M234.400 127.977 C 240.530 128.205,243.974 128.504,245.200 128.913 C 246.190 129.243,247.782 129.627,248.737 129.767 C 249.692 129.907,251.170 130.376,252.021 130.811 C 252.872 131.245,253.860 131.600,254.217 131.600 C 256.476 131.600,265.651 138.991,268.557 143.151 C 270.132 145.405,272.400 150.009,272.400 150.951 C 272.400 151.330,272.646 152.126,272.947 152.720 C 273.248 153.314,273.807 155.420,274.188 157.400 C 274.570 159.380,275.079 161.990,275.320 163.200 C 276.122 167.230,275.956 254.078,275.141 256.800 C 274.779 258.010,274.361 259.720,274.212 260.600 C 273.814 262.961,271.640 269.292,270.976 270.027 C 270.659 270.377,270.399 270.829,270.398 271.031 C 270.393 272.190,266.374 276.959,262.145 280.824 C 260.091 282.702,253.697 286.075,251.200 286.599 C 250.430 286.760,249.620 287.032,249.400 287.202 C 245.079 290.543,148.670 290.758,141.800 287.441 C 141.140 287.123,139.880 286.743,139.000 286.597 C 138.120 286.452,136.860 286.007,136.200 285.610 C 135.540 285.212,134.427 284.765,133.728 284.617 C 133.028 284.470,132.231 284.078,131.957 283.748 C 131.683 283.418,130.905 282.863,130.229 282.515 C 125.628 280.146,119.608 272.538,117.674 266.644 C 117.176 265.130,116.579 263.534,116.346 263.098 C 113.454 257.696,112.370 178.817,114.981 163.844 C 115.322 161.892,115.600 159.540,115.600 158.617 C 115.600 157.695,116.050 155.651,116.600 154.077 C 117.150 152.503,117.600 151.012,117.600 150.765 C 117.600 150.346,119.144 147.120,120.789 144.103 C 121.178 143.389,122.906 141.361,124.629 139.596 C 126.352 137.831,127.860 136.248,127.981 136.078 C 128.322 135.599,132.093 133.200,132.505 133.200 C 132.708 133.200,133.331 132.840,133.891 132.400 C 134.450 131.960,135.251 131.600,135.670 131.600 C 136.089 131.600,137.124 131.247,137.971 130.815 C 138.817 130.383,140.696 129.840,142.145 129.609 C 143.594 129.377,145.279 128.988,145.890 128.743 C 148.372 127.749,213.217 127.188,234.400 127.977 M244.600 144.160 C 239.241 145.854,236.320 149.840,236.277 155.515 C 236.181 168.149,253.426 171.857,258.605 160.317 C 262.756 151.067,254.151 141.139,244.600 144.160 M190.767 157.763 C 190.675 157.852,188.800 158.107,186.600 158.329 C 184.400 158.551,182.060 159.016,181.400 159.364 C 180.740 159.711,179.860 159.996,179.444 159.998 C 174.924 160.012,160.010 170.300,155.377 176.600 C 154.729 177.479,154.059 178.379,153.886 178.600 C 152.909 179.846,149.600 185.264,149.600 185.618 C 149.600 185.848,149.150 186.882,148.600 187.915 C 148.050 188.948,147.599 190.065,147.598 190.397 C 147.596 190.729,147.331 191.507,147.008 192.126 C 146.685 192.745,146.216 194.365,145.965 195.726 C 145.714 197.087,145.328 198.650,145.107 199.200 C 144.530 200.636,144.233 212.220,144.712 214.600 C 145.846 220.232,146.520 222.938,147.030 223.918 C 147.341 224.513,147.596 225.313,147.598 225.696 C 147.607 228.371,155.454 240.438,159.884 244.591 C 163.472 247.955,170.621 253.044,172.355 253.468 C 172.930 253.609,174.027 254.146,174.793 254.662 C 175.559 255.178,176.459 255.606,176.793 255.613 C 177.127 255.620,178.390 255.987,179.600 256.429 C 187.424 259.283,204.142 259.507,209.153 256.825 C 209.563 256.606,210.776 256.230,211.849 255.991 C 213.917 255.530,217.844 253.773,218.729 252.913 C 219.019 252.631,219.469 252.397,219.729 252.394 C 219.988 252.391,221.100 251.755,222.200 250.981 C 223.300 250.208,224.830 249.144,225.600 248.618 C 227.188 247.533,234.400 240.628,234.400 240.192 C 234.400 240.036,235.075 238.995,235.900 237.879 C 239.361 233.201,243.600 224.691,243.600 222.421 C 243.600 222.025,243.999 220.824,244.486 219.751 C 245.810 216.832,245.851 201.277,244.545 197.000 C 244.075 195.460,243.586 193.625,243.460 192.923 C 243.333 192.220,242.502 190.109,241.615 188.231 C 240.727 186.353,240.000 184.698,240.000 184.553 C 240.000 184.408,238.965 182.765,237.700 180.902 C 236.435 179.039,235.139 177.129,234.820 176.657 C 233.004 173.972,225.136 166.965,222.003 165.243 C 214.164 160.933,208.797 158.953,202.807 158.162 C 198.906 157.647,191.149 157.390,190.767 157.763 M202.360 176.029 C 208.473 177.340,216.643 182.351,220.257 187.007 C 223.210 190.811,225.997 195.561,226.002 196.797 C 226.004 197.129,226.279 197.925,226.614 198.567 C 228.273 201.749,228.437 215.690,226.839 217.786 C 226.666 218.014,226.294 219.052,226.012 220.092 C 225.731 221.133,225.253 222.190,224.950 222.441 C 224.648 222.692,224.400 223.155,224.400 223.470 C 224.400 224.444,220.078 230.595,218.088 232.452 C 215.531 234.839,211.724 237.388,209.200 238.403 C 208.650 238.625,207.687 239.095,207.061 239.448 C 201.096 242.815,186.723 242.032,180.000 237.972 C 179.670 237.773,178.860 237.313,178.200 236.949 C 177.540 236.585,176.460 235.854,175.800 235.325 C 172.450 232.637,171.400 231.748,170.926 231.200 C 170.641 230.870,169.705 229.790,168.846 228.800 C 166.989 226.659,163.706 220.440,163.371 218.427 C 163.241 217.642,162.764 215.846,162.313 214.435 C 160.871 209.932,162.133 199.827,164.738 195.006 C 165.212 194.129,165.600 193.280,165.600 193.118 C 165.600 192.748,168.590 188.376,169.541 187.355 C 169.933 186.935,170.422 186.291,170.627 185.924 C 171.557 184.263,179.180 179.153,183.400 177.361 C 187.063 175.806,197.802 175.051,202.360 176.029 " stroke="none" fill="#f9f5f1" fill-rule="evenodd"></path><path id="path4" d="M113.696 215.800 C 113.652 245.125,114.462 259.578,116.346 263.098 C 116.579 263.534,117.176 265.130,117.674 266.644 C 119.608 272.538,125.628 280.146,130.229 282.515 C 130.905 282.863,131.683 283.418,131.957 283.748 C 132.231 284.078,133.028 284.470,133.728 284.617 C 134.427 284.765,135.540 285.212,136.200 285.610 C 136.860 286.007,138.120 286.452,139.000 286.597 C 139.880 286.743,141.140 287.123,141.800 287.441 C 148.670 290.758,245.079 290.543,249.400 287.202 C 249.620 287.032,250.430 286.760,251.200 286.599 C 253.697 286.075,260.091 282.702,262.145 280.824 C 266.374 276.959,270.393 272.190,270.398 271.031 C 270.399 270.829,269.822 271.549,269.116 272.631 C 267.597 274.961,261.114 281.407,259.400 282.293 C 258.740 282.634,257.771 283.248,257.246 283.657 C 256.721 284.065,256.001 284.401,255.646 284.402 C 255.291 284.404,254.466 284.683,253.814 285.023 C 246.935 288.611,228.301 289.464,184.061 288.218 C 172.697 287.898,160.250 287.567,156.400 287.482 C 151.011 287.363,149.117 287.180,148.171 286.690 C 147.496 286.340,145.336 285.928,143.371 285.776 C 141.407 285.623,139.530 285.268,139.200 284.986 C 138.870 284.705,137.792 284.259,136.804 283.996 C 135.039 283.526,133.299 282.499,131.905 281.105 C 131.517 280.717,130.845 280.400,130.412 280.400 C 129.978 280.400,128.763 279.593,127.712 278.607 C 126.660 277.621,125.665 276.811,125.500 276.807 C 125.335 276.803,125.199 276.575,125.197 276.300 C 125.195 276.025,124.393 274.990,123.415 274.000 C 122.437 273.010,121.628 271.974,121.618 271.697 C 121.608 271.421,121.171 270.821,120.646 270.365 C 120.098 269.888,119.589 268.891,119.450 268.020 C 119.316 267.186,118.950 266.290,118.635 266.029 C 118.320 265.768,117.941 264.799,117.793 263.877 C 117.644 262.955,117.276 261.809,116.973 261.332 C 115.435 258.903,114.350 241.914,114.026 215.200 L 113.733 191.000 113.696 215.800 M144.847 199.058 C 144.563 199.919,144.409 201.159,144.505 201.812 C 144.659 202.859,144.687 202.819,144.740 201.474 C 144.773 200.634,144.992 199.589,145.226 199.152 C 145.460 198.714,145.587 198.161,145.508 197.924 C 145.429 197.686,145.131 198.196,144.847 199.058 M162.622 201.129 C 162.458 201.859,162.422 202.556,162.542 202.676 C 162.843 202.977,163.320 200.956,163.099 200.317 C 163.001 200.033,162.786 200.398,162.622 201.129 M161.854 205.056 C 161.414 208.270,161.577 212.234,162.224 214.050 C 162.567 215.012,163.020 216.700,163.230 217.800 C 163.730 220.413,167.023 226.896,168.562 228.299 C 169.249 228.926,169.518 229.055,169.185 228.600 C 168.863 228.160,168.389 227.664,168.131 227.498 C 167.873 227.331,167.548 226.675,167.409 226.039 C 167.269 225.403,166.815 224.576,166.400 224.200 C 165.985 223.824,165.522 222.953,165.370 222.264 C 165.219 221.575,164.826 220.601,164.498 220.100 C 164.169 219.599,163.646 217.976,163.336 216.494 C 163.025 215.012,162.578 212.900,162.342 211.800 C 162.098 210.665,162.019 208.373,162.158 206.500 C 162.427 202.901,162.259 202.103,161.854 205.056 M144.150 209.000 C 144.151 211.420,144.216 212.358,144.296 211.085 C 144.376 209.812,144.375 207.832,144.294 206.685 C 144.214 205.538,144.149 206.580,144.150 209.000 M96.144 210.000 C 96.144 212.090,96.212 212.945,96.294 211.900 C 96.376 210.855,96.376 209.145,96.294 208.100 C 96.212 207.055,96.144 207.910,96.144 210.000 M227.714 211.400 C 227.717 212.500,227.795 212.903,227.887 212.295 C 227.979 211.686,227.977 210.786,227.882 210.295 C 227.787 209.803,227.711 210.300,227.714 211.400 M144.592 215.600 C 144.798 218.086,145.536 221.420,146.408 223.800 C 146.811 224.900,147.266 226.430,147.420 227.200 C 147.574 227.970,148.025 229.061,148.423 229.624 C 148.821 230.188,149.268 231.133,149.417 231.724 C 149.565 232.316,149.818 232.800,149.979 232.800 C 150.140 232.800,150.495 233.295,150.768 233.900 C 153.155 239.183,158.638 245.301,165.400 250.225 C 165.840 250.545,166.750 251.242,167.422 251.773 C 168.900 252.942,172.330 254.800,173.011 254.800 C 173.281 254.800,173.722 255.065,173.991 255.389 C 174.260 255.714,175.137 256.096,175.940 256.240 C 176.743 256.383,178.204 256.861,179.187 257.300 C 180.170 257.740,181.700 258.187,182.587 258.293 C 183.474 258.399,184.971 258.737,185.914 259.043 C 188.297 259.817,200.900 259.818,203.286 259.044 C 204.229 258.739,205.847 258.383,206.883 258.254 C 207.918 258.125,209.446 257.656,210.277 257.210 C 211.108 256.765,212.262 256.400,212.840 256.400 C 213.419 256.400,214.352 256.038,214.914 255.596 C 215.475 255.155,216.481 254.684,217.147 254.551 C 217.814 254.417,218.666 253.969,219.042 253.554 C 219.417 253.139,219.901 252.800,220.117 252.800 C 221.174 252.800,227.421 247.950,230.800 244.507 C 235.116 240.109,234.544 240.277,230.000 244.742 C 228.350 246.364,226.370 248.114,225.600 248.633 C 224.830 249.151,223.300 250.208,222.200 250.981 C 221.100 251.755,219.988 252.391,219.729 252.394 C 219.469 252.397,219.019 252.631,218.729 252.913 C 217.844 253.773,213.917 255.530,211.849 255.991 C 210.776 256.230,209.563 256.606,209.153 256.825 C 204.142 259.507,187.424 259.283,179.600 256.429 C 178.390 255.987,177.127 255.620,176.793 255.613 C 176.459 255.606,175.559 255.178,174.793 254.662 C 174.027 254.146,172.930 253.609,172.355 253.468 C 170.621 253.044,163.472 247.955,159.884 244.591 C 155.454 240.438,147.607 228.371,147.598 225.696 C 147.596 225.313,147.341 224.513,147.030 223.918 C 146.720 223.323,146.160 221.433,145.787 219.718 C 144.505 213.826,144.422 213.543,144.592 215.600 M95.842 220.988 C 95.352 227.716,95.904 253.975,96.595 256.800 C 96.891 258.010,97.258 260.350,97.411 262.000 C 97.563 263.650,97.918 265.558,98.199 266.241 C 98.480 266.923,98.835 268.273,98.988 269.241 C 99.141 270.208,99.676 271.810,100.177 272.800 C 100.677 273.790,101.208 275.262,101.356 276.071 C 101.504 276.880,101.763 277.600,101.932 277.671 C 102.101 277.742,102.986 279.358,103.898 281.263 C 104.811 283.168,105.747 284.844,105.979 284.987 C 106.210 285.130,106.400 285.573,106.400 285.972 C 106.400 286.370,107.115 287.390,107.989 288.238 C 108.863 289.087,109.771 290.235,110.006 290.790 C 110.242 291.346,111.057 292.250,111.818 292.800 C 112.579 293.350,113.311 294.205,113.444 294.700 C 113.587 295.231,113.997 295.600,114.443 295.600 C 114.860 295.600,115.200 295.870,115.200 296.200 C 115.200 296.972,114.229 296.972,113.456 296.199 C 112.996 295.738,112.611 295.692,111.802 295.999 C 110.111 296.642,108.017 296.471,106.909 295.600 C 104.937 294.049,101.911 294.945,101.457 297.215 C 101.203 298.483,100.490 298.713,99.237 297.930 C 98.435 297.429,92.625 298.513,92.170 299.248 C 92.051 299.442,91.443 299.600,90.819 299.600 C 90.181 299.600,89.585 299.862,89.456 300.199 C 89.329 300.528,88.365 301.203,87.313 301.699 C 86.261 302.195,85.283 302.762,85.140 302.959 C 84.997 303.157,84.277 303.360,83.540 303.410 C 80.410 303.625,77.040 305.117,77.424 306.118 C 77.551 306.450,76.907 306.891,75.611 307.357 C 74.505 307.755,73.600 308.242,73.600 308.440 C 73.600 308.638,73.390 308.755,73.133 308.700 C 72.551 308.576,71.614 310.294,71.606 311.500 C 71.602 312.036,71.843 312.400,72.200 312.400 C 72.573 312.400,72.800 312.778,72.800 313.400 C 72.800 314.029,72.574 314.400,72.190 314.400 C 71.855 314.400,71.409 313.950,71.200 313.400 C 70.908 312.632,70.534 312.400,69.586 312.400 C 68.866 312.400,68.456 312.234,68.600 312.000 C 68.736 311.780,68.669 311.600,68.451 311.600 C 68.232 311.600,67.966 311.915,67.859 312.300 C 67.751 312.685,67.540 313.428,67.389 313.950 C 67.177 314.685,67.237 314.828,67.657 314.581 C 67.956 314.406,67.863 314.647,67.451 315.117 C 66.712 315.960,66.716 315.979,67.738 316.445 C 68.308 316.704,68.689 317.056,68.584 317.226 C 68.478 317.397,68.844 317.891,69.396 318.326 C 70.058 318.846,70.400 319.513,70.400 320.281 C 70.400 320.922,70.683 321.796,71.030 322.224 C 71.376 322.651,71.530 322.730,71.371 322.400 C 71.133 321.905,71.180 321.890,71.637 322.315 C 71.941 322.599,72.193 323.138,72.195 323.514 C 72.198 323.890,72.425 324.221,72.700 324.249 C 72.975 324.277,73.380 324.322,73.600 324.350 C 73.820 324.378,74.000 324.764,74.000 325.210 C 74.000 325.711,74.391 326.168,75.024 326.409 C 75.587 326.623,75.934 326.983,75.794 327.209 C 75.655 327.435,75.689 327.587,75.870 327.546 C 76.602 327.383,77.600 328.131,77.600 328.843 C 77.600 329.319,77.881 329.600,78.357 329.600 C 79.054 329.600,79.814 330.589,79.664 331.300 C 79.629 331.465,79.735 331.579,79.900 331.553 C 80.784 331.413,81.200 331.684,81.200 332.400 C 81.200 333.067,81.467 333.200,82.800 333.200 C 84.103 333.200,84.400 333.341,84.400 333.957 C 84.400 334.430,84.774 334.807,85.400 334.964 C 86.046 335.126,86.400 335.496,86.400 336.008 C 86.400 336.674,86.672 336.800,88.105 336.800 C 89.490 336.800,89.885 336.969,90.205 337.700 C 90.600 338.600,90.729 338.656,92.600 338.750 C 93.317 338.786,93.600 339.027,93.600 339.600 C 93.600 340.280,93.867 340.400,95.372 340.400 C 96.905 340.400,97.162 340.521,97.272 341.300 C 97.387 342.106,97.656 342.212,99.858 342.318 C 101.905 342.416,102.350 342.567,102.521 343.218 C 102.710 343.944,103.102 344.000,107.963 344.000 C 112.933 344.000,113.200 344.041,113.200 344.800 C 113.200 345.596,113.467 345.600,173.793 345.600 C 230.860 345.600,235.640 345.527,241.000 344.576 C 243.272 344.173,241.902 336.597,239.292 335.129 C 236.918 333.794,236.002 332.814,234.313 329.800 C 233.456 328.271,232.539 327.200,231.784 326.848 C 230.150 326.087,228.894 324.877,227.898 323.103 C 227.433 322.276,226.854 321.600,226.611 321.600 C 224.593 321.600,220.713 318.376,218.762 315.077 C 216.452 311.172,214.651 310.108,213.121 311.746 C 212.201 312.731,208.315 310.847,207.886 309.207 C 207.679 308.417,207.847 308.400,215.984 308.400 C 225.955 308.400,240.609 307.712,242.000 307.179 C 242.550 306.969,244.903 306.548,247.229 306.245 C 249.555 305.942,252.021 305.403,252.709 305.047 C 253.397 304.691,254.414 304.400,254.968 304.400 C 257.639 304.400,269.820 297.957,273.223 294.744 C 274.005 294.005,275.175 292.937,275.823 292.370 C 276.470 291.804,277.630 290.640,278.400 289.784 C 279.170 288.927,278.360 289.561,276.600 291.192 C 274.840 292.823,273.340 294.302,273.267 294.479 C 273.193 294.655,272.952 294.800,272.730 294.800 C 272.509 294.800,271.629 295.398,270.775 296.129 C 268.809 297.812,259.661 302.400,258.272 302.400 C 257.901 302.400,256.925 302.760,256.104 303.200 C 255.284 303.640,254.227 304.000,253.756 304.000 C 253.286 304.000,252.113 304.279,251.150 304.620 C 249.350 305.258,246.860 305.575,235.800 306.574 C 217.831 308.197,149.073 307.360,142.200 305.435 C 141.100 305.127,138.760 304.567,137.000 304.191 C 135.240 303.816,133.314 303.259,132.720 302.954 C 132.126 302.649,131.355 302.400,131.007 302.400 C 130.225 302.400,128.310 301.524,126.200 300.202 C 125.320 299.651,124.060 298.926,123.400 298.591 C 121.192 297.472,119.326 296.212,117.701 294.741 C 116.814 293.939,115.709 293.161,115.244 293.014 C 114.780 292.867,114.400 292.600,114.400 292.421 C 114.400 292.056,108.551 285.247,107.640 284.551 C 106.502 283.683,102.185 275.206,101.636 272.763 C 101.457 271.964,100.925 270.925,100.455 270.455 C 99.821 269.821,99.600 269.107,99.600 267.697 C 99.600 266.651,99.405 265.166,99.167 264.397 C 98.197 261.268,97.976 259.904,97.353 253.200 C 96.984 249.233,96.592 239.702,96.447 231.200 C 96.220 217.898,96.152 216.742,95.842 220.988 M242.465 225.817 C 241.795 227.288,241.923 227.602,242.647 226.265 C 242.986 225.640,243.188 225.054,243.096 224.963 C 243.005 224.871,242.721 225.256,242.465 225.817 M219.901 229.771 C 216.161 233.953,212.603 236.426,206.690 238.952 C 204.276 239.983,196.077 241.316,193.800 241.048 C 188.687 240.447,184.233 239.574,183.645 239.060 C 183.290 238.749,182.550 238.364,182.000 238.205 C 180.818 237.863,175.407 234.606,174.059 233.425 C 173.542 232.971,172.417 231.946,171.559 231.147 C 170.702 230.348,170.000 229.853,170.000 230.047 C 170.000 230.574,170.902 231.395,175.800 235.325 C 176.460 235.854,177.540 236.585,178.200 236.949 C 178.860 237.313,179.670 237.773,180.000 237.972 C 186.723 242.032,201.096 242.815,207.061 239.448 C 207.687 239.095,208.650 238.625,209.200 238.403 C 213.258 236.771,218.458 232.685,221.028 229.108 C 222.840 226.586,222.649 226.698,219.901 229.771 M293.731 231.000 C 293.733 232.540,293.805 233.121,293.892 232.291 C 293.979 231.461,293.977 230.201,293.889 229.491 C 293.800 228.781,293.729 229.460,293.731 231.000 M238.481 234.030 C 238.107 234.706,237.012 236.333,236.049 237.646 C 235.086 238.958,234.381 240.114,234.482 240.215 C 234.583 240.316,235.214 239.634,235.885 238.699 C 237.434 236.541,239.645 232.800,239.371 232.800 C 239.256 232.800,238.856 233.353,238.481 234.030 M275.720 244.400 C 275.720 245.610,275.795 246.105,275.887 245.500 C 275.978 244.895,275.978 243.905,275.887 243.300 C 275.795 242.695,275.720 243.190,275.720 244.400 M275.301 254.200 C 275.305 255.080,275.387 255.393,275.483 254.895 C 275.579 254.398,275.575 253.678,275.475 253.295 C 275.375 252.913,275.296 253.320,275.301 254.200 M271.368 268.599 C 270.921 269.563,270.719 270.250,270.918 270.127 C 271.328 269.874,272.519 267.186,272.314 266.980 C 272.240 266.907,271.815 267.635,271.368 268.599 M282.711 284.300 C 281.911 285.345,280.877 286.605,280.413 287.100 C 279.949 287.595,279.713 288.000,279.890 288.000 C 280.181 288.000,283.351 284.200,284.120 282.929 C 284.801 281.802,284.099 282.485,282.711 284.300 M69.953 305.300 C 69.927 305.575,69.927 305.935,69.953 306.100 C 70.035 306.621,68.233 306.400,67.428 305.790 C 66.746 305.274,66.571 305.283,65.928 305.865 C 64.932 306.766,65.014 307.386,66.234 308.185 C 67.223 308.834,67.238 308.895,66.572 309.631 C 65.661 310.637,66.470 310.668,68.378 309.699 C 69.706 309.025,71.401 304.800,70.343 304.800 C 70.154 304.800,69.979 305.025,69.953 305.300 M74.080 316.080 C 73.707 316.453,73.600 316.347,73.600 315.600 C 73.600 314.853,73.707 314.747,74.080 315.120 C 74.453 315.493,74.453 315.707,74.080 316.080 " stroke="none" fill="#fac454" fill-rule="evenodd"></path></g></svg>