<svg id="svg" version="1.1" width="400" height="400" viewBox="0 0 400 400" xmlns="http://www.w3.org/2000/svg" xmlns:xlink="http://www.w3.org/1999/xlink" ><g id="svgg"><path id="path0" d="M286.600 120.686 C 286.105 120.835,280.885 122.820,275.000 125.098 C 269.115 127.376,257.460 131.877,249.100 135.100 C 212.425 149.239,119.080 185.239,99.496 192.796 C 89.619 196.607,88.565 197.072,86.091 198.707 C 79.837 202.841,80.173 207.851,86.900 210.785 C 87.450 211.025,99.284 214.775,113.197 219.118 C 127.111 223.461,138.572 227.092,138.666 227.186 C 138.760 227.280,142.598 239.720,147.194 254.829 C 151.790 269.938,156.018 283.830,156.589 285.700 C 158.230 291.078,158.707 291.503,163.100 291.496 C 168.543 291.487,167.240 292.449,184.480 275.713 C 191.400 268.996,197.205 263.507,197.380 263.515 C 197.556 263.523,207.555 270.816,219.600 279.722 C 231.645 288.627,242.879 296.931,244.565 298.175 C 251.803 303.516,257.508 304.168,261.500 300.113 C 263.798 297.778,264.570 295.786,266.286 287.757 C 266.998 284.426,274.622 248.580,283.228 208.100 L 298.875 134.500 298.882 131.500 C 298.894 126.175,297.169 122.897,293.425 121.130 C 291.868 120.396,288.331 120.166,286.600 120.686 " stroke="none" fill="#ecf1f8" fill-rule="evenodd"></path><path id="path1" d="M28.105 97.392 C 28.025 97.521,28.013 97.679,28.077 97.744 C 28.141 97.808,28.038 97.989,27.847 98.145 C 27.616 98.335,27.600 98.386,27.800 98.300 C 27.965 98.228,27.894 98.352,27.641 98.574 C 27.389 98.796,27.174 99.051,27.164 99.139 C 27.125 99.485,26.727 100.200,26.574 100.200 C 26.485 100.200,26.458 100.318,26.513 100.463 C 26.569 100.608,26.388 100.971,26.111 101.269 C 25.604 101.816,25.153 102.529,25.079 102.900 C 24.967 103.464,24.585 104.200,24.405 104.200 C 24.292 104.200,24.200 104.363,24.200 104.562 C 24.200 104.762,24.016 105.122,23.792 105.362 C 23.568 105.603,23.455 105.801,23.542 105.803 C 23.629 105.805,23.604 105.872,23.486 105.953 C 23.142 106.189,21.593 109.126,21.736 109.269 C 21.808 109.341,21.768 109.400,21.647 109.400 C 21.436 109.400,21.189 109.907,21.219 110.278 C 21.228 110.375,21.140 110.514,21.024 110.585 C 20.812 110.716,19.396 113.642,17.000 118.900 C 0.602 154.886,-4.248 199.170,3.804 239.400 C 21.186 326.249,93.904 391.462,182.100 399.294 C 271.965 407.274,355.890 354.462,387.485 270.053 C 388.318 267.827,389.000 265.884,389.000 265.734 C 389.000 265.584,389.145 265.171,389.322 264.816 C 389.499 264.461,389.657 263.952,389.672 263.685 C 389.687 263.419,389.765 263.200,389.844 263.200 C 389.923 263.200,389.936 263.065,389.872 262.900 C 389.809 262.735,389.862 262.600,389.990 262.600 C 390.119 262.600,390.172 262.516,390.109 262.414 C 390.045 262.311,390.086 262.170,390.200 262.100 C 390.314 262.030,390.359 261.895,390.300 261.800 C 390.241 261.705,390.289 261.569,390.405 261.497 C 390.521 261.425,390.558 261.183,390.487 260.958 C 390.401 260.688,390.431 260.596,390.576 260.685 C 390.714 260.770,390.751 260.705,390.676 260.510 C 390.611 260.340,390.654 260.200,390.772 260.200 C 390.891 260.200,390.939 260.074,390.880 259.920 C 390.821 259.766,390.870 259.580,390.990 259.506 C 391.109 259.433,391.159 259.295,391.100 259.200 C 391.041 259.105,391.081 258.974,391.188 258.907 C 391.295 258.841,391.332 258.655,391.270 258.494 C 391.208 258.332,391.254 258.200,391.372 258.200 C 391.491 258.200,391.536 258.065,391.472 257.900 C 391.409 257.735,391.462 257.600,391.590 257.600 C 391.719 257.600,391.772 257.516,391.709 257.414 C 391.645 257.311,391.686 257.171,391.798 257.101 C 391.911 257.031,391.964 256.756,391.915 256.488 C 391.866 256.216,391.958 255.870,392.126 255.702 C 392.291 255.538,392.373 255.319,392.309 255.215 C 392.246 255.112,392.286 254.970,392.400 254.900 C 392.514 254.830,392.549 254.679,392.478 254.564 C 392.407 254.449,392.472 254.279,392.623 254.186 C 392.825 254.061,392.838 253.958,392.673 253.793 C 392.269 253.389,283.752 206.967,283.607 207.136 C 283.528 207.226,282.818 210.360,282.027 214.100 C 270.168 270.183,265.097 293.677,264.515 295.235 C 262.047 301.840,257.543 304.136,251.213 302.015 C 248.271 301.029,248.464 301.164,222.547 282.018 C 208.842 271.893,197.546 263.585,197.445 263.555 C 197.344 263.525,191.600 268.995,184.681 275.712 C 167.931 291.971,169.036 291.092,164.673 291.626 C 160.072 292.189,158.140 291.114,156.994 287.354 C 156.649 286.224,155.975 284.040,155.495 282.500 C 154.608 279.650,140.854 234.400,139.463 229.752 L 138.700 227.205 137.500 226.810 C 136.840 226.593,125.619 223.083,112.564 219.011 C 86.972 211.028,86.720 210.945,85.004 209.902 C 78.987 206.247,80.845 200.751,89.467 196.696 C 90.475 196.223,104.125 190.889,119.800 184.844 C 135.475 178.799,155.156 171.209,163.537 167.976 C 171.917 164.744,178.712 162.042,178.637 161.972 C 178.561 161.901,144.752 147.383,103.504 129.709 C 62.256 112.035,28.450 97.481,28.379 97.366 C 28.292 97.226,28.203 97.234,28.105 97.392 " stroke="none" fill="#209bd0" fill-rule="evenodd"></path><path id="path2" d="M188.900 0.193 C 167.776 1.555,150.084 5.208,130.900 12.169 C 129.690 12.608,128.385 13.097,128.000 13.254 C 126.699 13.787,126.500 13.865,126.400 13.885 C 126.263 13.912,125.071 14.390,124.100 14.807 C 118.917 17.034,117.270 17.767,114.963 18.873 C 113.480 19.585,111.916 20.313,111.488 20.492 C 110.864 20.753,108.701 21.895,106.400 23.178 C 106.235 23.270,105.583 23.597,104.950 23.906 C 104.317 24.214,103.800 24.542,103.800 24.633 C 103.800 24.725,103.620 24.800,103.400 24.800 C 103.180 24.800,103.000 24.868,103.000 24.951 C 103.000 25.034,102.708 25.229,102.350 25.384 C 101.993 25.539,101.446 25.876,101.135 26.133 C 100.824 26.390,100.441 26.600,100.285 26.600 C 100.128 26.600,99.817 26.783,99.593 27.007 C 99.369 27.231,99.099 27.361,98.993 27.295 C 98.887 27.230,98.800 27.266,98.800 27.375 C 98.800 27.484,98.604 27.635,98.365 27.711 C 98.126 27.787,97.753 28.015,97.535 28.218 C 97.317 28.420,97.062 28.539,96.968 28.480 C 96.874 28.422,96.743 28.515,96.678 28.686 C 96.612 28.858,96.478 28.948,96.379 28.887 C 96.281 28.826,96.200 28.877,96.200 29.000 C 96.200 29.123,96.110 29.168,96.000 29.100 C 95.890 29.032,95.800 29.077,95.800 29.200 C 95.800 29.323,95.719 29.374,95.621 29.313 C 95.522 29.252,95.388 29.342,95.322 29.514 C 95.257 29.685,95.112 29.769,95.001 29.701 C 94.891 29.632,94.800 29.672,94.800 29.788 C 94.800 29.905,94.665 30.000,94.500 30.000 C 94.335 30.000,94.200 30.095,94.200 30.212 C 94.200 30.328,94.111 30.369,94.002 30.301 C 93.894 30.234,93.853 30.305,93.912 30.458 C 93.970 30.611,161.925 59.840,244.922 95.410 C 327.920 130.980,395.915 160.221,396.023 160.391 C 396.235 160.726,396.236 160.727,395.819 159.100 C 395.706 158.660,395.573 157.965,395.523 157.557 C 395.473 157.148,395.379 156.727,395.314 156.622 C 395.249 156.517,395.157 156.177,395.109 155.866 C 395.062 155.555,394.920 154.895,394.795 154.400 C 394.669 153.905,394.537 153.365,394.501 153.200 C 394.288 152.221,393.747 150.054,393.652 149.800 C 393.458 149.282,393.211 148.292,393.103 147.600 C 393.077 147.435,393.010 147.165,392.953 147.000 C 392.897 146.835,392.649 145.935,392.401 145.000 C 391.924 143.197,391.340 141.246,390.862 139.856 C 390.702 139.391,390.558 138.941,390.543 138.856 C 390.527 138.770,390.170 137.710,389.748 136.500 C 389.327 135.290,388.959 134.210,388.930 134.100 C 388.817 133.664,388.363 132.277,388.210 131.900 C 387.935 131.222,387.453 129.956,386.992 128.700 C 386.749 128.040,386.456 127.275,386.340 127.000 C 386.224 126.725,386.118 126.455,386.104 126.400 C 386.010 126.006,385.674 125.144,385.272 124.263 C 385.013 123.692,384.800 123.175,384.800 123.114 C 384.800 123.052,384.485 122.320,384.100 121.486 C 383.715 120.653,383.400 119.938,383.400 119.897 C 383.400 119.857,383.009 118.986,382.530 117.962 C 382.052 116.938,381.490 115.695,381.280 115.200 C 380.483 113.312,375.934 104.455,374.626 102.241 C 374.282 101.659,374.000 101.107,374.000 101.016 C 374.000 100.924,373.874 100.744,373.719 100.616 C 373.565 100.488,373.202 99.915,372.913 99.342 C 372.052 97.635,370.836 95.621,369.368 93.467 C 369.055 93.009,368.800 92.578,368.800 92.509 C 368.800 92.440,368.706 92.274,368.592 92.142 C 368.478 92.009,367.465 90.502,366.342 88.792 C 365.219 87.083,364.120 85.451,363.900 85.165 C 363.680 84.880,363.365 84.444,363.200 84.196 C 362.407 83.008,357.934 77.065,356.429 75.200 C 347.975 64.728,339.571 56.087,329.351 47.358 C 325.952 44.454,324.012 42.918,318.976 39.145 C 317.394 37.960,315.984 36.895,315.841 36.779 C 315.369 36.394,306.709 30.665,306.200 30.401 C 305.925 30.258,304.734 29.522,303.554 28.766 C 302.374 28.009,301.249 27.332,301.054 27.262 C 300.859 27.191,300.324 26.878,299.864 26.566 C 299.404 26.255,298.962 26.000,298.881 26.000 C 298.801 26.000,298.322 25.739,297.818 25.419 C 294.677 23.431,283.023 17.719,277.600 15.511 C 276.101 14.901,275.840 14.790,274.552 14.220 C 274.031 13.989,273.512 13.800,273.399 13.800 C 273.287 13.800,273.038 13.711,272.847 13.602 C 272.656 13.493,271.600 13.079,270.500 12.682 C 269.400 12.286,267.960 11.753,267.300 11.498 C 264.636 10.470,255.180 7.505,252.600 6.889 C 252.435 6.850,250.545 6.372,248.400 5.828 C 246.255 5.284,244.005 4.742,243.400 4.624 C 242.795 4.506,241.445 4.225,240.400 4.000 C 236.263 3.108,227.298 1.651,223.900 1.317 C 223.240 1.253,221.440 1.066,219.900 0.903 C 218.360 0.741,215.885 0.507,214.400 0.385 C 211.151 0.117,192.279 -0.025,188.900 0.193 M59.087 57.850 L 58.500 58.500 59.150 57.913 C 59.756 57.365,59.892 57.200,59.737 57.200 C 59.703 57.200,59.410 57.492,59.087 57.850 M57.687 59.250 L 57.100 59.900 57.750 59.313 C 58.108 58.990,58.400 58.697,58.400 58.663 C 58.400 58.508,58.235 58.644,57.687 59.250 M288.850 120.346 C 289.262 120.389,289.938 120.389,290.350 120.346 C 290.762 120.303,290.425 120.267,289.600 120.267 C 288.775 120.267,288.438 120.303,288.850 120.346 M295.400 122.263 C 295.400 122.297,295.693 122.590,296.050 122.913 L 296.700 123.500 296.113 122.850 C 295.565 122.244,295.400 122.108,295.400 122.263 " stroke="none" fill="#34ace4" fill-rule="evenodd"></path><path id="path3" d="M93.595 30.538 C 93.323 30.725,93.055 30.937,93.000 31.011 C 92.945 31.086,92.698 31.209,92.450 31.287 C 92.203 31.364,92.000 31.511,92.000 31.613 C 92.000 31.716,91.865 31.800,91.700 31.800 C 91.535 31.800,91.400 31.890,91.400 32.000 C 91.400 32.110,91.260 32.200,91.088 32.200 C 90.917 32.200,90.823 32.275,90.879 32.367 C 90.936 32.458,90.867 32.533,90.726 32.533 C 90.441 32.533,88.539 33.782,88.433 34.038 C 88.397 34.127,88.262 34.200,88.133 34.200 C 88.005 34.200,87.630 34.434,87.300 34.719 C 86.970 35.005,86.385 35.402,86.000 35.602 C 85.615 35.802,85.114 36.141,84.886 36.357 C 84.658 36.573,84.152 36.963,83.761 37.224 C 80.929 39.121,75.086 43.590,72.198 46.069 C 71.922 46.306,71.202 46.905,70.598 47.399 C 69.994 47.894,69.403 48.389,69.285 48.499 C 69.166 48.610,68.455 49.240,67.704 49.900 C 64.696 52.545,63.285 53.893,58.193 58.989 C 55.275 61.910,51.942 65.380,50.786 66.700 C 47.247 70.745,44.001 74.619,42.910 76.100 C 42.586 76.540,42.266 76.945,42.198 77.000 C 41.977 77.179,38.079 82.428,36.958 84.056 C 36.596 84.582,36.196 85.130,36.068 85.273 C 35.860 85.509,34.603 87.360,34.099 88.175 C 33.989 88.354,33.309 89.400,32.590 90.500 C 31.871 91.600,31.066 92.860,30.801 93.300 C 30.537 93.740,30.265 94.145,30.197 94.200 C 30.129 94.255,29.782 94.816,29.425 95.446 C 29.068 96.076,28.691 96.644,28.588 96.708 C 27.726 97.240,27.682 97.221,103.664 129.784 L 178.928 162.040 221.214 145.732 C 244.471 136.763,268.540 127.479,274.700 125.101 C 286.330 120.611,287.541 120.208,289.440 120.203 C 296.739 120.184,300.510 126.856,298.538 136.300 C 298.262 137.620,294.781 154.031,290.803 172.768 C 286.824 191.505,283.599 206.863,283.635 206.896 C 283.671 206.929,308.000 217.369,337.700 230.096 C 367.400 242.822,391.938 253.350,392.229 253.491 L 392.757 253.748 393.770 249.824 C 394.327 247.666,394.919 245.270,395.085 244.500 C 395.251 243.730,395.562 242.335,395.774 241.400 C 396.180 239.616,396.331 238.821,396.515 237.500 C 396.576 237.060,396.707 236.430,396.804 236.100 C 396.902 235.770,397.083 234.738,397.207 233.806 C 397.330 232.874,397.461 232.063,397.498 232.004 C 397.555 231.911,398.236 227.308,398.505 225.200 C 398.772 223.108,399.190 219.072,399.304 217.500 C 399.375 216.510,399.465 215.496,399.504 215.247 C 399.739 213.737,399.900 207.558,399.900 200.000 C 399.900 189.894,399.784 187.058,399.100 180.420 C 399.039 179.826,398.951 178.971,398.904 178.520 C 398.858 178.069,398.766 177.160,398.700 176.500 C 398.594 175.432,398.108 171.936,397.881 170.600 C 397.682 169.433,397.579 168.672,397.565 168.250 C 397.557 168.003,397.492 167.800,397.421 167.800 C 397.350 167.800,397.285 167.463,397.275 167.050 C 397.266 166.638,397.188 166.030,397.102 165.700 C 397.016 165.370,396.924 164.875,396.898 164.600 C 396.873 164.325,396.833 164.100,396.810 164.100 C 396.786 164.100,396.739 163.875,396.705 163.600 C 396.650 163.155,396.538 162.527,396.350 161.600 C 396.316 161.435,396.236 161.210,396.172 161.100 C 396.107 160.990,396.072 160.703,396.093 160.461 C 396.114 160.220,396.075 160.040,396.006 160.061 C 395.631 160.177,93.996 30.699,94.087 30.462 C 94.215 30.127,94.189 30.132,93.595 30.538 M26.126 101.050 L 25.767 101.700 26.179 101.200 C 26.544 100.757,26.707 100.400,26.543 100.400 C 26.512 100.400,26.324 100.692,26.126 101.050 M24.918 102.971 C 24.697 103.329,24.383 104.291,24.549 104.100 C 24.770 103.847,25.220 102.800,25.108 102.800 C 25.061 102.800,24.976 102.877,24.918 102.971 " stroke="none" fill="#2cacdc" fill-rule="evenodd"></path><path id="path4" d="M83.589 200.550 L 82.900 201.300 83.650 200.611 C 84.348 199.969,84.492 199.800,84.339 199.800 C 84.306 199.800,83.968 200.138,83.589 200.550 M81.450 204.900 C 81.453 205.340,81.494 205.496,81.541 205.248 C 81.589 204.999,81.587 204.639,81.537 204.448 C 81.487 204.256,81.448 204.460,81.450 204.900 M191.000 269.425 L 184.900 275.439 191.050 269.489 C 196.561 264.157,197.334 263.386,197.150 263.405 C 197.123 263.408,194.355 266.117,191.000 269.425 M181.098 279.050 L 177.700 282.500 181.150 279.102 C 184.355 275.945,184.690 275.600,184.548 275.600 C 184.519 275.600,182.967 277.153,181.098 279.050 M174.597 285.350 L 171.700 288.300 174.650 285.403 C 176.273 283.809,177.600 282.482,177.600 282.453 C 177.600 282.309,177.289 282.610,174.597 285.350 M170.887 288.850 L 170.300 289.500 170.950 288.913 C 171.308 288.590,171.600 288.297,171.600 288.263 C 171.600 288.108,171.435 288.244,170.887 288.850 M162.653 291.744 C 162.957 291.789,163.407 291.788,163.653 291.741 C 163.899 291.693,163.650 291.656,163.100 291.657 C 162.550 291.659,162.349 291.698,162.653 291.744 " stroke="none" fill="#34abdb" fill-rule="evenodd"></path></g></svg>