<svg id="svg" version="1.1" width="400" height="251.62995594713658" viewBox="0 0 400 251.62995594713658" xmlns="http://www.w3.org/2000/svg" xmlns:xlink="http://www.w3.org/1999/xlink" ><g id="svgg"><path id="path0" d="M17.369 208.811 L 17.369 238.138 200.189 238.074 L 383.008 238.011 383.008 208.811 L 383.008 179.610 200.189 179.547 L 17.369 179.484 17.369 208.811 " stroke="none" fill="#e39404" fill-rule="evenodd"></path><path id="path1" d="M0.000 125.865 L 0.000 251.731 200.000 251.731 L 400.000 251.731 400.000 125.865 L 400.000 0.000 200.000 0.000 L 0.000 0.000 0.000 125.865 M395.406 126.054 L 395.469 247.451 200.000 247.451 L 4.531 247.451 4.531 125.991 L 4.531 4.531 199.937 4.594 L 395.343 4.657 395.406 126.054 M16.614 43.046 L 16.614 73.002 200.000 73.002 L 383.386 73.002 383.386 43.046 L 383.386 13.090 200.000 13.090 L 16.614 13.090 16.614 43.046 M234.511 82.277 C 234.439 82.394,233.050 82.566,231.425 82.659 C 229.800 82.751,228.408 82.915,228.332 83.021 C 228.256 83.128,227.352 83.356,226.323 83.528 C 225.294 83.700,224.331 83.937,224.183 84.056 C 224.035 84.175,223.522 84.356,223.042 84.459 C 222.562 84.561,221.995 84.736,221.783 84.847 C 221.571 84.958,220.831 85.293,220.138 85.590 C 216.655 87.089,212.948 89.333,212.385 90.283 C 212.275 90.470,212.044 90.623,211.874 90.623 C 211.535 90.623,208.685 93.406,208.685 93.736 C 208.685 93.848,208.173 94.525,207.548 95.239 C 206.255 96.717,203.398 102.274,203.398 103.311 C 203.398 103.532,203.303 103.713,203.187 103.713 C 203.071 103.713,202.836 104.704,202.664 105.916 C 202.492 107.127,202.247 108.315,202.120 108.555 C 201.816 109.127,201.819 114.416,202.123 114.981 C 202.252 115.222,202.485 115.985,202.641 116.677 C 202.958 118.087,204.596 121.586,204.939 121.586 C 205.061 121.586,205.160 121.715,205.160 121.873 C 205.160 122.566,212.132 129.641,212.816 129.641 C 212.910 129.641,213.238 129.907,213.543 130.232 C 213.847 130.557,214.213 130.869,214.354 130.925 C 214.623 131.030,216.142 132.124,218.255 133.732 C 218.936 134.251,219.611 134.676,219.753 134.676 C 219.896 134.676,220.013 134.793,220.013 134.936 C 220.013 135.078,220.211 135.265,220.453 135.351 C 220.695 135.436,221.536 136.056,222.321 136.727 C 223.106 137.399,223.843 137.948,223.958 137.948 C 224.199 137.948,225.551 139.331,225.551 139.577 C 225.551 139.667,225.876 140.158,226.275 140.669 C 227.053 141.668,227.565 142.950,227.565 143.902 C 227.565 144.227,227.678 144.493,227.816 144.493 C 227.955 144.493,228.068 144.833,228.068 145.249 C 228.068 145.664,227.969 146.004,227.849 146.004 C 227.729 146.004,227.570 146.535,227.497 147.184 C 227.422 147.846,227.187 148.494,226.961 148.659 C 226.739 148.822,226.558 149.074,226.558 149.221 C 226.558 149.598,224.763 151.080,223.681 151.598 C 223.182 151.836,222.379 152.223,221.895 152.457 C 221.412 152.690,220.943 152.808,220.852 152.717 C 220.762 152.627,220.556 152.663,220.393 152.798 C 220.231 152.933,219.112 153.118,217.907 153.211 C 216.702 153.304,215.657 153.476,215.584 153.593 C 215.398 153.895,212.020 153.861,211.831 153.556 C 211.746 153.417,211.214 153.304,210.649 153.304 C 209.177 153.304,205.160 152.742,205.160 152.536 C 205.160 152.440,204.594 152.287,203.902 152.195 C 203.210 152.103,202.643 151.929,202.643 151.807 C 202.643 151.686,202.201 151.511,201.659 151.420 C 201.118 151.328,200.467 151.096,200.212 150.902 C 199.957 150.709,199.591 150.547,199.398 150.543 C 198.976 150.533,196.790 149.488,196.573 149.192 C 196.489 149.076,196.319 148.976,196.196 148.969 C 195.886 148.952,194.741 148.439,194.588 148.249 C 193.498 146.896,193.126 147.240,190.742 151.794 C 188.505 156.066,187.991 156.997,187.381 157.880 C 186.383 159.323,186.299 160.669,187.182 161.071 C 187.569 161.247,188.289 161.696,188.783 162.068 C 190.030 163.006,190.392 163.216,192.826 164.406 C 195.803 165.863,196.318 166.078,197.609 166.407 C 198.232 166.565,198.855 166.784,198.993 166.893 C 199.132 167.002,199.641 167.167,200.126 167.261 C 200.610 167.354,201.233 167.529,201.510 167.649 C 202.046 167.881,205.496 168.443,206.854 168.519 C 207.301 168.544,207.744 168.642,207.840 168.738 C 208.068 168.966,220.380 168.964,220.608 168.735 C 220.705 168.639,221.149 168.539,221.594 168.514 C 223.163 168.427,226.684 167.861,226.934 167.656 C 227.073 167.541,227.753 167.367,228.446 167.268 C 229.138 167.169,230.179 166.875,230.760 166.615 C 231.341 166.355,231.992 166.142,232.208 166.142 C 232.423 166.142,232.599 166.054,232.599 165.946 C 232.599 165.838,232.967 165.596,233.417 165.408 C 233.867 165.220,234.292 165.041,234.361 165.009 C 234.430 164.978,234.855 164.799,235.305 164.611 C 235.755 164.423,236.123 164.181,236.123 164.073 C 236.123 163.965,236.253 163.877,236.412 163.877 C 236.571 163.877,237.185 163.480,237.776 162.996 C 238.367 162.511,238.948 162.115,239.066 162.115 C 239.343 162.115,243.424 158.018,243.424 157.740 C 243.424 157.625,243.763 157.101,244.179 156.576 C 244.594 156.052,244.934 155.503,244.934 155.357 C 244.934 155.211,245.077 155.001,245.252 154.890 C 245.582 154.681,246.948 152.014,246.948 151.578 C 246.948 151.442,247.137 150.954,247.368 150.492 C 248.119 148.994,248.164 148.862,248.475 147.234 C 248.644 146.350,248.907 145.467,249.061 145.273 C 249.430 144.804,249.447 134.984,249.079 134.730 C 248.936 134.631,248.672 133.814,248.492 132.914 C 248.312 132.014,248.061 131.240,247.934 131.194 C 247.807 131.147,247.703 130.997,247.703 130.860 C 247.703 130.461,245.642 127.019,245.271 126.797 C 245.086 126.686,244.934 126.457,244.934 126.288 C 244.934 125.952,240.394 121.334,240.063 121.334 C 239.950 121.334,239.374 120.938,238.783 120.453 C 238.192 119.969,237.578 119.572,237.419 119.572 C 237.260 119.572,237.130 119.456,237.130 119.314 C 237.130 119.172,236.875 118.940,236.564 118.798 C 235.129 118.143,232.101 116.129,231.768 115.608 C 231.658 115.435,231.428 115.293,231.258 115.293 C 230.893 115.293,227.846 112.172,227.326 111.265 C 225.705 108.435,225.454 107.634,225.508 105.441 C 225.543 103.995,226.386 101.861,227.183 101.199 C 227.393 101.025,227.565 100.745,227.565 100.577 C 227.565 100.255,228.849 99.011,229.703 98.506 C 231.236 97.599,233.004 96.848,233.881 96.730 C 234.429 96.657,234.938 96.499,235.012 96.379 C 235.186 96.096,238.066 96.094,238.241 96.377 C 238.314 96.496,238.987 96.656,239.735 96.733 C 240.484 96.810,241.308 96.983,241.568 97.116 C 241.827 97.249,242.492 97.493,243.046 97.659 C 244.556 98.110,248.025 99.739,250.598 101.205 C 251.290 101.600,252.026 102.007,252.234 102.110 C 252.442 102.213,252.725 102.440,252.863 102.614 C 253.462 103.367,254.396 103.281,255.093 102.409 C 255.460 101.950,255.930 101.394,256.137 101.175 C 256.344 100.955,256.514 100.684,256.514 100.572 C 256.514 100.461,257.023 99.772,257.646 99.043 C 258.269 98.314,258.779 97.594,258.779 97.445 C 258.779 97.295,259.006 97.031,259.283 96.858 C 259.559 96.685,259.786 96.445,259.786 96.326 C 259.786 96.113,260.673 94.921,261.424 94.126 C 261.631 93.907,261.800 93.633,261.800 93.517 C 261.800 93.401,261.998 93.086,262.240 92.818 C 262.708 92.301,258.825 88.106,257.879 88.106 C 257.673 88.106,257.442 87.943,257.366 87.744 C 257.289 87.544,256.896 87.309,256.493 87.220 C 256.089 87.131,255.758 86.965,255.758 86.850 C 255.758 86.632,254.259 85.883,252.738 85.340 C 251.569 84.923,250.189 84.356,249.698 84.091 C 249.480 83.973,248.404 83.736,247.307 83.564 C 246.209 83.392,245.184 83.152,245.029 83.031 C 244.874 82.910,243.482 82.739,241.936 82.650 C 240.390 82.562,239.066 82.394,238.994 82.277 C 238.823 81.999,234.683 81.999,234.511 82.277 M79.649 84.175 C 79.575 84.367,79.551 85.015,79.594 85.615 L 79.673 86.707 82.064 87.018 C 83.379 87.189,84.640 87.440,84.865 87.575 C 85.090 87.709,85.685 87.897,86.187 87.991 C 86.688 88.085,87.099 88.244,87.099 88.345 C 87.099 88.446,87.580 88.685,88.169 88.876 C 89.700 89.373,93.289 92.963,93.528 94.237 C 93.622 94.741,93.795 95.154,93.912 95.154 C 94.029 95.154,94.201 95.579,94.295 96.098 C 94.388 96.617,94.566 97.171,94.691 97.328 C 95.038 97.768,95.392 104.698,95.399 111.202 C 95.403 114.421,95.505 117.055,95.626 117.055 C 95.748 117.055,95.930 123.030,96.031 130.334 C 96.133 137.637,96.303 143.726,96.409 143.864 C 96.516 144.003,96.685 149.383,96.785 155.821 C 96.884 162.259,97.018 167.612,97.082 167.716 C 97.263 168.010,115.487 167.949,115.670 167.653 C 115.756 167.514,116.357 167.398,117.007 167.396 C 118.105 167.391,119.572 166.180,119.572 165.278 C 119.572 165.121,120.843 163.098,121.085 162.870 C 121.159 162.801,121.360 162.461,121.533 162.115 C 121.706 161.768,122.123 161.032,122.459 160.478 C 122.795 159.924,123.187 159.216,123.329 158.905 C 123.471 158.593,123.679 158.339,123.790 158.339 C 123.902 158.339,124.130 158.027,124.298 157.646 C 124.465 157.266,124.884 156.501,125.228 155.947 C 125.572 155.393,125.926 154.742,126.015 154.500 C 126.103 154.257,126.263 154.059,126.369 154.059 C 126.475 154.059,126.627 153.861,126.706 153.619 C 126.786 153.376,127.140 152.725,127.492 152.171 C 127.845 151.617,128.305 150.796,128.513 150.346 C 128.722 149.896,128.991 149.528,129.112 149.528 C 129.232 149.528,129.403 149.330,129.492 149.087 C 129.581 148.845,129.935 148.194,130.279 147.640 C 130.623 147.086,131.041 146.322,131.209 145.941 C 131.377 145.560,131.601 145.249,131.707 145.249 C 131.813 145.249,132.071 144.880,132.279 144.430 C 132.488 143.980,132.948 143.159,133.301 142.605 C 133.653 142.052,134.007 141.400,134.087 141.158 C 134.166 140.916,134.323 140.717,134.435 140.717 C 134.547 140.717,134.799 140.406,134.994 140.025 C 135.686 138.675,136.494 137.314,136.824 136.941 C 137.008 136.733,137.285 136.280,137.440 135.934 C 137.596 135.588,137.998 134.852,138.334 134.298 C 138.670 133.744,139.087 133.008,139.260 132.662 C 139.433 132.316,139.634 131.976,139.706 131.907 C 139.829 131.789,140.720 130.408,141.412 129.264 C 141.579 128.987,142.199 127.980,142.790 127.026 C 144.457 124.335,144.958 123.505,145.158 123.096 C 145.260 122.889,145.693 122.209,146.120 121.586 C 146.547 120.963,147.035 120.170,147.203 119.824 C 147.540 119.133,147.891 118.540,148.568 117.513 C 149.085 116.730,149.960 115.215,150.469 114.223 C 150.664 113.842,150.915 113.531,151.027 113.531 C 151.140 113.531,151.296 113.332,151.376 113.090 C 151.455 112.848,151.809 112.196,152.162 111.643 C 152.515 111.089,152.974 110.267,153.183 109.817 C 153.392 109.368,153.649 108.999,153.756 108.999 C 153.862 108.999,154.086 108.688,154.254 108.307 C 154.421 107.926,154.840 107.162,155.184 106.608 C 155.528 106.054,155.882 105.403,155.970 105.160 C 156.059 104.918,156.230 104.720,156.351 104.720 C 156.471 104.720,156.740 104.352,156.949 103.902 C 157.158 103.452,157.615 102.631,157.965 102.077 C 158.315 101.523,158.674 100.900,158.763 100.692 C 158.853 100.485,159.222 99.862,159.585 99.308 C 160.507 97.900,160.813 97.388,161.167 96.665 C 161.336 96.318,161.534 95.979,161.607 95.909 C 161.724 95.797,162.439 94.693,163.318 93.266 C 163.489 92.989,163.767 92.480,163.937 92.133 C 164.107 91.787,164.616 90.981,165.068 90.341 C 165.520 89.702,165.890 89.089,165.890 88.980 C 165.890 88.872,166.174 88.411,166.520 87.957 C 166.866 87.504,167.152 87.040,167.155 86.927 C 167.158 86.814,167.382 86.438,167.653 86.092 C 167.923 85.746,168.147 85.378,168.150 85.274 C 168.166 84.756,148.982 85.069,148.846 85.588 C 148.773 85.865,148.627 86.092,148.521 86.092 C 148.415 86.092,148.263 86.290,148.184 86.532 C 148.104 86.775,147.750 87.426,147.397 87.980 C 147.044 88.534,146.558 89.385,146.317 89.871 C 146.075 90.357,145.623 91.111,145.312 91.546 C 145.000 91.981,144.745 92.407,144.745 92.492 C 144.745 92.659,143.461 94.693,143.223 94.902 C 143.144 94.972,142.921 95.425,142.726 95.909 C 142.396 96.733,142.130 97.173,140.242 100.031 C 139.842 100.636,139.366 101.542,139.184 102.044 C 139.003 102.547,138.772 102.958,138.671 102.958 C 138.571 102.958,138.329 103.269,138.134 103.650 C 137.457 104.971,136.637 106.358,136.312 106.734 C 136.132 106.941,135.804 107.508,135.584 107.992 C 135.363 108.477,134.896 109.327,134.546 109.880 C 134.196 110.434,133.836 111.057,133.745 111.265 C 133.654 111.473,133.515 111.699,133.436 111.768 C 133.203 111.971,132.692 112.827,132.159 113.908 C 131.625 114.989,131.114 115.845,130.882 116.048 C 130.802 116.117,130.663 116.344,130.572 116.551 C 130.481 116.759,130.121 117.382,129.771 117.936 C 129.421 118.490,128.955 119.332,128.736 119.808 C 128.516 120.284,128.064 121.031,127.730 121.468 C 127.397 121.905,127.124 122.339,127.124 122.433 C 127.124 122.610,125.851 124.638,125.602 124.858 C 125.523 124.928,125.300 125.381,125.105 125.865 C 124.774 126.689,124.509 127.129,122.621 129.987 C 122.221 130.592,121.745 131.498,121.563 132.000 C 121.382 132.503,121.151 132.914,121.050 132.914 C 120.950 132.914,120.708 133.225,120.513 133.606 C 119.857 134.885,119.011 136.306,118.576 136.859 C 118.103 137.460,117.811 121.789,117.810 95.861 C 117.810 89.812,117.725 84.810,117.621 84.746 C 117.517 84.682,111.963 84.546,105.279 84.443 C 98.594 84.341,93.065 84.160,92.992 84.042 C 92.747 83.645,79.803 83.774,79.649 84.175 M175.372 84.498 C 175.280 84.590,175.205 84.986,175.205 85.379 C 175.205 85.771,175.109 86.092,174.993 86.092 C 174.876 86.092,174.637 86.743,174.461 87.539 C 174.285 88.335,174.051 89.100,173.940 89.239 C 173.830 89.377,173.660 89.915,173.563 90.434 C 173.466 90.953,173.304 91.378,173.203 91.378 C 173.102 91.378,172.875 92.030,172.699 92.826 C 172.523 93.622,172.289 94.386,172.178 94.525 C 172.068 94.663,171.896 95.230,171.796 95.784 C 171.696 96.337,171.534 96.904,171.435 97.042 C 171.336 97.181,171.107 97.860,170.925 98.553 C 170.744 99.245,170.513 99.924,170.412 100.063 C 170.311 100.201,170.145 100.711,170.044 101.196 C 169.943 101.680,169.776 102.190,169.674 102.329 C 169.571 102.467,169.349 103.145,169.181 103.836 C 169.012 104.526,168.782 105.206,168.670 105.346 C 168.558 105.486,168.383 105.997,168.282 106.482 C 168.181 106.967,168.016 107.476,167.917 107.615 C 167.817 107.753,167.595 108.523,167.422 109.325 C 167.249 110.127,166.948 111.089,166.753 111.464 C 166.557 111.839,166.396 112.338,166.396 112.572 C 166.395 112.806,166.300 113.056,166.185 113.127 C 166.070 113.198,165.834 113.889,165.661 114.662 C 165.488 115.436,165.186 116.376,164.991 116.751 C 164.795 117.126,164.634 117.624,164.633 117.858 C 164.633 118.092,164.532 118.346,164.409 118.421 C 164.287 118.497,164.047 119.298,163.877 120.201 C 163.706 121.105,163.476 121.900,163.366 121.968 C 163.256 122.036,163.089 122.544,162.996 123.096 C 162.902 123.649,162.734 124.157,162.621 124.227 C 162.509 124.297,162.277 124.948,162.107 125.676 C 161.936 126.403,161.712 127.111,161.607 127.250 C 161.503 127.388,161.337 127.877,161.239 128.337 C 161.141 128.796,160.902 129.476,160.708 129.847 C 160.514 130.218,160.284 131.060,160.196 131.718 C 160.108 132.376,159.950 132.914,159.845 132.914 C 159.739 132.914,159.574 133.339,159.477 133.858 C 159.380 134.377,159.210 134.915,159.099 135.053 C 158.989 135.192,158.754 135.957,158.578 136.753 C 158.402 137.549,158.176 138.200,158.075 138.200 C 157.974 138.200,157.812 138.625,157.715 139.144 C 157.618 139.663,157.448 140.201,157.337 140.340 C 157.227 140.478,156.992 141.243,156.816 142.039 C 156.640 142.835,156.416 143.486,156.317 143.486 C 156.219 143.486,156.063 144.053,155.971 144.745 C 155.879 145.437,155.713 146.004,155.601 146.004 C 155.489 146.004,155.254 146.655,155.078 147.451 C 154.902 148.247,154.668 149.012,154.557 149.150 C 154.446 149.289,154.277 149.827,154.180 150.346 C 154.083 150.865,153.920 151.290,153.819 151.290 C 153.718 151.290,153.492 151.941,153.316 152.738 C 153.140 153.534,152.906 154.298,152.795 154.437 C 152.684 154.575,152.512 155.142,152.413 155.695 C 152.313 156.249,152.145 156.816,152.041 156.954 C 151.936 157.093,151.706 157.857,151.530 158.653 C 151.354 159.449,151.127 160.101,151.026 160.101 C 150.925 160.101,150.763 160.525,150.666 161.045 C 150.569 161.564,150.402 162.102,150.294 162.240 C 150.186 162.379,149.953 163.115,149.776 163.877 C 149.599 164.638,149.359 165.324,149.242 165.401 C 149.124 165.477,148.956 166.072,148.866 166.722 L 148.704 167.904 159.437 167.904 C 168.810 167.904,170.170 167.856,170.170 167.527 C 170.170 167.319,170.260 167.149,170.370 167.149 C 170.480 167.149,170.721 166.467,170.906 165.633 C 171.091 164.800,171.331 164.063,171.439 163.996 C 171.548 163.929,171.713 163.421,171.806 162.868 C 171.900 162.315,172.062 161.863,172.166 161.863 C 172.270 161.863,172.499 161.211,172.675 160.415 C 172.851 159.619,173.083 158.855,173.190 158.716 C 173.297 158.578,173.467 158.068,173.568 157.583 C 173.669 157.099,173.836 156.589,173.937 156.451 C 174.039 156.312,174.268 155.491,174.446 154.626 C 174.624 153.760,174.855 153.052,174.959 153.052 C 175.063 153.052,175.228 152.627,175.325 152.108 C 175.422 151.589,175.592 151.051,175.702 150.913 C 175.813 150.774,176.048 150.009,176.223 149.213 C 176.399 148.417,176.626 147.766,176.727 147.766 C 176.828 147.766,176.990 147.341,177.087 146.822 C 177.184 146.303,177.348 145.765,177.451 145.626 C 177.554 145.488,177.783 144.695,177.960 143.864 C 178.137 143.033,178.372 142.240,178.483 142.102 C 178.593 141.963,178.763 141.425,178.860 140.906 C 178.957 140.387,179.118 139.962,179.218 139.962 C 179.318 139.962,179.534 139.424,179.699 138.767 C 179.864 138.109,180.028 137.458,180.063 137.319 C 180.099 137.181,180.199 136.953,180.286 136.814 C 180.374 136.674,180.525 136.136,180.622 135.618 C 180.719 135.100,180.887 134.676,180.995 134.676 C 181.104 134.676,181.314 133.984,181.463 133.138 C 181.612 132.292,181.838 131.470,181.965 131.313 C 182.091 131.155,182.278 130.629,182.379 130.145 C 182.480 129.660,182.648 129.150,182.753 129.012 C 182.857 128.874,183.082 128.165,183.252 127.438 C 183.423 126.711,183.654 126.059,183.767 125.989 C 183.879 125.920,184.048 125.411,184.141 124.858 C 184.234 124.306,184.401 123.798,184.511 123.730 C 184.622 123.662,184.852 122.867,185.022 121.963 C 185.192 121.060,185.432 120.259,185.555 120.183 C 185.677 120.108,185.778 119.854,185.779 119.620 C 185.780 119.386,185.940 118.888,186.136 118.513 C 186.332 118.138,186.633 117.198,186.806 116.425 C 186.979 115.651,187.215 114.960,187.330 114.889 C 187.445 114.818,187.540 114.568,187.541 114.334 C 187.542 114.100,187.702 113.601,187.898 113.226 C 188.094 112.852,188.395 111.889,188.567 111.087 C 188.740 110.285,188.963 109.515,189.062 109.377 C 189.162 109.239,189.326 108.729,189.427 108.244 C 189.529 107.760,189.703 107.248,189.815 107.108 C 189.928 106.968,190.157 106.288,190.326 105.598 C 190.495 104.907,190.717 104.229,190.819 104.091 C 190.922 103.952,191.088 103.442,191.189 102.958 C 191.291 102.473,191.454 101.963,191.552 101.825 C 191.819 101.449,192.322 99.578,192.322 98.964 C 192.322 98.668,192.423 98.427,192.546 98.427 C 192.669 98.427,192.849 98.002,192.946 97.483 C 193.043 96.963,193.211 96.425,193.319 96.287 C 193.427 96.149,193.658 95.424,193.833 94.677 C 194.009 93.930,194.306 93.024,194.494 92.663 C 194.682 92.303,194.837 91.816,194.838 91.582 C 194.839 91.348,194.937 91.096,195.055 91.023 C 195.174 90.950,195.416 90.207,195.593 89.372 C 195.770 88.537,195.998 87.854,196.100 87.854 C 196.202 87.854,196.360 87.288,196.452 86.595 C 196.544 85.903,196.728 85.337,196.862 85.337 C 196.996 85.337,197.105 85.110,197.105 84.833 C 197.105 84.325,175.873 83.997,175.372 84.498 M291.728 86.034 C 291.366 86.551,290.918 87.398,290.733 87.917 C 290.548 88.436,290.319 88.861,290.224 88.861 C 290.130 88.861,289.980 89.059,289.891 89.301 C 289.802 89.544,289.229 90.648,288.618 91.756 C 288.007 92.863,287.190 94.393,286.803 95.154 C 286.416 95.916,286.032 96.595,285.951 96.665 C 285.870 96.734,285.726 96.960,285.632 97.168 C 285.538 97.376,284.954 98.452,284.336 99.559 C 283.717 100.667,282.852 102.310,282.414 103.210 C 281.975 104.110,281.371 105.186,281.070 105.601 C 280.769 106.016,280.366 106.753,280.175 107.237 C 279.984 107.722,279.762 108.175,279.682 108.244 C 279.602 108.313,279.395 108.653,279.221 108.999 C 279.048 109.346,278.474 110.422,277.946 111.391 C 277.418 112.360,276.656 113.776,276.253 114.537 C 275.849 115.299,275.460 115.979,275.388 116.048 C 275.316 116.117,275.114 116.457,274.939 116.803 C 274.763 117.149,274.123 118.339,273.515 119.446 C 272.908 120.554,272.103 122.083,271.727 122.845 C 271.351 123.606,270.798 124.569,270.497 124.984 C 270.196 125.400,269.794 126.136,269.602 126.621 C 269.411 127.105,269.189 127.558,269.109 127.627 C 269.029 127.697,268.823 128.037,268.650 128.383 C 268.477 128.729,267.833 129.918,267.219 131.026 C 266.605 132.133,265.843 133.549,265.525 134.172 C 265.207 134.795,264.884 135.362,264.807 135.431 C 264.729 135.500,264.510 135.953,264.318 136.438 C 264.127 136.923,263.724 137.659,263.424 138.074 C 263.123 138.490,262.569 139.452,262.194 140.214 C 261.818 140.975,261.013 142.505,260.405 143.612 C 259.798 144.720,259.157 145.909,258.982 146.256 C 258.807 146.602,258.604 146.941,258.532 147.011 C 258.460 147.080,258.141 147.646,257.823 148.269 C 257.505 148.892,256.743 150.308,256.129 151.416 C 255.515 152.524,254.871 153.713,254.698 154.059 C 254.525 154.405,254.319 154.745,254.239 154.814 C 254.159 154.884,253.937 155.337,253.746 155.821 C 253.554 156.306,253.136 157.052,252.817 157.480 C 252.498 157.908,252.104 158.644,251.942 159.116 C 251.780 159.588,251.582 160.031,251.501 160.101 C 251.266 160.301,250.802 161.104,249.827 162.996 C 249.327 163.965,248.595 165.324,248.199 166.016 C 247.804 166.709,247.474 167.417,247.466 167.590 C 247.454 167.836,249.575 167.904,257.269 167.904 C 265.214 167.904,267.086 167.841,267.086 167.573 C 267.086 167.391,268.049 165.328,269.226 162.988 C 270.403 160.648,271.366 158.629,271.366 158.501 C 271.366 158.159,272.466 155.961,272.687 155.863 C 272.791 155.817,272.876 155.668,272.876 155.533 C 272.876 155.250,274.179 152.487,274.401 152.297 C 274.483 152.228,274.622 151.973,274.712 151.731 C 274.863 151.319,275.686 151.290,287.091 151.290 L 299.308 151.290 299.308 159.597 L 299.308 167.904 309.660 167.904 L 320.012 167.904 319.828 159.912 C 319.727 155.516,319.558 151.806,319.453 151.668 C 319.348 151.529,319.119 146.205,318.944 139.836 C 318.769 133.468,318.541 128.143,318.436 128.005 C 318.331 127.867,318.164 124.298,318.064 120.076 C 317.965 115.853,317.797 112.284,317.692 112.146 C 317.587 112.008,317.353 106.593,317.172 100.114 C 316.990 93.634,316.748 88.275,316.633 88.205 C 316.519 88.134,316.425 87.403,316.425 86.580 L 316.425 85.085 304.405 85.090 L 292.385 85.096 291.728 86.034 M296.240 110.761 C 296.335 110.761,296.375 111.616,296.330 112.662 C 296.284 113.707,296.357 114.699,296.492 114.865 C 296.627 115.031,296.819 116.979,296.919 119.194 C 297.019 121.410,297.186 123.335,297.291 123.474 C 297.396 123.612,297.628 126.477,297.806 129.840 C 297.984 133.203,298.225 136.013,298.341 136.085 C 298.457 136.157,298.553 136.493,298.553 136.830 L 298.553 137.445 289.703 137.445 C 281.300 137.445,280.872 137.423,281.227 137.004 C 281.432 136.762,282.311 135.148,283.180 133.417 C 286.267 127.273,287.960 124.039,288.304 123.633 C 288.495 123.407,288.806 122.826,288.994 122.341 C 289.182 121.857,289.400 121.403,289.479 121.334 C 289.711 121.131,291.001 118.370,291.001 118.078 C 291.001 117.930,291.087 117.810,291.193 117.810 C 291.298 117.810,291.497 117.590,291.633 117.321 C 291.770 117.053,292.654 115.297,293.597 113.420 C 294.540 111.542,295.418 110.006,295.548 110.006 C 295.677 110.006,295.802 109.808,295.824 109.566 C 295.846 109.323,295.910 109.493,295.966 109.943 C 296.021 110.393,296.145 110.761,296.240 110.761 " stroke="none" fill="#1c1c73" fill-rule="evenodd"></path><path id="path2" d="M16.730 179.043 C 16.664 179.216,16.640 192.668,16.675 208.936 L 16.740 238.515 200.063 238.578 L 383.386 238.641 383.386 208.685 L 383.386 178.729 200.118 178.729 C 53.735 178.729,16.826 178.792,16.730 179.043 M383.008 208.811 L 383.008 238.011 200.189 238.074 L 17.369 238.138 17.369 208.811 L 17.369 179.484 200.189 179.547 L 383.008 179.610 383.008 208.811 " stroke="none" fill="#df9c14" fill-rule="evenodd"></path><path id="path3" d="M4.783 126.117 L 4.783 247.451 200.000 247.451 L 395.217 247.451 395.217 126.117 L 395.217 4.783 200.000 4.783 L 4.783 4.783 4.783 126.117 M383.576 42.983 L 383.640 73.002 200.001 73.002 L 16.362 73.002 16.362 43.088 C 16.362 26.635,16.438 13.098,16.530 13.006 C 16.623 12.914,99.231 12.866,200.105 12.901 L 383.512 12.964 383.576 42.983 M242.918 82.544 C 242.988 82.648,243.896 82.855,244.934 83.006 C 247.235 83.339,249.820 83.973,250.888 84.467 C 251.324 84.668,251.862 84.833,252.083 84.833 C 252.305 84.833,252.486 84.947,252.486 85.085 C 252.486 85.223,252.571 85.319,252.675 85.297 C 253.058 85.216,255.356 86.243,255.866 86.724 C 256.014 86.864,256.419 87.125,256.765 87.303 C 258.341 88.114,258.779 88.401,258.779 88.623 C 258.779 88.754,258.930 88.861,259.115 88.861 C 259.300 88.861,260.213 89.650,261.144 90.614 L 262.836 92.367 262.004 93.520 C 261.545 94.154,260.632 95.336,259.975 96.146 C 259.317 96.956,258.779 97.707,258.779 97.813 C 258.779 97.920,258.609 98.186,258.401 98.406 C 257.589 99.262,255.758 101.677,255.758 101.892 C 255.758 102.489,254.172 103.535,253.706 103.246 C 253.450 103.087,252.986 102.816,252.675 102.643 C 252.363 102.470,252.052 102.257,251.982 102.169 C 251.850 102.001,249.535 100.663,248.458 100.132 C 248.112 99.961,247.772 99.751,247.703 99.664 C 247.634 99.577,247.141 99.364,246.609 99.191 C 246.076 99.017,245.340 98.718,244.973 98.527 C 244.605 98.335,244.106 98.177,243.864 98.177 C 243.622 98.176,243.424 98.070,243.424 97.941 C 243.424 97.812,242.772 97.574,241.976 97.410 C 241.180 97.247,240.375 96.989,240.188 96.837 C 239.685 96.428,233.554 96.443,233.417 96.853 C 233.360 97.026,233.125 97.168,232.896 97.168 C 232.355 97.168,229.830 98.446,229.830 98.720 C 229.830 98.835,229.681 98.930,229.500 98.930 C 229.107 98.930,227.816 100.223,227.816 100.616 C 227.816 100.767,227.675 100.947,227.502 101.016 C 227.329 101.085,226.904 101.691,226.558 102.364 C 226.211 103.037,225.843 103.625,225.739 103.671 C 225.450 103.800,225.511 107.741,225.802 107.741 C 225.941 107.741,226.054 107.918,226.054 108.134 C 226.054 108.701,227.306 111.265,227.583 111.265 C 227.711 111.265,227.816 111.416,227.816 111.600 C 227.816 111.784,228.694 112.758,229.767 113.765 C 232.321 116.160,232.483 116.300,232.700 116.300 C 232.801 116.300,233.256 116.583,233.710 116.929 C 234.163 117.275,234.666 117.558,234.826 117.558 C 234.986 117.558,235.116 117.671,235.116 117.810 C 235.116 117.948,235.237 118.062,235.385 118.062 C 235.533 118.062,236.025 118.345,236.479 118.691 C 236.932 119.037,237.395 119.320,237.506 119.320 C 237.617 119.320,238.192 119.717,238.783 120.201 C 239.374 120.686,239.926 121.082,240.008 121.082 C 240.210 121.082,244.650 125.632,245.437 126.646 C 246.108 127.510,246.740 128.577,247.249 129.704 C 247.421 130.085,247.641 130.396,247.738 130.396 C 247.835 130.396,247.991 130.744,248.084 131.169 C 248.178 131.593,248.406 132.234,248.592 132.592 C 248.778 132.951,249.007 133.963,249.101 134.841 C 249.195 135.719,249.372 136.438,249.494 136.438 C 249.617 136.438,249.717 137.967,249.717 139.836 C 249.717 141.705,249.618 143.235,249.498 143.235 C 249.377 143.235,249.200 144.028,249.105 144.997 C 249.009 145.966,248.835 146.759,248.718 146.759 C 248.601 146.759,248.565 146.986,248.637 147.264 C 248.710 147.541,248.653 147.910,248.510 148.082 C 248.368 148.254,248.172 148.820,248.075 149.339 C 247.978 149.858,247.803 150.283,247.686 150.283 C 247.570 150.283,247.400 150.680,247.309 151.164 C 247.218 151.649,247.052 152.045,246.940 152.045 C 246.828 152.045,246.663 152.379,246.573 152.786 C 246.484 153.193,246.078 153.986,245.671 154.548 C 245.264 155.110,245.016 155.571,245.121 155.573 C 245.226 155.576,245.198 155.660,245.060 155.762 C 244.765 155.979,243.675 157.501,243.675 157.697 C 243.675 157.876,239.161 162.366,238.981 162.366 C 238.903 162.366,238.483 162.651,238.048 162.999 C 236.863 163.947,236.859 163.950,235.365 164.695 C 234.601 165.076,233.836 165.387,233.665 165.387 C 233.494 165.387,233.354 165.495,233.354 165.627 C 233.354 165.760,232.958 165.942,232.473 166.033 C 231.989 166.124,231.592 166.291,231.592 166.404 C 231.592 166.517,230.941 166.750,230.145 166.921 C 229.349 167.092,228.584 167.314,228.446 167.414 C 228.307 167.514,227.684 167.678,227.061 167.778 C 226.438 167.879,225.815 168.049,225.677 168.156 C 224.434 169.119,204.462 169.119,203.272 168.157 C 203.134 168.045,202.369 167.872,201.573 167.774 C 200.777 167.675,200.126 167.512,200.126 167.412 C 200.126 167.311,199.480 167.085,198.691 166.908 C 197.902 166.732,197.081 166.504,196.866 166.402 C 195.315 165.665,194.625 165.384,194.021 165.243 C 193.641 165.154,193.329 164.980,193.329 164.856 C 193.329 164.733,193.244 164.647,193.140 164.665 C 192.816 164.721,191.315 164.028,191.315 163.821 C 191.315 163.713,191.184 163.625,191.024 163.625 C 190.864 163.625,190.362 163.342,189.908 162.996 C 189.455 162.649,188.972 162.366,188.836 162.366 C 188.700 162.366,188.550 162.281,188.504 162.177 C 188.377 161.891,186.841 160.856,186.543 160.856 C 186.399 160.856,186.281 160.516,186.281 160.101 C 186.281 159.685,186.385 159.346,186.512 159.346 C 186.640 159.346,186.820 158.998,186.914 158.573 C 187.007 158.149,187.236 157.743,187.422 157.671 C 187.608 157.600,187.833 157.211,187.922 156.807 C 188.010 156.403,188.169 156.073,188.274 156.073 C 188.380 156.073,188.615 155.620,188.798 155.066 C 188.981 154.512,189.211 154.059,189.309 154.059 C 189.407 154.059,190.040 152.972,190.716 151.644 C 192.727 147.691,192.800 147.560,193.094 147.378 C 193.250 147.282,193.701 147.443,194.098 147.736 C 194.495 148.029,194.937 148.269,195.081 148.269 C 195.225 148.269,195.343 148.364,195.343 148.481 C 195.343 148.597,195.796 148.842,196.350 149.025 C 196.904 149.207,197.357 149.443,197.357 149.548 C 197.357 149.654,197.697 149.814,198.112 149.906 C 198.527 149.997,198.867 150.158,198.867 150.263 C 198.867 150.368,199.490 150.604,200.252 150.787 C 201.013 150.969,201.636 151.201,201.636 151.302 C 201.636 151.403,202.061 151.565,202.580 151.662 C 203.099 151.759,203.640 151.934,203.781 152.050 C 203.921 152.167,205.054 152.402,206.298 152.573 C 207.541 152.744,208.634 152.998,208.726 153.137 C 208.954 153.481,218.215 153.507,218.452 153.164 C 218.549 153.023,219.410 152.777,220.365 152.618 C 221.321 152.459,222.171 152.226,222.253 152.100 C 222.336 151.974,222.708 151.797,223.080 151.706 C 224.998 151.237,227.169 148.829,227.578 146.716 C 227.844 145.345,227.484 142.228,227.060 142.228 C 226.952 142.228,226.792 141.942,226.704 141.592 C 226.617 141.242,226.378 140.761,226.173 140.522 C 225.969 140.283,225.392 139.607,224.892 139.018 C 224.391 138.430,223.869 137.948,223.732 137.948 C 223.594 137.948,223.239 137.726,222.943 137.453 C 221.665 136.280,219.873 134.928,219.595 134.928 C 219.429 134.928,219.071 134.644,218.799 134.298 C 218.527 133.952,218.196 133.669,218.064 133.669 C 217.933 133.669,217.620 133.442,217.369 133.166 C 217.119 132.889,216.758 132.662,216.567 132.662 C 216.377 132.662,216.156 132.492,216.076 132.284 C 215.996 132.077,215.818 131.907,215.680 131.907 C 215.439 131.907,214.286 131.062,213.446 130.269 C 213.227 130.062,212.944 129.893,212.817 129.893 C 212.550 129.894,211.984 129.368,208.585 125.967 C 205.470 122.850,205.205 122.559,204.798 121.814 C 204.616 121.481,204.129 120.585,203.714 119.824 C 203.299 119.062,202.876 118.043,202.773 117.558 C 202.669 117.074,202.457 116.518,202.299 116.323 C 201.911 115.841,201.905 106.950,202.292 106.458 C 202.446 106.263,202.709 105.381,202.878 104.497 C 203.047 103.612,203.282 102.706,203.401 102.483 C 203.519 102.259,204.161 100.956,204.829 99.586 C 206.425 96.309,206.654 95.909,206.936 95.909 C 207.067 95.909,207.174 95.788,207.174 95.641 C 207.174 95.006,210.436 91.523,212.580 89.868 C 213.207 89.383,213.882 88.845,214.080 88.672 C 214.277 88.499,214.563 88.357,214.716 88.357 C 214.869 88.357,215.056 88.194,215.133 87.995 C 215.209 87.796,215.610 87.559,216.023 87.468 C 216.436 87.377,216.833 87.151,216.904 86.965 C 216.975 86.778,217.364 86.554,217.768 86.465 C 218.172 86.376,218.502 86.199,218.502 86.072 C 218.502 85.944,218.702 85.840,218.946 85.840 C 219.191 85.840,219.798 85.622,220.297 85.355 C 220.795 85.087,221.615 84.792,222.118 84.697 C 222.622 84.603,223.033 84.435,223.033 84.324 C 223.033 84.213,223.486 84.046,224.039 83.952 C 224.592 83.859,225.109 83.679,225.187 83.552 C 225.266 83.425,225.606 83.390,225.944 83.475 C 226.290 83.562,226.558 83.519,226.558 83.376 C 226.558 83.236,227.379 83.041,228.383 82.943 C 229.386 82.844,230.326 82.668,230.471 82.552 C 231.039 82.094,242.606 82.087,242.918 82.544 M106.440 84.357 C 106.486 84.481,109.063 84.581,112.167 84.581 L 117.810 84.581 117.810 100.776 C 117.810 109.683,117.879 117.040,117.963 117.124 C 118.048 117.208,118.110 121.843,118.103 127.424 C 118.094 133.774,118.175 137.359,118.319 137.004 C 118.446 136.693,118.657 136.438,118.789 136.438 C 118.921 136.438,119.103 136.098,119.194 135.683 C 119.286 135.267,119.463 134.928,119.589 134.928 C 119.714 134.928,119.986 134.559,120.193 134.110 C 120.617 133.186,121.126 132.347,121.377 132.156 C 121.470 132.085,121.624 131.716,121.720 131.335 C 121.816 130.954,122.025 130.558,122.186 130.456 C 122.346 130.354,122.619 129.987,122.792 129.641 C 122.965 129.295,123.382 128.559,123.719 128.005 C 124.055 127.451,124.413 126.828,124.513 126.621 C 124.614 126.413,124.763 126.186,124.845 126.117 C 124.927 126.048,125.136 125.708,125.309 125.362 C 125.482 125.016,125.899 124.279,126.235 123.726 C 126.571 123.172,126.968 122.450,127.116 122.123 C 127.264 121.795,127.620 121.228,127.907 120.864 C 128.194 120.500,128.592 119.862,128.792 119.446 C 128.992 119.031,129.433 118.238,129.771 117.684 C 130.110 117.130,130.528 116.394,130.701 116.048 C 130.874 115.702,131.090 115.362,131.181 115.293 C 131.349 115.164,132.657 112.910,133.226 111.768 C 133.398 111.422,133.627 111.026,133.734 110.887 C 134.280 110.179,135.139 108.743,135.654 107.678 C 135.971 107.020,136.325 106.482,136.440 106.482 C 136.556 106.482,136.724 106.142,136.816 105.727 C 136.907 105.312,137.084 104.972,137.210 104.972 C 137.335 104.972,137.607 104.604,137.814 104.154 C 138.238 103.230,138.747 102.391,138.998 102.200 C 139.091 102.130,139.245 101.761,139.340 101.382 C 139.435 101.003,139.613 100.692,139.734 100.692 C 139.856 100.692,140.128 100.324,140.338 99.874 C 140.549 99.424,140.998 98.603,141.337 98.049 C 141.675 97.495,142.034 96.872,142.135 96.665 C 142.235 96.457,142.384 96.230,142.466 96.161 C 142.548 96.092,142.757 95.752,142.930 95.406 C 143.103 95.060,143.518 94.323,143.852 93.770 C 144.186 93.216,144.634 92.423,144.849 92.008 C 145.399 90.941,145.837 90.275,146.130 90.060 C 146.268 89.959,146.283 89.874,146.163 89.872 C 146.042 89.870,146.216 89.500,146.549 89.050 C 146.881 88.600,147.297 87.948,147.472 87.602 C 147.647 87.256,148.047 86.520,148.361 85.966 L 148.932 84.959 158.544 84.893 C 169.165 84.820,168.917 84.780,167.695 86.373 C 167.442 86.703,167.162 87.171,167.074 87.413 C 166.986 87.656,166.805 87.854,166.674 87.854 C 166.542 87.854,166.359 88.194,166.268 88.609 C 166.177 89.025,165.999 89.364,165.874 89.364 C 165.748 89.364,165.476 89.733,165.270 90.183 C 164.852 91.090,164.598 91.520,163.571 93.056 C 163.185 93.632,162.870 94.221,162.870 94.365 C 162.870 94.508,162.728 94.716,162.555 94.827 C 162.381 94.938,162.070 95.368,161.863 95.784 C 161.656 96.199,161.429 96.595,161.360 96.665 C 161.204 96.820,160.629 97.817,160.162 98.741 C 159.969 99.122,159.716 99.434,159.599 99.434 C 159.481 99.434,159.311 99.773,159.220 100.189 C 159.128 100.604,158.951 100.944,158.825 100.944 C 158.700 100.944,158.425 101.312,158.214 101.762 C 158.004 102.212,157.555 103.033,157.216 103.587 C 156.877 104.141,156.518 104.764,156.418 104.972 C 156.318 105.179,156.167 105.406,156.083 105.475 C 155.999 105.544,155.425 106.432,154.806 107.448 C 154.188 108.463,153.429 109.709,153.120 110.217 C 152.811 110.724,152.417 111.422,152.244 111.768 C 152.071 112.115,151.868 112.454,151.793 112.524 C 151.571 112.728,150.688 114.109,150.345 114.789 C 150.170 115.135,149.750 115.872,149.412 116.425 C 149.074 116.979,148.653 117.716,148.478 118.062 C 148.302 118.408,147.755 119.257,147.262 119.950 C 146.770 120.642,146.223 121.492,146.047 121.838 C 145.270 123.368,144.954 123.851,144.731 123.851 C 144.600 123.851,144.512 123.936,144.534 124.040 C 144.602 124.357,144.016 125.614,143.800 125.614 C 143.688 125.614,143.463 125.925,143.299 126.306 C 142.975 127.060,142.739 127.457,141.655 129.075 C 141.260 129.663,141.011 130.145,141.101 130.145 C 141.190 130.145,140.914 130.586,140.487 131.125 C 140.060 131.664,139.711 132.230,139.711 132.384 C 139.711 132.537,139.591 132.662,139.444 132.662 C 139.297 132.662,139.239 132.762,139.315 132.885 C 139.391 133.008,139.285 133.248,139.078 133.420 C 138.872 133.591,138.704 133.887,138.704 134.077 C 138.704 134.268,138.619 134.425,138.515 134.426 C 138.411 134.427,138.199 134.682,138.044 134.993 C 137.213 136.657,136.884 137.193,136.691 137.193 C 136.574 137.193,136.403 137.533,136.312 137.948 C 136.221 138.364,136.044 138.704,135.918 138.704 C 135.792 138.704,135.520 139.072,135.314 139.522 C 134.812 140.613,134.362 141.306,134.003 141.537 C 133.841 141.642,133.634 142.067,133.543 142.481 C 133.452 142.896,133.281 143.235,133.164 143.235 C 133.047 143.235,132.793 143.546,132.601 143.927 C 132.135 144.849,131.559 145.848,131.403 146.004 C 131.278 146.129,130.803 146.933,130.289 147.892 C 130.140 148.169,129.669 148.905,129.243 149.528 C 128.816 150.151,128.386 150.831,128.287 151.038 C 128.188 151.246,127.831 151.869,127.495 152.423 C 127.158 152.977,126.741 153.713,126.568 154.059 C 126.395 154.405,126.190 154.745,126.114 154.814 C 125.987 154.929,125.375 155.918,122.866 160.065 C 122.393 160.846,121.883 161.568,121.733 161.670 C 121.583 161.772,121.553 161.857,121.666 161.859 C 121.779 161.861,121.610 162.231,121.289 162.681 C 120.697 163.512,120.175 164.404,119.484 165.765 C 119.273 166.180,118.874 166.803,118.596 167.149 L 118.091 167.778 107.503 167.865 L 96.916 167.951 96.916 162.530 C 96.916 159.549,96.817 157.048,96.695 156.973 C 96.574 156.898,96.397 151.029,96.304 143.931 C 96.210 136.833,96.037 130.799,95.920 130.522 C 95.802 130.245,95.589 123.120,95.447 114.688 C 95.294 105.635,95.090 99.296,94.949 99.207 C 94.818 99.124,94.630 98.348,94.530 97.483 C 94.431 96.617,94.261 95.909,94.152 95.909 C 94.044 95.909,93.831 95.415,93.679 94.812 C 93.527 94.208,93.230 93.571,93.020 93.396 C 92.809 93.222,92.637 92.988,92.637 92.878 C 92.637 92.381,89.193 89.364,88.626 89.364 C 88.478 89.364,88.357 89.269,88.357 89.153 C 88.357 89.037,87.876 88.790,87.288 88.604 C 86.699 88.419,86.104 88.184,85.966 88.083 C 85.828 87.982,85.261 87.818,84.707 87.718 C 84.154 87.618,83.587 87.448,83.449 87.339 C 83.310 87.231,82.376 87.061,81.372 86.962 L 79.547 86.782 79.547 85.272 L 79.547 83.763 92.952 83.948 C 100.369 84.050,106.394 84.233,106.440 84.357 M197.000 85.135 C 196.907 85.717,196.740 86.312,196.628 86.457 C 196.517 86.602,196.279 87.433,196.100 88.302 C 195.921 89.171,195.677 89.943,195.559 90.016 C 195.440 90.089,195.342 90.341,195.341 90.575 C 195.341 90.809,195.180 91.307,194.984 91.682 C 194.789 92.057,194.487 92.997,194.314 93.771 C 194.141 94.544,193.905 95.235,193.790 95.306 C 193.675 95.377,193.580 95.627,193.579 95.861 C 193.578 96.095,193.414 96.601,193.213 96.986 C 193.013 97.370,192.731 98.320,192.588 99.097 C 192.444 99.874,192.222 100.636,192.095 100.790 C 191.968 100.944,191.784 101.495,191.687 102.014 C 191.590 102.533,191.423 102.958,191.316 102.958 C 191.209 102.958,191.044 103.468,190.951 104.091 C 190.857 104.714,190.668 105.223,190.530 105.223 C 190.392 105.223,190.352 105.342,190.441 105.486 C 190.530 105.631,190.491 105.886,190.353 106.053 C 190.215 106.220,190.022 106.781,189.925 107.300 C 189.828 107.819,189.659 108.244,189.549 108.244 C 189.439 108.244,189.271 108.811,189.176 109.503 C 189.080 110.195,188.903 110.761,188.782 110.761 C 188.661 110.761,188.623 110.920,188.697 111.114 C 188.772 111.307,188.711 111.541,188.563 111.632 C 188.416 111.723,188.294 112.046,188.293 112.350 C 188.292 112.653,188.126 113.217,187.925 113.604 C 187.723 113.991,187.485 114.699,187.395 115.177 C 187.305 115.656,187.134 116.048,187.016 116.048 C 186.897 116.048,186.861 116.206,186.935 116.400 C 187.009 116.594,186.949 116.827,186.801 116.918 C 186.653 117.010,186.532 117.333,186.531 117.636 C 186.530 117.939,186.369 118.494,186.174 118.869 C 185.978 119.244,185.677 120.207,185.504 121.009 C 185.332 121.811,185.106 122.580,185.003 122.719 C 184.900 122.857,184.736 123.395,184.639 123.914 C 184.542 124.434,184.372 124.858,184.261 124.858 C 184.150 124.858,183.983 125.311,183.889 125.864 C 183.796 126.417,183.614 126.935,183.486 127.014 C 183.357 127.094,183.320 127.269,183.403 127.404 C 183.487 127.539,183.442 127.786,183.304 127.953 C 183.166 128.120,182.974 128.682,182.877 129.201 C 182.780 129.720,182.610 130.145,182.499 130.145 C 182.388 130.145,182.221 130.597,182.127 131.150 C 182.034 131.703,181.849 132.223,181.717 132.304 C 181.585 132.386,181.543 132.660,181.624 132.914 C 181.704 133.167,181.662 133.442,181.530 133.523 C 181.398 133.605,181.214 134.124,181.120 134.676 C 181.027 135.228,180.857 135.738,180.743 135.809 C 180.628 135.879,180.458 136.390,180.365 136.943 C 180.271 137.496,180.085 137.948,179.950 137.948 C 179.816 137.948,179.779 138.067,179.868 138.211 C 179.958 138.356,179.921 138.611,179.786 138.778 C 179.652 138.945,179.459 139.478,179.358 139.962 C 179.257 140.447,179.087 140.957,178.980 141.095 C 178.874 141.233,178.704 141.743,178.603 142.228 C 178.502 142.712,178.315 143.238,178.189 143.396 C 178.062 143.553,177.836 144.375,177.687 145.221 C 177.538 146.067,177.328 146.759,177.219 146.759 C 177.111 146.759,176.943 147.184,176.846 147.703 C 176.749 148.222,176.579 148.760,176.469 148.899 C 176.358 149.037,176.124 149.802,175.948 150.598 C 175.772 151.394,175.543 152.045,175.438 152.045 C 175.334 152.045,175.172 152.498,175.079 153.051 C 174.985 153.604,174.804 154.122,174.675 154.201 C 174.546 154.281,174.509 154.456,174.593 154.591 C 174.676 154.726,174.634 154.973,174.499 155.140 C 174.365 155.307,174.175 155.925,174.078 156.512 C 173.981 157.100,173.809 157.639,173.694 157.709 C 173.580 157.780,173.410 158.290,173.316 158.843 C 173.223 159.396,173.031 159.849,172.890 159.849 C 172.749 159.849,172.697 160.015,172.775 160.218 C 172.853 160.422,172.821 160.647,172.705 160.719 C 172.588 160.791,172.413 161.276,172.316 161.797 C 172.218 162.318,172.052 162.857,171.946 162.996 C 171.840 163.134,171.615 163.812,171.446 164.503 C 171.278 165.193,171.048 165.873,170.936 166.013 C 170.823 166.153,170.653 166.637,170.556 167.089 L 170.380 167.910 159.514 167.844 L 148.647 167.778 148.567 167.086 C 148.523 166.705,148.596 166.394,148.728 166.394 C 148.860 166.394,149.048 165.969,149.145 165.450 C 149.242 164.931,149.412 164.393,149.523 164.254 C 149.633 164.116,149.868 163.351,150.044 162.555 C 150.219 161.759,150.446 161.108,150.547 161.108 C 150.648 161.108,150.810 160.683,150.907 160.164 C 151.004 159.644,151.174 159.106,151.285 158.968 C 151.395 158.829,151.630 158.037,151.807 157.206 C 151.984 156.375,152.213 155.582,152.316 155.444 C 152.419 155.305,152.583 154.767,152.680 154.248 C 152.777 153.729,152.939 153.304,153.040 153.304 C 153.141 153.304,153.368 152.653,153.544 151.857 C 153.720 151.060,153.954 150.296,154.065 150.157 C 154.175 150.019,154.345 149.481,154.442 148.962 C 154.539 148.442,154.701 148.018,154.802 148.018 C 154.903 148.018,155.130 147.366,155.306 146.570 C 155.482 145.774,155.711 145.009,155.816 144.871 C 155.921 144.733,156.089 144.166,156.189 143.612 C 156.288 143.059,156.460 142.492,156.571 142.354 C 156.682 142.215,156.916 141.451,157.092 140.654 C 157.268 139.858,157.494 139.207,157.595 139.207 C 157.696 139.207,157.858 138.782,157.955 138.263 C 158.053 137.744,158.220 137.206,158.328 137.067 C 158.436 136.929,158.664 136.221,158.834 135.493 C 159.005 134.766,159.243 134.110,159.363 134.035 C 159.484 133.961,159.657 133.338,159.748 132.652 C 159.839 131.965,159.994 131.403,160.093 131.403 C 160.192 131.403,160.416 130.752,160.592 129.956 C 160.768 129.160,161.002 128.395,161.113 128.257 C 161.224 128.118,161.394 127.580,161.491 127.061 C 161.588 126.542,161.750 126.117,161.851 126.117 C 161.952 126.117,162.178 125.466,162.354 124.670 C 162.530 123.874,162.765 123.109,162.875 122.970 C 162.986 122.832,163.156 122.294,163.253 121.775 C 163.350 121.256,163.515 120.831,163.621 120.831 C 163.726 120.831,163.884 120.293,163.972 119.635 C 164.060 118.977,164.290 118.135,164.484 117.764 C 164.678 117.393,164.917 116.713,165.015 116.254 C 165.113 115.794,165.279 115.305,165.383 115.167 C 165.487 115.028,165.712 114.320,165.883 113.593 C 166.053 112.865,166.285 112.213,166.397 112.144 C 166.510 112.074,166.678 111.566,166.772 111.013 C 166.865 110.461,167.032 109.953,167.142 109.885 C 167.252 109.817,167.482 109.023,167.652 108.121 C 167.822 107.220,168.049 106.482,168.157 106.482 C 168.264 106.482,168.431 106.057,168.528 105.538 C 168.625 105.019,168.795 104.481,168.906 104.342 C 169.016 104.204,169.251 103.439,169.427 102.643 C 169.603 101.847,169.829 101.196,169.930 101.196 C 170.030 101.196,170.189 100.686,170.283 100.063 C 170.376 99.440,170.543 98.930,170.654 98.930 C 170.765 98.930,171.002 98.222,171.180 97.357 C 171.358 96.492,171.590 95.670,171.695 95.532 C 171.801 95.393,171.966 94.855,172.063 94.336 C 172.160 93.817,172.326 93.392,172.431 93.392 C 172.536 93.392,172.755 92.716,172.917 91.890 C 173.080 91.063,173.308 90.328,173.425 90.256 C 173.542 90.184,173.717 89.699,173.815 89.179 C 173.912 88.659,174.085 88.175,174.198 88.105 C 174.311 88.035,174.554 87.242,174.737 86.343 C 175.233 83.901,174.214 84.098,186.376 84.088 L 197.169 84.078 197.000 85.135 M316.579 85.193 C 316.743 85.619,317.108 94.962,317.167 100.252 C 317.191 102.294,317.302 103.965,317.416 103.965 C 317.529 103.965,317.706 107.533,317.808 111.894 C 317.910 116.256,318.080 119.824,318.186 119.824 C 318.291 119.824,318.461 123.393,318.563 127.756 C 318.665 132.119,318.850 135.751,318.974 135.828 C 319.098 135.905,319.146 137.704,319.082 139.852 C 319.018 141.990,319.060 143.738,319.177 143.738 C 319.293 143.738,319.472 147.308,319.574 151.672 C 319.676 156.036,319.859 159.667,319.981 159.742 C 320.102 159.817,320.201 161.684,320.201 163.892 L 320.201 167.904 309.629 167.904 L 299.056 167.904 299.056 159.595 L 299.056 151.285 287.045 151.351 L 275.035 151.416 274.648 152.171 C 274.435 152.587,274.185 152.984,274.092 153.055 C 273.999 153.125,273.845 153.494,273.750 153.873 C 273.655 154.252,273.476 154.563,273.352 154.563 C 273.229 154.563,273.143 154.648,273.161 154.751 C 273.217 155.076,272.524 156.576,272.317 156.576 C 272.209 156.576,272.121 156.682,272.121 156.812 C 272.121 156.941,271.989 157.366,271.827 157.756 C 271.666 158.146,271.522 158.521,271.508 158.590 C 271.494 158.660,270.550 160.593,269.410 162.888 C 268.271 165.182,267.338 167.250,267.338 167.482 C 267.338 167.870,266.525 167.904,257.269 167.904 C 251.316 167.904,247.199 167.810,247.199 167.673 C 247.199 167.418,247.995 165.840,248.225 165.639 C 248.304 165.570,248.446 165.343,248.540 165.135 C 248.635 164.928,249.219 163.851,249.839 162.744 C 250.459 161.636,251.108 160.447,251.280 160.101 C 251.453 159.755,251.663 159.415,251.747 159.346 C 251.831 159.276,252.026 158.852,252.180 158.402 C 252.333 157.953,252.730 157.216,253.062 156.766 C 253.393 156.316,253.817 155.551,254.005 155.066 C 254.192 154.581,254.408 154.128,254.485 154.059 C 254.730 153.840,255.221 152.979,256.138 151.164 C 257.282 148.899,258.618 146.417,258.780 146.256 C 258.849 146.186,259.075 145.790,259.283 145.374 C 259.490 144.959,259.718 144.563,259.789 144.493 C 259.860 144.424,260.240 143.744,260.632 142.983 C 261.024 142.222,261.840 140.692,262.445 139.585 C 263.051 138.477,263.619 137.373,263.709 137.130 C 263.799 136.888,263.954 136.690,264.055 136.690 C 264.155 136.690,264.386 136.237,264.569 135.683 C 264.752 135.129,264.984 134.676,265.085 134.676 C 265.187 134.676,265.347 134.366,265.443 133.986 C 265.538 133.607,265.713 133.236,265.833 133.162 C 265.952 133.089,266.551 132.068,267.165 130.894 C 268.895 127.583,269.213 127.008,269.395 126.870 C 269.488 126.799,269.642 126.431,269.737 126.052 C 269.832 125.672,270.002 125.362,270.115 125.362 C 270.227 125.362,270.732 124.541,271.236 123.537 C 273.238 119.548,274.352 117.483,274.580 117.335 C 274.711 117.250,274.971 116.756,275.157 116.237 C 275.342 115.717,275.573 115.293,275.668 115.293 C 275.764 115.293,275.920 114.982,276.015 114.603 C 276.111 114.224,276.286 113.853,276.405 113.779 C 276.525 113.705,277.124 112.685,277.737 111.511 C 279.467 108.200,279.786 107.625,279.967 107.487 C 280.060 107.416,280.214 107.048,280.309 106.668 C 280.405 106.289,280.571 105.979,280.678 105.979 C 280.786 105.979,281.406 104.931,282.057 103.650 C 282.707 102.369,283.733 100.415,284.336 99.308 C 284.938 98.200,285.563 96.982,285.723 96.602 C 285.884 96.221,286.108 95.909,286.222 95.909 C 286.336 95.909,286.504 95.570,286.595 95.154 C 286.687 94.739,286.852 94.399,286.964 94.399 C 287.075 94.399,287.234 94.201,287.317 93.958 C 287.399 93.716,287.977 92.612,288.600 91.504 C 289.223 90.396,289.874 89.207,290.047 88.861 C 290.220 88.515,290.432 88.175,290.518 88.106 C 290.605 88.037,290.811 87.564,290.977 87.056 C 291.143 86.548,291.442 85.996,291.643 85.829 C 291.843 85.663,292.008 85.371,292.008 85.180 C 292.008 84.651,316.376 84.664,316.579 85.193 M295.522 110.095 C 295.309 110.392,294.423 112.052,293.553 113.782 C 291.643 117.582,291.185 118.413,290.938 118.523 C 290.834 118.569,290.749 118.738,290.749 118.897 C 290.749 119.266,289.440 121.912,289.157 122.118 C 289.040 122.202,288.940 122.372,288.935 122.495 C 288.919 122.904,288.519 123.797,288.311 123.888 C 288.056 123.999,286.721 126.648,286.721 127.044 C 286.721 127.203,286.636 127.372,286.532 127.418 C 286.322 127.511,285.557 128.933,283.072 133.844 C 282.148 135.671,281.259 137.220,281.098 137.285 C 280.937 137.351,284.755 137.414,289.582 137.425 L 298.358 137.445 298.214 136.375 C 298.135 135.787,297.995 133.663,297.903 131.655 C 297.812 129.648,297.649 127.892,297.542 127.753 C 297.435 127.615,297.265 125.689,297.166 123.474 C 297.066 121.259,296.896 119.333,296.788 119.194 C 296.680 119.056,296.510 117.162,296.409 114.986 C 296.178 109.980,296.062 109.340,295.522 110.095 M383.356 178.567 C 383.564 178.817,383.622 186.962,383.576 208.963 L 383.512 239.018 200.094 239.081 C 44.515 239.135,16.632 239.092,16.388 238.798 C 15.975 238.300,15.975 179.069,16.388 178.572 C 16.816 178.056,382.928 178.051,383.356 178.567 " stroke="none" fill="#fbfbfb" fill-rule="evenodd"></path><path id="path4" d="M4.594 126.054 L 4.656 247.577 4.720 126.180 L 4.783 4.783 200.000 4.783 L 395.217 4.783 395.280 126.054 L 395.344 247.325 395.343 125.991 L 395.343 4.657 199.937 4.594 L 4.531 4.531 4.594 126.054 M16.479 13.153 C 16.413 13.326,16.388 26.891,16.425 43.298 L 16.490 73.128 16.552 43.109 L 16.614 13.090 199.999 13.090 L 383.384 13.090 383.449 43.109 L 383.515 73.128 383.513 43.046 L 383.512 12.964 200.055 12.901 C 53.422 12.851,16.574 12.901,16.479 13.153 M232.599 82.252 C 231.561 82.301,230.632 82.420,230.534 82.517 C 230.436 82.614,231.229 82.657,232.296 82.612 C 233.363 82.567,234.343 82.425,234.475 82.297 C 234.606 82.169,234.663 82.087,234.600 82.114 C 234.538 82.142,233.638 82.204,232.599 82.252 M239.117 82.391 C 239.228 82.501,240.157 82.557,241.182 82.514 L 243.046 82.437 240.981 82.314 C 239.845 82.246,239.006 82.280,239.117 82.391 M227.001 83.249 C 227.314 83.309,227.767 83.307,228.008 83.244 C 228.249 83.181,227.992 83.132,227.439 83.135 C 226.885 83.137,226.688 83.189,227.001 83.249 M245.207 83.161 C 245.264 83.211,245.765 83.321,246.318 83.406 C 247.004 83.511,247.205 83.484,246.948 83.320 C 246.604 83.100,244.962 82.951,245.207 83.161 M93.107 84.145 C 93.213 84.251,96.294 84.308,99.954 84.271 L 106.608 84.203 99.761 84.078 C 95.994 84.009,93.000 84.039,93.107 84.145 M180.806 84.267 C 183.817 84.307,188.744 84.307,191.756 84.267 C 194.767 84.226,192.303 84.194,186.281 84.194 C 180.258 84.194,177.794 84.226,180.806 84.267 M175.011 85.337 C 175.011 85.821,175.063 86.020,175.126 85.777 C 175.190 85.535,175.190 85.138,175.126 84.896 C 175.063 84.654,175.011 84.852,175.011 85.337 M148.823 85.135 C 148.657 85.301,148.529 85.613,148.539 85.828 C 148.551 86.097,148.617 86.062,148.753 85.714 C 148.943 85.226,149.244 85.207,158.616 85.080 L 168.282 84.950 158.704 84.892 C 151.523 84.848,149.050 84.909,148.823 85.135 M291.921 85.271 C 291.840 85.515,291.584 85.997,291.350 86.344 C 291.059 86.777,291.131 86.738,291.584 86.218 C 291.945 85.802,292.245 85.378,292.250 85.274 C 292.255 85.170,297.697 85.085,304.342 85.085 L 316.425 85.085 316.425 86.580 C 316.425 87.403,316.510 88.129,316.614 88.193 C 316.718 88.258,316.746 87.556,316.677 86.635 L 316.551 84.959 304.309 84.894 C 292.816 84.832,292.059 84.856,291.921 85.271 M83.459 87.367 C 83.519 87.464,83.904 87.593,84.313 87.654 C 84.723 87.714,85.009 87.683,84.949 87.586 C 84.889 87.488,84.504 87.359,84.094 87.299 C 83.685 87.239,83.399 87.270,83.459 87.367 M195.667 89.007 C 195.522 89.641,195.494 90.066,195.605 89.951 C 195.830 89.719,196.219 87.854,196.043 87.854 C 195.981 87.854,195.813 88.373,195.667 89.007 M260.793 90.497 C 261.685 91.397,262.471 92.133,262.541 92.133 C 262.610 92.133,261.937 91.397,261.045 90.497 C 260.153 89.597,259.366 88.861,259.297 88.861 C 259.228 88.861,259.901 89.597,260.793 90.497 M88.609 89.298 C 88.817 89.377,89.383 89.722,89.868 90.064 L 90.749 90.685 89.868 89.906 C 89.383 89.477,88.817 89.132,88.609 89.139 C 88.274 89.151,88.274 89.169,88.609 89.298 M145.665 90.560 C 145.585 90.802,145.328 91.284,145.095 91.630 C 144.803 92.063,144.876 92.024,145.328 91.504 C 145.690 91.089,145.990 90.607,145.995 90.434 C 146.008 89.981,145.835 90.047,145.665 90.560 M164.715 90.817 C 164.431 91.200,164.122 91.756,164.028 92.053 C 163.934 92.349,163.692 92.729,163.489 92.897 C 163.287 93.065,163.121 93.317,163.121 93.457 C 163.121 93.797,164.052 92.601,164.373 91.848 C 164.512 91.521,164.812 90.997,165.038 90.686 C 165.264 90.374,165.399 90.120,165.339 90.120 C 165.279 90.120,164.998 90.433,164.715 90.817 M173.270 90.560 C 173.184 90.802,173.067 91.086,173.011 91.189 C 172.955 91.293,173.016 91.378,173.146 91.378 C 173.277 91.378,173.438 91.095,173.504 90.749 C 173.642 90.025,173.501 89.911,173.270 90.560 M194.216 93.203 C 193.870 94.247,193.630 95.454,193.807 95.259 C 194.041 95.000,194.593 92.889,194.427 92.889 C 194.368 92.889,194.273 93.030,194.216 93.203 M207.822 94.627 L 207.085 95.532 207.935 94.722 C 208.402 94.276,208.734 93.869,208.672 93.817 C 208.610 93.765,208.227 94.129,207.822 94.627 M261.045 94.338 C 261.045 94.489,260.737 94.989,260.361 95.450 C 259.799 96.138,259.781 96.198,260.259 95.786 C 260.937 95.202,261.400 94.419,261.191 94.210 C 261.110 94.129,261.045 94.187,261.045 94.338 M171.569 95.721 C 171.308 96.581,171.244 97.156,171.423 97.046 C 171.533 96.978,171.672 96.581,171.734 96.164 C 171.846 95.401,171.747 95.135,171.569 95.721 M142.141 96.602 C 142.060 96.844,141.804 97.325,141.571 97.671 C 141.279 98.105,141.351 98.066,141.804 97.546 C 142.166 97.130,142.466 96.649,142.470 96.476 C 142.484 96.023,142.311 96.089,142.141 96.602 M235.029 96.350 C 234.965 96.454,235.684 96.539,236.627 96.539 C 237.570 96.539,238.288 96.454,238.224 96.350 C 238.160 96.246,237.441 96.161,236.627 96.161 C 235.812 96.161,235.094 96.246,235.029 96.350 M240.281 96.923 C 240.344 97.025,240.677 97.162,241.021 97.227 C 241.365 97.293,241.595 97.264,241.532 97.162 C 241.469 97.060,241.136 96.923,240.792 96.857 C 240.448 96.791,240.218 96.821,240.281 96.923 M94.638 98.244 C 94.761 99.282,94.766 99.287,94.852 98.458 C 94.900 97.990,94.843 97.512,94.726 97.394 C 94.609 97.277,94.569 97.660,94.638 98.244 M192.342 98.977 C 192.331 99.348,192.209 99.950,192.071 100.313 C 191.917 100.719,191.913 100.915,192.061 100.824 C 192.362 100.638,192.671 99.071,192.493 98.629 C 192.421 98.448,192.353 98.605,192.342 98.977 M257.206 99.546 C 256.825 100.023,256.514 100.492,256.514 100.588 C 256.514 100.683,256.853 100.334,257.269 99.811 C 257.968 98.931,258.123 98.678,257.961 98.678 C 257.926 98.678,257.587 99.069,257.206 99.546 M227.955 99.923 C 227.712 100.191,227.572 100.560,227.645 100.741 C 227.746 100.994,227.781 100.988,227.796 100.712 C 227.807 100.515,228.004 100.147,228.233 99.894 C 228.462 99.641,228.593 99.434,228.524 99.434 C 228.454 99.434,228.199 99.654,227.955 99.923 M317.480 107.915 C 317.454 110.156,317.517 112.043,317.621 112.108 C 317.725 112.172,317.780 110.961,317.744 109.417 C 317.624 104.325,317.528 103.779,317.480 107.915 M202.275 106.545 C 202.079 107.158,201.992 108.744,202.165 108.559 C 202.261 108.455,202.383 107.889,202.435 107.300 C 202.530 106.237,202.468 105.943,202.275 106.545 M188.895 109.614 C 188.818 109.814,188.800 110.182,188.854 110.432 C 188.916 110.716,189.002 110.580,189.083 110.069 C 189.221 109.212,189.131 108.997,188.895 109.614 M167.015 110.132 C 166.951 110.340,166.842 110.686,166.774 110.900 C 166.707 111.115,166.750 111.230,166.870 111.156 C 166.991 111.082,167.143 110.736,167.210 110.388 C 167.342 109.700,167.206 109.522,167.015 110.132 M227.584 111.523 C 227.573 111.735,228.386 112.698,229.390 113.663 L 231.215 115.419 229.545 113.656 C 228.626 112.687,227.814 111.724,227.739 111.517 C 227.621 111.186,227.602 111.186,227.584 111.523 M202.088 115.561 C 202.149 115.970,202.277 116.355,202.375 116.415 C 202.472 116.475,202.503 116.189,202.443 115.780 C 202.383 115.370,202.254 114.985,202.156 114.925 C 202.059 114.865,202.028 115.151,202.088 115.561 M296.494 116.877 C 296.539 118.013,296.652 119.023,296.746 119.120 C 296.840 119.218,296.880 118.368,296.835 117.232 C 296.790 116.096,296.677 115.087,296.583 114.989 C 296.490 114.892,296.449 115.741,296.494 116.877 M165.253 115.419 C 165.188 115.626,165.080 115.972,165.012 116.187 C 164.945 116.402,164.988 116.517,165.108 116.442 C 165.228 116.368,165.381 116.022,165.448 115.674 C 165.579 114.986,165.444 114.808,165.253 115.419 M148.815 117.051 C 148.510 117.464,148.150 118.059,148.015 118.373 C 147.881 118.686,147.586 119.226,147.360 119.572 L 146.949 120.201 147.490 119.572 C 147.788 119.226,148.195 118.603,148.395 118.188 C 148.595 117.772,148.946 117.177,149.174 116.866 C 149.402 116.554,149.540 116.300,149.480 116.300 C 149.420 116.300,149.121 116.638,148.815 117.051 M95.710 123.648 C 95.681 127.343,95.743 130.419,95.846 130.484 C 95.950 130.548,96.006 128.601,95.971 126.156 C 95.849 117.764,95.763 116.938,95.710 123.648 M237.382 119.500 C 237.590 119.577,238.243 120.030,238.833 120.507 C 239.423 120.984,240.046 121.317,240.218 121.248 C 240.449 121.154,240.443 121.117,240.193 121.102 C 240.009 121.091,239.374 120.686,238.783 120.201 C 238.192 119.717,237.549 119.329,237.356 119.340 C 237.080 119.356,237.086 119.390,237.382 119.500 M318.235 123.774 C 318.209 126.015,318.272 127.902,318.376 127.967 C 318.480 128.031,318.535 126.820,318.499 125.276 C 318.379 120.184,318.283 119.638,318.235 123.774 M127.973 120.768 C 127.229 121.790,127.000 122.311,127.613 121.586 C 128.180 120.915,128.709 120.076,128.565 120.076 C 128.517 120.076,128.251 120.387,127.973 120.768 M185.398 120.390 C 185.143 121.112,184.828 122.871,184.981 122.717 C 185.173 122.525,185.754 120.076,185.607 120.076 C 185.554 120.076,185.460 120.217,185.398 120.390 M204.929 121.862 C 204.918 122.082,205.164 122.479,205.475 122.743 C 206.037 123.218,206.038 123.218,205.634 122.719 C 205.410 122.442,205.164 122.045,205.087 121.838 C 204.969 121.517,204.945 121.521,204.929 121.862 M162.736 123.222 C 162.671 123.430,162.563 123.776,162.495 123.990 C 162.427 124.205,162.470 124.320,162.591 124.246 C 162.711 124.171,162.864 123.826,162.931 123.478 C 163.062 122.790,162.927 122.612,162.736 123.222 M297.249 125.436 C 297.294 126.572,297.407 127.581,297.501 127.679 C 297.595 127.777,297.635 126.927,297.590 125.791 C 297.546 124.655,297.432 123.646,297.339 123.548 C 297.245 123.451,297.205 124.300,297.249 125.436 M207.552 125.110 C 208.234 125.802,208.848 126.369,208.918 126.369 C 208.987 126.369,208.486 125.802,207.804 125.110 C 207.122 124.418,206.507 123.851,206.438 123.851 C 206.369 123.851,206.870 124.418,207.552 125.110 M124.519 126.558 C 124.439 126.800,124.183 127.281,123.950 127.627 C 123.658 128.061,123.730 128.022,124.183 127.502 C 124.545 127.086,124.844 126.605,124.849 126.432 C 124.862 125.979,124.689 126.045,124.519 126.558 M141.772 128.624 C 141.469 129.034,141.221 129.452,141.221 129.554 C 141.221 129.656,141.504 129.355,141.850 128.886 C 142.196 128.417,142.480 127.998,142.480 127.956 C 142.480 127.750,142.275 127.944,141.772 128.624 M160.974 128.508 C 160.909 128.716,160.801 129.062,160.733 129.277 C 160.665 129.492,160.708 129.607,160.829 129.532 C 160.949 129.458,161.102 129.112,161.169 128.764 C 161.300 128.076,161.165 127.898,160.974 128.508 M211.938 129.201 C 212.274 129.581,212.727 129.884,212.945 129.873 C 213.285 129.856,213.287 129.833,212.964 129.715 C 212.756 129.639,212.303 129.337,211.957 129.043 L 211.328 128.508 211.938 129.201 M140.669 130.585 C 140.225 131.102,139.893 131.655,140.026 131.655 C 140.077 131.655,140.371 131.315,140.678 130.900 C 141.284 130.079,141.279 129.875,140.669 130.585 M159.907 132.159 C 159.907 132.643,159.959 132.841,160.022 132.599 C 160.086 132.357,160.086 131.960,160.022 131.718 C 159.959 131.476,159.907 131.674,159.907 132.159 M248.630 133.417 C 248.713 134.040,248.821 134.597,248.871 134.655 C 249.060 134.874,248.916 133.269,248.703 132.788 C 248.554 132.452,248.530 132.661,248.630 133.417 M138.843 133.403 C 138.599 133.672,138.460 134.040,138.532 134.221 C 138.634 134.474,138.668 134.468,138.684 134.192 C 138.695 133.995,138.891 133.627,139.120 133.374 C 139.349 133.121,139.480 132.914,139.411 132.914 C 139.342 132.914,139.086 133.134,138.843 133.403 M218.856 134.361 C 219.120 134.673,219.516 134.919,219.737 134.908 C 220.078 134.891,220.081 134.867,219.761 134.749 C 219.553 134.673,219.157 134.427,218.880 134.203 C 218.381 133.798,218.380 133.800,218.856 134.361 M220.997 135.768 C 221.365 136.226,222.782 137.304,222.782 137.127 C 222.782 137.071,222.300 136.643,221.712 136.176 C 221.123 135.708,220.802 135.524,220.997 135.768 M298.271 136.745 C 298.387 137.444,298.422 137.479,298.502 136.975 C 298.553 136.648,298.491 136.276,298.365 136.149 C 298.225 136.010,298.188 136.245,298.271 136.745 M249.564 139.836 C 249.565 141.775,249.604 142.534,249.652 141.525 C 249.700 140.515,249.700 138.929,249.651 138.000 C 249.603 137.072,249.564 137.898,249.564 139.836 M263.726 137.130 C 263.646 137.373,263.390 137.854,263.157 138.200 C 262.865 138.634,262.937 138.594,263.390 138.074 C 263.752 137.659,264.051 137.177,264.056 137.004 C 264.069 136.551,263.896 136.617,263.726 137.130 M319.031 138.955 C 319.031 140.132,319.074 140.614,319.127 140.025 C 319.180 139.437,319.180 138.474,319.127 137.885 C 319.074 137.297,319.031 137.778,319.031 138.955 M178.343 142.354 C 178.278 142.561,178.170 142.907,178.102 143.122 C 178.035 143.337,178.078 143.452,178.198 143.377 C 178.318 143.303,178.471 142.957,178.538 142.609 C 178.669 141.921,178.534 141.743,178.343 142.354 M96.358 150.228 C 96.398 153.785,96.511 156.775,96.610 156.875 C 96.709 156.974,96.758 154.146,96.719 150.590 C 96.680 147.034,96.566 144.043,96.467 143.943 C 96.368 143.844,96.319 146.672,96.358 150.228 M319.242 147.562 C 319.216 149.735,319.279 151.565,319.383 151.630 C 319.487 151.694,319.542 150.540,319.506 149.064 C 319.383 144.114,319.290 143.583,319.242 147.562 M227.875 145.249 C 227.875 145.733,227.926 145.931,227.990 145.689 C 228.053 145.447,228.053 145.050,227.990 144.808 C 227.926 144.566,227.875 144.764,227.875 145.249 M192.896 147.577 C 192.409 148.206,192.292 148.631,192.765 148.051 C 193.188 147.532,193.329 147.493,193.856 147.750 C 194.430 148.030,194.436 148.025,193.973 147.654 C 193.382 147.180,193.212 147.168,192.896 147.577 M200.378 151.027 C 200.585 151.167,200.972 151.284,201.238 151.286 C 201.882 151.291,201.681 151.147,200.755 150.940 C 200.204 150.817,200.102 150.840,200.378 151.027 M299.169 159.597 C 299.169 164.235,299.203 166.133,299.244 163.814 C 299.286 161.495,299.286 157.700,299.244 155.381 C 299.203 153.062,299.169 154.959,299.169 159.597 M206.167 152.813 C 206.790 152.924,207.640 153.009,208.055 153.002 C 208.612 152.993,208.513 152.936,207.678 152.788 C 207.055 152.677,206.205 152.592,205.790 152.599 C 205.233 152.608,205.332 152.665,206.167 152.813 M219.383 152.801 L 218.376 152.981 219.305 153.017 C 219.816 153.036,220.305 152.939,220.390 152.801 C 220.476 152.662,220.511 152.565,220.468 152.584 C 220.425 152.604,219.937 152.701,219.383 152.801 M211.931 153.631 C 212.042 153.742,212.915 153.797,213.870 153.754 L 215.607 153.676 213.668 153.553 C 212.601 153.485,211.819 153.520,211.931 153.631 M152.186 155.632 C 151.924 156.493,151.861 157.068,152.040 156.957 C 152.149 156.890,152.289 156.493,152.350 156.076 C 152.462 155.313,152.363 155.047,152.186 155.632 M243.974 156.818 C 243.671 157.228,243.425 157.709,243.427 157.888 C 243.429 158.067,243.571 157.972,243.742 157.677 C 243.913 157.382,244.198 156.901,244.376 156.607 C 244.846 155.831,244.614 155.953,243.974 156.818 M173.812 156.702 C 173.747 156.910,173.639 157.256,173.571 157.471 C 173.504 157.685,173.547 157.800,173.667 157.726 C 173.787 157.652,173.940 157.306,174.007 156.958 C 174.138 156.270,174.003 156.092,173.812 156.702 M252.987 156.889 C 252.251 157.996,252.194 158.201,252.829 157.458 C 253.390 156.801,253.642 156.325,253.427 156.325 C 253.392 156.325,253.193 156.579,252.987 156.889 M186.339 160.101 C 186.339 160.585,186.391 160.784,186.454 160.541 C 186.518 160.299,186.518 159.902,186.454 159.660 C 186.391 159.418,186.339 159.616,186.339 160.101 M319.949 163.826 L 320.074 168.030 320.144 164.022 C 320.183 161.817,320.127 159.925,320.019 159.817 C 319.912 159.709,319.880 161.513,319.949 163.826 M237.885 162.908 C 237.387 163.345,237.244 163.558,237.557 163.399 C 237.861 163.245,238.184 162.998,238.275 162.851 C 238.366 162.703,238.684 162.485,238.981 162.365 C 239.291 162.239,239.361 162.144,239.144 162.141 C 238.936 162.138,238.370 162.483,237.885 162.908 M171.317 164.191 C 171.264 164.364,171.095 164.900,170.940 165.381 C 170.786 165.863,170.766 166.146,170.895 166.011 C 171.155 165.738,171.706 163.877,171.526 163.877 C 171.464 163.877,171.370 164.018,171.317 164.191 M118.786 166.518 C 118.246 167.312,118.073 167.398,117.007 167.399 C 116.357 167.400,115.773 167.486,115.708 167.591 C 115.644 167.695,116.200 167.724,116.944 167.654 C 118.151 167.540,119.572 166.493,119.572 165.716 C 119.572 165.478,119.318 165.737,118.786 166.518 M197.001 166.376 C 197.244 166.604,199.084 167.049,198.867 166.827 C 198.798 166.756,198.298 166.577,197.756 166.429 C 197.214 166.281,196.874 166.257,197.001 166.376 M227.816 167.331 C 226.893 167.496,226.659 167.839,227.560 167.707 C 227.981 167.645,228.388 167.494,228.464 167.372 C 228.539 167.249,228.566 167.165,228.523 167.183 C 228.481 167.202,228.162 167.269,227.816 167.331 M203.321 168.161 C 203.549 168.368,206.358 168.766,206.154 168.562 C 206.082 168.490,205.370 168.329,204.571 168.204 C 203.771 168.079,203.209 168.059,203.321 168.161 M224.172 168.185 C 222.058 168.493,221.840 168.668,223.789 168.493 C 224.688 168.413,225.532 168.247,225.664 168.126 C 225.795 168.004,225.852 167.918,225.790 167.935 C 225.728 167.952,224.999 168.064,224.172 168.185 M16.388 178.572 C 15.975 179.069,15.975 238.300,16.388 238.798 C 16.632 239.092,44.515 239.135,200.094 239.081 L 383.512 239.018 383.576 208.963 C 383.622 186.962,383.564 178.817,383.356 178.567 C 382.928 178.051,16.816 178.056,16.388 178.572 M383.386 208.685 L 383.386 238.641 200.063 238.578 L 16.740 238.515 16.675 208.936 C 16.640 192.668,16.664 179.216,16.730 179.043 C 16.826 178.792,53.735 178.729,200.118 178.729 L 383.386 178.729 383.386 208.685 " stroke="none" fill="#fcfcc4" fill-rule="evenodd"></path></g></svg>