<svg id="svg" version="1.1" width="400" height="254.66666666666666" viewBox="0 0 400 254.66666666666666" xmlns="http://www.w3.org/2000/svg" xmlns:xlink="http://www.w3.org/1999/xlink" ><g id="svgg"><path id="path0" d="M5.656 5.656 C 5.069 6.243,5.228 248.728,5.816 249.260 C 6.459 249.842,393.330 249.920,394.722 249.339 L 395.541 248.996 395.477 127.333 L 395.413 5.669 394.617 5.509 C 392.985 5.183,5.983 5.329,5.656 5.656 M243.680 13.050 C 244.206 13.802,244.296 135.475,243.771 136.000 C 243.546 136.224,241.417 136.306,235.778 136.306 C 227.666 136.306,225.135 136.658,223.662 137.991 C 222.877 138.702,221.870 138.564,221.586 137.707 C 221.101 136.243,221.548 136.306,211.556 136.306 C 201.361 136.306,200.180 136.469,197.722 138.214 C 196.709 138.933,196.310 138.763,196.035 137.498 C 195.771 136.278,196.194 136.314,182.006 136.310 C 167.509 136.305,168.310 136.219,167.991 137.817 C 167.770 138.922,167.369 139.016,166.195 138.240 C 165.654 137.882,164.363 137.300,163.326 136.947 L 161.439 136.306 150.465 136.309 C 138.409 136.313,138.512 136.305,138.093 137.316 C 137.675 138.324,136.738 138.707,136.185 138.097 C 135.952 137.839,134.817 137.328,133.663 136.960 L 131.565 136.292 118.275 136.363 L 104.985 136.433 103.557 137.834 C 102.771 138.605,101.544 139.952,100.829 140.828 C 98.991 143.080,98.685 143.034,96.255 140.153 C 95.203 138.905,93.938 137.530,93.444 137.095 L 92.544 136.306 76.472 136.306 C 60.843 136.306,60.393 136.319,60.136 136.799 C 59.722 137.572,59.776 171.745,60.192 172.314 C 60.488 172.719,61.649 172.745,76.505 172.681 L 92.499 172.611 93.702 171.320 C 94.363 170.610,95.571 169.263,96.386 168.327 C 97.313 167.262,98.063 166.624,98.390 166.624 C 98.935 166.624,99.125 166.816,101.666 169.924 C 104.124 172.930,103.321 172.739,113.509 172.739 C 124.333 172.739,123.312 173.231,123.312 168.014 C 123.312 162.874,123.104 163.061,128.842 163.046 C 133.657 163.034,135.008 162.849,136.077 162.060 C 137.663 160.887,137.834 161.366,137.834 166.986 L 137.834 171.916 138.462 172.327 C 138.997 172.678,140.015 172.739,145.327 172.739 C 153.060 172.739,152.357 173.292,152.357 167.211 L 152.357 162.816 153.128 162.417 C 154.088 161.920,155.309 162.115,156.327 162.926 L 157.070 163.518 157.155 167.682 C 157.224 171.021,157.320 171.936,157.641 172.293 C 158.017 172.712,159.665 172.739,185.377 172.739 C 214.164 172.739,214.458 172.728,216.478 171.567 C 217.899 170.751,218.243 170.793,218.743 171.847 L 219.166 172.739 229.101 172.739 C 239.813 172.739,241.478 172.573,242.759 171.381 C 244.127 170.107,244.077 168.760,244.068 206.482 C 244.062 234.902,243.999 241.227,243.722 241.592 C 243.278 242.177,14.148 242.293,12.994 241.708 L 12.357 241.386 12.297 183.687 C 12.259 147.672,12.327 125.844,12.478 125.605 C 12.674 125.294,13.562 125.208,17.246 125.142 C 19.736 125.098,21.907 124.950,22.071 124.813 C 22.371 124.565,23.870 121.583,24.441 120.098 C 24.910 118.881,25.507 118.699,28.772 118.781 L 31.684 118.854 32.518 120.510 C 32.977 121.420,33.415 122.472,33.491 122.847 C 33.568 123.221,33.927 123.880,34.290 124.312 L 34.950 125.096 44.577 125.096 C 55.901 125.096,54.933 125.397,54.832 121.908 C 54.794 120.616,54.891 119.228,55.046 118.824 L 55.327 118.089 55.720 118.854 C 55.936 119.274,56.314 119.847,56.560 120.127 C 56.806 120.408,57.154 121.093,57.333 121.651 C 57.511 122.208,58.022 123.183,58.468 123.816 L 59.278 124.968 64.027 125.037 L 68.777 125.107 69.658 123.892 C 70.143 123.224,70.609 122.307,70.694 121.855 C 70.779 121.404,71.105 120.715,71.418 120.326 C 71.731 119.936,72.154 119.289,72.358 118.888 L 72.729 118.158 73.048 118.888 C 73.234 119.315,73.348 120.515,73.323 121.783 C 73.300 122.975,73.367 124.207,73.473 124.522 L 73.665 125.096 98.585 125.096 C 121.435 125.096,123.534 125.061,123.854 124.675 C 124.115 124.362,124.224 123.090,124.284 119.694 L 124.364 115.134 125.001 114.892 C 126.374 114.370,127.636 114.591,128.561 115.516 L 129.427 116.382 129.427 120.246 C 129.427 125.717,127.892 125.096,141.401 125.096 C 154.386 125.096,153.376 125.278,153.376 122.930 C 153.376 120.870,153.750 120.534,154.865 121.592 C 157.667 124.253,161.191 125.096,169.516 125.096 L 175.701 125.096 176.357 124.395 C 176.718 124.010,177.092 123.408,177.190 123.057 C 177.287 122.707,177.630 121.847,177.952 121.146 C 178.273 120.446,178.666 119.551,178.823 119.159 C 179.705 116.961,186.497 117.359,186.497 119.608 C 186.497 119.784,186.841 120.573,187.261 121.361 C 187.682 122.148,188.025 122.976,188.025 123.199 C 188.025 123.423,188.361 123.941,188.770 124.351 L 189.515 125.096 198.658 125.096 C 209.902 125.096,208.750 125.626,208.917 120.368 C 209.081 115.202,209.534 114.683,211.102 117.857 C 211.620 118.905,212.372 120.175,212.773 120.680 C 213.175 121.185,213.503 121.708,213.503 121.842 C 213.503 122.124,214.352 123.291,215.331 124.355 L 216.012 125.096 223.151 125.096 C 230.239 125.096,230.292 125.092,230.686 124.529 C 231.392 123.522,231.275 89.984,230.563 89.220 C 230.057 88.677,229.888 88.662,224.054 88.662 C 215.993 88.662,216.135 88.578,216.359 93.224 C 216.544 97.055,215.840 97.974,214.634 95.478 C 213.771 93.693,213.119 92.541,212.677 92.021 C 212.477 91.785,212.163 91.213,211.979 90.749 C 211.795 90.285,211.278 89.626,210.830 89.284 L 210.016 88.662 203.384 88.662 C 194.022 88.662,194.832 88.193,194.799 93.631 C 194.783 96.154,194.675 97.378,194.427 97.813 L 194.076 98.429 193.735 97.813 C 193.547 97.475,193.390 97.037,193.385 96.841 C 193.380 96.645,193.074 95.842,192.706 95.057 C 191.005 91.436,190.603 90.537,190.463 90.046 C 190.083 88.707,189.600 88.662,175.306 88.662 C 158.918 88.662,157.840 88.810,154.808 91.472 C 153.778 92.376,153.376 92.113,153.376 90.537 C 153.376 88.745,153.100 88.662,147.109 88.662 C 140.632 88.662,140.462 88.694,140.122 89.957 C 139.760 91.302,139.510 91.369,138.336 90.440 C 136.166 88.721,138.073 88.812,102.381 88.727 L 70.113 88.651 69.238 89.674 C 68.756 90.237,68.216 91.183,68.038 91.777 C 67.861 92.371,67.498 93.132,67.233 93.469 C 66.968 93.806,66.752 94.208,66.752 94.362 C 66.752 94.516,66.470 95.217,66.126 95.920 C 65.781 96.623,65.329 97.627,65.120 98.153 C 64.559 99.561,63.246 99.343,62.802 97.769 C 62.637 97.183,61.276 94.188,60.863 93.503 C 60.632 93.119,60.348 92.500,59.749 91.076 C 59.571 90.651,59.114 89.935,58.734 89.483 L 58.044 88.662 50.156 88.662 C 39.681 88.662,40.318 88.277,40.609 94.436 L 40.782 98.098 39.972 97.767 C 39.297 97.492,39.068 97.164,38.589 95.789 C 35.915 88.107,36.733 88.662,28.087 88.662 C 21.130 88.662,20.641 88.792,20.107 90.775 C 19.951 91.357,19.611 92.238,19.354 92.732 C 19.096 93.226,18.581 94.318,18.210 95.159 C 17.839 96.000,17.210 97.376,16.812 98.217 C 16.414 99.057,15.957 100.174,15.797 100.697 C 15.636 101.221,15.405 101.710,15.285 101.785 C 15.164 101.859,14.888 102.529,14.672 103.272 C 14.456 104.015,14.047 104.834,13.764 105.090 C 13.480 105.347,13.248 105.697,13.248 105.868 C 13.248 106.433,12.565 106.819,12.386 106.355 C 12.162 105.769,12.199 13.687,12.424 13.354 C 12.527 13.202,12.841 12.947,13.121 12.789 C 13.499 12.574,43.335 12.498,128.457 12.492 L 243.283 12.484 243.680 13.050 M32.188 93.161 C 32.761 93.255,33.216 93.492,33.288 93.731 C 33.356 93.956,33.690 94.742,34.031 95.478 C 35.143 97.881,35.877 99.462,36.671 101.167 C 37.101 102.089,37.452 102.927,37.452 103.030 C 37.452 103.253,38.532 105.674,40.587 110.064 C 41.954 112.982,42.496 114.294,42.669 115.109 C 42.877 116.084,44.823 118.196,44.868 117.496 C 44.883 117.262,44.873 111.893,44.844 105.566 C 44.780 91.462,44.140 92.983,50.127 93.019 C 55.481 93.051,55.476 93.050,56.319 94.785 C 57.940 98.125,58.579 99.550,58.848 100.425 C 59.005 100.940,59.293 101.492,59.487 101.653 C 59.681 101.814,59.919 102.311,60.016 102.756 C 60.112 103.202,60.400 103.968,60.655 104.459 C 61.422 105.934,62.590 108.600,62.921 109.628 C 63.344 110.947,65.223 110.292,65.223 108.825 C 65.223 108.596,65.582 107.662,66.020 106.752 C 68.070 102.494,69.554 99.093,69.554 98.654 C 69.554 98.521,69.772 98.135,70.039 97.796 C 70.306 97.457,70.653 96.701,70.810 96.116 C 70.968 95.532,71.215 94.980,71.360 94.890 C 71.505 94.801,71.729 94.450,71.858 94.111 C 72.222 93.155,73.076 92.994,77.767 92.994 C 83.746 92.994,83.057 91.204,83.057 106.734 C 83.057 122.253,83.408 120.847,79.567 120.723 C 75.894 120.604,76.179 121.381,76.174 111.480 C 76.172 106.988,76.069 103.152,75.945 102.957 C 75.571 102.366,75.020 102.812,74.673 103.986 C 74.492 104.596,74.198 105.268,74.018 105.478 C 73.838 105.688,73.615 106.146,73.522 106.497 C 73.430 106.847,73.073 107.707,72.729 108.408 C 72.385 109.108,71.933 110.083,71.725 110.573 C 71.518 111.064,71.241 111.637,71.110 111.847 C 70.668 112.556,68.127 118.346,67.901 119.159 C 67.263 121.448,60.721 121.441,60.104 119.151 C 59.948 118.569,59.619 117.806,59.374 117.455 C 59.129 117.103,58.846 116.478,58.746 116.066 C 58.647 115.655,58.358 115.024,58.106 114.665 C 57.853 114.306,57.569 113.726,57.475 113.376 C 57.380 113.025,57.023 112.166,56.681 111.465 C 56.339 110.764,55.711 109.331,55.287 108.280 C 54.862 107.229,54.298 105.965,54.034 105.471 C 53.770 104.977,53.423 104.088,53.264 103.496 C 52.952 102.339,52.420 102.097,51.983 102.913 C 51.817 103.224,51.720 106.461,51.720 111.672 C 51.720 119.045,51.674 119.975,51.299 120.287 C 50.294 121.122,38.136 120.856,37.682 119.989 C 37.212 119.094,35.958 116.257,35.812 115.760 C 35.518 114.757,34.627 114.636,28.043 114.709 L 21.819 114.777 20.990 116.178 C 20.534 116.949,20.085 118.012,19.993 118.540 C 19.689 120.288,18.695 120.764,15.354 120.764 C 13.022 120.764,12.512 120.695,12.384 120.361 C 12.124 119.683,12.210 119.059,12.610 118.727 C 12.820 118.553,13.127 117.937,13.293 117.358 C 13.460 116.779,13.789 116.019,14.026 115.669 C 14.262 115.318,14.535 114.745,14.632 114.395 C 14.853 113.598,16.164 110.553,17.979 106.624 C 18.303 105.924,18.929 104.490,19.371 103.439 C 19.813 102.389,20.451 100.944,20.788 100.229 C 21.125 99.515,21.401 98.810,21.401 98.663 C 21.401 98.516,21.745 97.742,22.166 96.943 C 22.586 96.144,22.930 95.333,22.930 95.142 C 22.930 94.951,23.286 94.390,23.721 93.894 L 24.511 92.994 27.861 92.996 C 29.703 92.998,31.650 93.072,32.188 93.161 M109.299 93.323 C 109.893 93.622,109.941 93.791,110.012 95.803 C 110.124 99.008,110.522 98.854,102.169 98.854 C 94.201 98.854,94.650 98.694,94.650 101.528 C 94.650 104.364,94.196 104.204,102.203 104.204 L 109.057 104.204 109.306 104.857 C 109.672 105.820,109.618 108.674,109.229 108.998 C 109.023 109.168,106.404 109.297,102.107 109.347 C 94.282 109.439,94.751 109.276,94.578 111.967 C 94.381 115.050,94.003 114.904,102.205 114.904 C 110.386 114.904,110.064 114.788,110.064 117.754 C 110.064 119.283,109.972 119.682,109.510 120.175 L 108.956 120.764 98.827 120.764 C 89.959 120.764,88.649 120.715,88.298 120.364 C 87.651 119.716,87.695 93.647,88.344 93.269 C 89.042 92.862,108.486 92.912,109.299 93.323 M135.796 93.824 C 140.637 96.253,141.489 102.890,137.420 106.472 C 136.109 107.626,136.145 107.998,137.677 109.166 C 139.111 110.260,139.654 112.095,139.789 116.306 C 139.933 120.806,140.066 120.615,136.718 120.723 C 133.385 120.831,133.356 120.800,133.178 116.943 C 132.941 111.801,132.041 110.989,126.449 110.873 C 120.553 110.751,120.673 110.632,120.797 116.504 C 120.888 120.784,120.831 120.850,117.150 120.723 C 115.332 120.660,114.561 120.531,114.271 120.241 C 113.865 119.834,113.637 94.366,114.034 93.724 C 114.427 93.087,115.804 93.003,124.841 93.060 L 134.395 93.121 135.796 93.824 M149.567 93.382 L 150.318 93.771 150.318 106.740 L 150.318 119.708 149.647 120.236 C 148.730 120.957,144.823 121.014,143.965 120.318 L 143.415 119.873 143.415 106.879 L 143.415 93.885 143.965 93.439 C 144.698 92.845,148.454 92.807,149.567 93.382 M171.763 93.415 C 172.338 93.935,172.458 98.096,171.911 98.540 C 171.736 98.682,170.045 98.848,168.153 98.908 C 162.132 99.101,160.372 100.607,160.077 105.820 C 159.712 112.273,163.251 116.077,168.051 114.390 C 168.698 114.163,170.701 110.834,170.701 109.986 C 170.701 109.804,171.809 107.323,172.886 105.092 C 173.226 104.389,173.503 103.673,173.503 103.500 C 173.503 103.327,173.780 102.640,174.119 101.975 C 174.458 101.309,175.042 100.019,175.417 99.108 C 176.016 97.655,176.641 96.248,177.678 94.023 C 178.500 92.257,187.487 92.624,187.925 94.442 C 188.020 94.836,188.369 95.674,188.699 96.304 C 189.029 96.933,189.299 97.555,189.299 97.685 C 189.299 97.896,189.638 98.663,191.335 102.293 C 192.825 105.480,193.376 106.749,193.376 106.990 C 193.376 107.139,193.652 107.806,193.989 108.471 C 195.384 111.227,196.179 113.018,196.178 113.405 C 196.178 113.631,196.387 114.090,196.641 114.424 C 196.896 114.758,197.258 115.433,197.447 115.924 C 198.543 118.782,198.726 117.215,198.730 104.888 C 198.732 98.392,198.833 93.729,198.976 93.503 C 199.177 93.186,200.022 93.121,203.964 93.121 L 208.711 93.121 209.338 93.885 C 209.683 94.306,210.307 95.280,210.723 96.051 C 211.140 96.822,211.821 97.968,212.236 98.599 C 212.652 99.229,213.163 100.110,213.371 100.556 C 213.580 101.002,213.876 101.444,214.030 101.539 C 214.184 101.634,214.536 102.187,214.814 102.767 C 215.495 104.194,216.068 105.194,216.752 106.154 C 217.067 106.596,217.325 107.044,217.325 107.149 C 217.325 107.254,217.590 107.695,217.914 108.129 C 218.238 108.562,218.655 109.295,218.841 109.757 C 219.059 110.296,219.327 110.569,219.590 110.518 C 219.955 110.448,220.007 109.531,220.067 102.127 C 220.146 92.335,219.826 93.173,223.536 93.036 C 227.383 92.894,227.021 91.458,227.021 106.879 C 227.020 122.567,227.636 120.839,222.088 120.722 L 218.052 120.637 217.291 119.745 C 216.872 119.255,216.365 118.510,216.164 118.089 C 215.963 117.669,215.397 116.694,214.905 115.924 C 214.413 115.153,213.779 114.040,213.495 113.450 C 213.211 112.860,212.871 112.311,212.739 112.230 C 212.607 112.148,211.973 111.140,211.329 109.990 C 210.686 108.839,209.826 107.382,209.419 106.752 C 209.012 106.121,208.391 105.089,208.039 104.459 C 205.707 100.280,205.564 100.663,205.594 110.986 C 205.625 122.002,206.495 120.764,198.725 120.764 L 192.637 120.764 191.969 119.888 C 191.601 119.405,191.074 118.417,190.798 117.691 C 190.523 116.965,190.001 115.984,189.640 115.510 L 188.984 114.650 182.693 114.650 L 176.401 114.650 175.748 115.350 C 175.388 115.736,174.904 116.624,174.672 117.325 C 174.440 118.025,173.933 119.057,173.545 119.618 L 172.840 120.637 167.375 120.635 C 159.949 120.632,158.483 120.074,155.476 116.109 C 152.730 112.487,152.795 101.739,155.586 97.915 C 155.912 97.469,156.178 97.039,156.178 96.960 C 156.178 96.015,159.872 93.539,161.675 93.276 C 164.605 92.849,171.239 92.940,171.763 93.415 M121.172 99.404 C 120.875 99.828,120.764 100.581,120.764 102.174 C 120.764 105.482,120.539 105.350,126.219 105.350 L 130.948 105.350 132.029 104.270 C 133.557 102.742,133.557 101.590,132.029 100.062 L 130.949 98.981 126.264 98.902 C 121.632 98.823,121.575 98.829,121.172 99.404 M27.824 100.453 C 27.524 100.772,27.102 101.546,26.886 102.173 C 26.519 103.238,25.658 105.187,24.832 106.823 C 24.151 108.170,24.929 108.535,28.484 108.535 C 32.351 108.535,32.846 108.092,31.472 105.860 C 31.126 105.299,30.840 104.657,30.836 104.433 C 30.832 104.208,30.560 103.520,30.231 102.903 C 29.903 102.286,29.493 101.352,29.320 100.827 C 28.957 99.728,28.591 99.636,27.824 100.453 M181.685 100.429 C 181.090 101.953,180.549 103.401,180.226 104.331 C 180.031 104.892,179.616 105.839,179.303 106.437 C 178.370 108.215,178.653 108.394,182.540 108.479 C 186.362 108.563,187.319 108.110,186.144 106.772 C 185.743 106.316,184.600 103.648,184.041 101.867 C 183.642 100.595,183.387 100.291,182.486 100.015 C 182.037 99.877,181.866 99.966,181.685 100.429 M280.111 116.927 C 282.739 118.012,286.879 121.200,286.879 122.138 C 286.879 122.271,287.038 122.561,287.233 122.782 C 287.693 123.304,289.048 126.736,289.269 127.937 C 289.574 129.592,289.301 129.682,283.962 129.682 C 278.938 129.682,278.925 129.678,278.578 128.279 C 277.687 124.688,272.834 122.899,269.765 125.030 C 264.668 128.570,265.489 141.649,270.891 142.945 C 274.730 143.866,277.979 142.145,278.640 138.838 C 278.886 137.608,279.093 137.563,284.209 137.638 C 289.737 137.718,289.728 137.714,289.254 139.794 C 285.902 154.507,263.835 156.216,256.986 142.293 C 252.013 132.184,257.213 119.332,267.516 116.271 C 269.965 115.544,277.741 115.949,280.111 116.927 M367.643 117.070 C 368.079 117.595,368.008 150.346,367.570 150.624 C 367.097 150.925,360.295 150.867,359.716 150.558 C 359.439 150.409,359.104 150.005,358.973 149.660 C 358.602 148.686,358.134 148.691,357.055 149.679 C 352.775 153.600,343.525 150.959,341.506 145.239 C 341.281 144.600,340.907 143.622,340.675 143.066 C 339.995 141.430,340.085 136.142,340.828 134.075 C 341.143 133.199,341.401 132.349,341.401 132.187 C 341.401 131.016,344.455 127.485,346.497 126.294 C 348.746 124.983,353.235 125.051,355.754 126.433 C 358.375 127.872,358.217 128.119,358.217 122.582 C 358.217 116.124,357.867 116.536,363.259 116.636 C 366.386 116.694,367.416 116.796,367.643 117.070 M312.582 126.214 C 314.672 127.113,315.527 127.756,316.520 129.172 L 317.325 130.318 317.452 139.915 C 317.522 145.193,317.666 149.598,317.771 149.703 C 318.844 150.776,310.686 151.470,309.511 150.406 C 309.254 150.174,309.045 149.843,309.045 149.669 C 309.045 149.323,308.487 149.045,307.794 149.045 C 307.549 149.045,306.813 149.399,306.158 149.833 C 300.419 153.634,291.569 151.337,290.472 145.761 C 289.380 140.214,292.815 136.851,300.387 136.050 C 305.465 135.514,307.859 134.576,307.722 133.175 C 307.495 130.850,302.775 130.611,301.307 132.852 L 300.880 133.503 296.586 133.503 C 291.580 133.503,291.587 133.507,291.972 131.477 C 292.326 129.613,294.585 127.116,296.286 126.710 C 296.647 126.623,297.253 126.397,297.631 126.206 C 299.871 125.078,309.954 125.084,312.582 126.214 M337.274 125.656 C 337.482 125.864,337.580 127.079,337.580 129.460 C 337.580 133.554,337.483 133.758,335.540 133.758 C 333.163 133.758,331.414 134.787,330.421 136.772 L 329.570 138.471 329.475 144.331 C 329.418 147.825,329.273 150.320,329.117 150.510 C 328.676 151.046,320.676 150.953,320.222 150.407 C 319.720 149.803,319.576 127.578,320.068 126.624 C 320.392 125.996,320.445 125.986,323.996 125.917 L 327.596 125.846 328.129 126.524 C 328.459 126.944,328.662 127.574,328.662 128.175 L 328.662 129.147 329.446 128.818 C 329.877 128.637,330.435 128.176,330.685 127.795 C 331.927 125.901,336.148 124.531,337.274 125.656 M352.950 133.210 C 349.119 134.358,349.140 143.340,352.976 144.201 C 356.325 144.953,358.477 142.735,358.465 138.544 C 358.454 134.460,356.165 132.247,352.950 133.210 M305.987 140.398 C 304.542 140.743,301.566 141.583,301.073 141.785 C 300.363 142.078,299.875 143.254,300.040 144.275 C 300.430 146.675,305.586 146.518,307.069 144.060 C 307.909 142.669,308.228 141.060,307.772 140.511 C 307.424 140.092,307.305 140.084,305.987 140.398 M90.660 140.966 C 91.429 141.289,93.427 143.363,96.433 146.959 C 98.258 149.142,98.876 149.216,100.382 147.434 C 103.092 144.228,105.926 141.330,106.609 141.066 C 107.912 140.562,132.531 140.893,133.940 141.433 C 140.133 143.808,140.185 155.246,134.018 158.286 C 132.947 158.814,132.424 158.862,126.572 158.981 C 118.934 159.136,119.641 158.661,119.536 163.704 C 119.430 168.827,120.052 168.413,112.491 168.390 C 105.639 168.369,106.254 168.537,104.190 166.115 C 103.295 165.064,102.224 163.860,101.810 163.439 C 101.396 163.019,100.726 162.217,100.320 161.656 C 99.583 160.639,98.771 160.026,98.136 160.009 C 97.779 159.999,96.939 160.834,94.583 163.540 C 93.779 164.464,92.441 165.937,91.609 166.814 L 90.098 168.408 77.437 168.408 C 67.208 168.408,64.722 168.343,64.494 168.069 C 64.270 167.798,64.092 151.978,64.199 141.865 C 64.212 140.631,64.150 140.637,77.441 140.637 C 87.025 140.637,90.057 140.712,90.660 140.966 M193.021 141.083 C 193.465 141.668,193.505 146.011,193.070 146.446 C 192.848 146.668,190.910 146.752,185.948 146.752 C 177.578 146.752,177.833 146.676,177.838 149.149 C 177.845 152.121,177.792 152.102,185.893 152.102 C 193.400 152.102,193.122 152.011,193.117 154.468 C 193.111 157.255,193.669 157.051,185.653 157.197 C 177.438 157.347,177.833 157.214,177.838 159.840 C 177.845 162.842,177.731 162.803,186.359 162.803 C 192.240 162.803,193.086 162.852,193.221 163.206 C 193.542 164.041,193.388 167.825,193.021 168.130 C 192.429 168.622,171.522 168.400,171.205 167.898 C 170.920 167.447,170.867 141.925,171.150 141.507 C 171.690 140.710,172.453 140.652,182.520 140.645 C 191.905 140.638,192.709 140.671,193.021 141.083 M163.210 141.424 C 168.234 143.352,169.399 150.560,165.286 154.273 C 163.904 155.520,163.916 155.722,165.437 156.869 C 166.806 157.902,167.361 159.800,167.637 164.391 C 167.883 168.475,167.937 168.408,164.434 168.408 C 161.123 168.408,161.024 168.308,161.007 164.975 C 160.980 159.665,159.913 158.726,153.904 158.726 C 148.136 158.726,148.506 158.387,148.548 163.638 C 148.589 168.636,148.756 168.408,145.065 168.408 C 141.286 168.408,141.656 169.900,141.656 154.646 L 141.656 141.685 142.229 141.278 C 143.070 140.682,161.611 140.810,163.210 141.424 M218.238 141.525 C 218.679 142.199,218.695 145.975,218.259 146.413 C 218.143 146.529,215.021 146.682,211.321 146.752 L 204.593 146.879 203.703 147.771 C 201.788 149.688,203.237 150.994,207.710 151.381 C 215.897 152.089,217.590 152.767,219.045 155.924 C 220.627 159.359,219.934 163.799,217.459 166.081 C 214.964 168.381,213.659 168.641,204.557 168.654 C 196.448 168.665,196.688 168.762,196.688 165.468 C 196.688 162.685,196.393 162.805,203.232 162.791 C 210.780 162.776,211.987 162.462,212.303 160.426 C 212.646 158.215,211.673 157.714,206.497 157.436 C 200.511 157.113,198.533 156.233,196.932 153.178 C 195.154 149.786,196.087 144.549,198.827 142.548 C 200.869 141.055,201.637 140.944,210.122 140.917 L 217.823 140.892 218.238 141.525 M243.722 141.338 C 244.132 141.878,244.199 145.536,243.813 146.259 C 243.563 146.726,243.213 146.752,237.125 146.755 C 230.254 146.759,229.901 146.816,228.977 148.061 C 228.550 148.636,228.518 148.859,228.760 149.592 C 229.232 151.021,229.617 151.140,235.278 151.605 C 237.095 151.754,239.158 151.996,239.864 152.142 C 247.274 153.677,247.183 165.992,239.745 168.146 C 238.963 168.372,236.160 168.514,230.928 168.592 L 223.256 168.707 222.748 168.061 C 222.197 167.360,222.190 163.808,222.738 163.121 C 222.927 162.884,224.406 162.803,228.531 162.803 C 236.358 162.803,237.931 162.351,237.954 160.098 C 237.973 158.225,236.466 157.459,232.739 157.449 C 229.618 157.440,227.373 157.081,225.719 156.326 C 219.464 153.470,220.302 143.097,226.935 141.272 C 229.014 140.700,243.280 140.756,243.722 141.338 M110.857 145.371 C 110.355 146.009,107.507 149.188,105.765 151.054 C 102.589 154.457,102.521 153.989,106.944 159.190 C 108.573 161.106,109.996 162.788,110.106 162.929 C 111.251 164.393,111.490 164.579,112.038 164.429 L 112.611 164.272 112.611 154.493 L 112.611 144.713 111.993 144.713 C 111.632 144.713,111.160 144.987,110.857 145.371 M71.134 147.057 C 70.767 147.424,70.722 151.030,71.077 151.592 C 71.279 151.912,72.470 151.995,78.322 152.102 C 86.433 152.249,85.955 152.079,85.820 154.768 C 85.691 157.314,86.073 157.189,78.391 157.194 C 70.423 157.198,70.827 157.058,70.832 159.818 C 70.838 162.915,70.149 162.663,78.841 162.753 L 86.364 162.831 87.959 161.217 C 93.487 155.627,94.318 154.285,93.079 152.956 C 92.682 152.529,91.679 151.389,90.851 150.421 C 90.023 149.454,88.900 148.232,88.356 147.707 L 87.366 146.752 79.403 146.752 C 73.549 146.752,71.359 146.833,71.134 147.057 M119.873 147.097 C 119.115 147.658,119.103 152.463,119.858 153.014 C 120.522 153.500,128.980 153.530,129.929 153.050 C 131.834 152.086,132.271 149.561,130.821 147.898 L 129.932 146.879 125.157 146.799 C 121.247 146.734,120.290 146.788,119.873 147.097 M149.108 147.052 C 148.284 147.465,148.234 151.801,149.045 152.611 C 149.823 153.390,157.725 153.382,159.255 152.602 C 161.269 151.574,161.541 149.388,159.856 147.754 L 158.954 146.879 154.318 146.822 C 151.278 146.785,149.484 146.864,149.108 147.052 M386.528 159.764 C 386.755 160.576,386.800 168.607,386.584 169.713 C 386.425 170.526,371.913 185.242,332.548 224.510 C 329.780 227.270,327.344 229.700,327.134 229.910 C 326.924 230.120,324.229 232.833,321.146 235.938 C 314.390 242.743,315.202 242.326,308.908 242.235 L 304.076 242.166 303.996 241.472 C 303.905 240.680,385.363 158.815,386.023 159.035 C 386.206 159.096,386.433 159.424,386.528 159.764 M386.439 187.967 C 386.495 191.987,386.437 193.007,386.115 193.631 C 385.305 195.196,338.553 241.700,337.611 241.877 C 337.139 241.966,334.782 242.038,332.376 242.038 C 328.064 242.038,327.389 241.919,327.389 241.158 C 327.389 240.897,384.521 183.628,385.245 183.162 C 386.280 182.496,386.366 182.843,386.439 187.967 M386.342 206.518 C 386.427 206.739,386.497 209.131,386.497 211.833 L 386.497 216.745 385.796 217.618 C 384.384 219.379,361.987 241.561,361.395 241.786 C 360.015 242.310,351.249 242.131,350.877 241.570 C 350.561 241.094,351.708 239.888,367.676 223.906 C 385.864 205.701,385.985 205.588,386.342 206.518 M271.347 216.909 C 273.119 217.778,273.606 218.143,275.105 219.723 C 275.625 220.271,276.366 221.049,276.752 221.451 C 277.137 221.854,277.452 222.324,277.452 222.497 C 277.452 222.669,277.710 223.267,278.025 223.825 C 278.554 224.761,278.599 225.160,278.599 228.917 C 278.599 232.687,278.556 233.067,278.025 233.964 C 277.710 234.497,277.452 235.049,277.452 235.191 C 277.452 235.919,273.276 240.255,272.575 240.255 C 272.444 240.255,272.025 240.482,271.646 240.759 C 269.441 242.369,261.912 242.465,260.130 240.905 C 259.918 240.720,259.258 240.324,258.662 240.025 C 258.067 239.725,257.580 239.375,257.580 239.248 C 257.580 239.120,257.360 238.946,257.092 238.860 C 256.618 238.710,255.717 237.622,254.343 235.541 C 253.675 234.528,252.940 232.372,252.433 229.936 C 252.221 228.916,252.252 228.358,252.592 227.134 C 252.825 226.293,253.140 225.089,253.292 224.459 C 253.445 223.828,253.841 222.988,254.173 222.592 C 254.505 222.196,254.777 221.777,254.777 221.661 C 254.777 221.000,258.721 217.325,259.430 217.325 C 259.545 217.325,259.959 217.088,260.351 216.798 C 262.074 215.524,268.659 215.591,271.347 216.909 M263.057 217.565 C 260.265 218.142,257.049 220.696,255.569 223.514 C 254.041 226.420,254.013 232.383,255.518 234.296 C 255.811 234.669,256.051 235.113,256.051 235.284 C 256.051 235.841,258.943 238.439,260.510 239.290 C 262.027 240.114,262.063 240.120,265.617 240.124 L 269.197 240.127 270.942 239.242 C 273.172 238.111,276.178 235.057,276.178 233.922 C 276.178 233.725,276.436 233.149,276.751 232.642 C 277.603 231.271,277.603 226.562,276.752 225.193 C 276.436 224.686,276.178 224.110,276.178 223.912 C 276.178 223.173,274.024 220.656,272.229 219.298 C 270.142 217.719,266.053 216.947,263.057 217.565 M271.049 222.424 C 273.473 224.372,272.491 228.743,269.473 229.437 C 268.249 229.719,268.436 230.592,270.241 233.018 C 270.564 233.451,270.828 233.913,270.828 234.044 C 270.828 234.175,271.065 234.484,271.354 234.732 C 271.643 234.980,271.840 235.378,271.791 235.617 C 271.671 236.200,270.039 236.135,269.682 235.533 C 269.541 235.296,269.092 234.571,268.684 233.921 C 267.413 231.898,266.635 230.647,266.358 230.181 C 266.170 229.864,265.665 229.697,264.643 229.612 C 262.842 229.463,262.677 229.763,262.671 233.201 C 262.667 235.971,262.490 236.408,261.547 235.978 L 260.892 235.680 260.892 229.050 C 260.892 220.766,260.390 221.518,265.895 221.556 L 270.005 221.585 271.049 222.424 M263.087 223.219 C 262.613 223.897,262.515 226.740,262.939 227.533 C 263.442 228.473,268.671 228.254,269.745 227.247 C 270.996 226.075,270.944 224.548,269.618 223.533 C 268.244 222.483,263.755 222.266,263.087 223.219 " stroke="none" fill="#f4f8fa" fill-rule="evenodd"></path><path id="path1" d="M0.000 127.389 L 0.000 254.777 200.000 254.777 L 400.000 254.777 400.000 127.389 L 400.000 0.000 200.000 0.000 L 0.000 0.000 0.000 127.389 M395.691 4.805 C 396.458 5.752,396.458 249.280,395.691 250.227 L 395.204 250.828 200.978 250.902 C 70.513 250.952,6.457 250.892,5.856 250.719 C 5.302 250.560,4.791 250.175,4.518 249.713 C 3.846 248.575,3.830 6.483,4.502 5.346 C 4.736 4.949,5.166 4.509,5.457 4.368 C 5.813 4.195,69.965 4.126,200.596 4.157 L 395.204 4.204 395.691 4.805 " stroke="none" fill="#080911" fill-rule="evenodd"></path><path id="path2" d="M13.121 12.789 C 12.841 12.947,12.527 13.202,12.424 13.354 C 12.199 13.687,12.162 105.769,12.386 106.355 C 12.565 106.819,13.248 106.433,13.248 105.868 C 13.248 105.697,13.480 105.347,13.764 105.090 C 14.047 104.834,14.456 104.015,14.672 103.272 C 14.888 102.529,15.164 101.859,15.285 101.785 C 15.405 101.710,15.636 101.221,15.797 100.697 C 15.957 100.174,16.414 99.057,16.812 98.217 C 17.210 97.376,17.839 96.000,18.210 95.159 C 18.581 94.318,19.096 93.226,19.354 92.732 C 19.611 92.238,19.951 91.357,20.107 90.775 C 20.641 88.792,21.130 88.662,28.087 88.662 C 36.733 88.662,35.915 88.107,38.589 95.789 C 39.068 97.164,39.297 97.492,39.972 97.767 L 40.782 98.098 40.609 94.436 C 40.318 88.277,39.681 88.662,50.156 88.662 L 58.044 88.662 58.734 89.483 C 59.114 89.935,59.571 90.651,59.749 91.076 C 60.348 92.500,60.632 93.119,60.863 93.503 C 61.276 94.188,62.637 97.183,62.802 97.769 C 63.246 99.343,64.559 99.561,65.120 98.153 C 65.329 97.627,65.781 96.623,66.126 95.920 C 66.470 95.217,66.752 94.516,66.752 94.362 C 66.752 94.208,66.968 93.806,67.233 93.469 C 67.498 93.132,67.861 92.371,68.038 91.777 C 68.216 91.183,68.756 90.237,69.238 89.674 L 70.113 88.651 102.381 88.727 C 138.073 88.812,136.166 88.721,138.336 90.440 C 139.510 91.369,139.760 91.302,140.122 89.957 C 140.462 88.694,140.632 88.662,147.109 88.662 C 153.100 88.662,153.376 88.745,153.376 90.537 C 153.376 92.113,153.778 92.376,154.808 91.472 C 157.840 88.810,158.918 88.662,175.306 88.662 C 189.600 88.662,190.083 88.707,190.463 90.046 C 190.603 90.537,191.005 91.436,192.706 95.057 C 193.074 95.842,193.380 96.645,193.385 96.841 C 193.390 97.037,193.547 97.475,193.735 97.813 L 194.076 98.429 194.427 97.813 C 194.675 97.378,194.783 96.154,194.799 93.631 C 194.832 88.193,194.022 88.662,203.384 88.662 L 210.016 88.662 210.830 89.284 C 211.278 89.626,211.795 90.285,211.979 90.749 C 212.163 91.213,212.477 91.785,212.677 92.021 C 213.119 92.541,213.771 93.693,214.634 95.478 C 215.840 97.974,216.544 97.055,216.359 93.224 C 216.135 88.578,215.993 88.662,224.054 88.662 C 229.888 88.662,230.057 88.677,230.563 89.220 C 231.275 89.984,231.392 123.522,230.686 124.529 C 230.292 125.092,230.239 125.096,223.151 125.096 L 216.012 125.096 215.331 124.355 C 214.352 123.291,213.503 122.124,213.503 121.842 C 213.503 121.708,213.175 121.185,212.773 120.680 C 212.372 120.175,211.620 118.905,211.102 117.857 C 209.534 114.683,209.081 115.202,208.917 120.368 C 208.750 125.626,209.902 125.096,198.658 125.096 L 189.515 125.096 188.770 124.351 C 188.361 123.941,188.025 123.423,188.025 123.199 C 188.025 122.976,187.682 122.148,187.261 121.361 C 186.841 120.573,186.497 119.784,186.497 119.608 C 186.497 117.359,179.705 116.961,178.823 119.159 C 178.666 119.551,178.273 120.446,177.952 121.146 C 177.630 121.847,177.287 122.707,177.190 123.057 C 177.092 123.408,176.718 124.010,176.357 124.395 L 175.701 125.096 169.516 125.096 C 161.191 125.096,157.667 124.253,154.865 121.592 C 153.750 120.534,153.376 120.870,153.376 122.930 C 153.376 125.278,154.386 125.096,141.401 125.096 C 127.892 125.096,129.427 125.717,129.427 120.246 L 129.427 116.382 128.561 115.516 C 127.636 114.591,126.374 114.370,125.001 114.892 L 124.364 115.134 124.284 119.694 C 124.224 123.090,124.115 124.362,123.854 124.675 C 123.534 125.061,121.435 125.096,98.585 125.096 L 73.665 125.096 73.473 124.522 C 73.367 124.207,73.300 122.975,73.323 121.783 C 73.348 120.515,73.234 119.315,73.048 118.888 L 72.729 118.158 72.358 118.888 C 72.154 119.289,71.731 119.936,71.418 120.326 C 71.105 120.715,70.779 121.404,70.694 121.855 C 70.609 122.307,70.143 123.224,69.658 123.892 L 68.777 125.107 64.027 125.037 L 59.278 124.968 58.468 123.816 C 58.022 123.183,57.511 122.208,57.333 121.651 C 57.154 121.093,56.806 120.408,56.560 120.127 C 56.314 119.847,55.936 119.274,55.720 118.854 L 55.327 118.089 55.046 118.824 C 54.891 119.228,54.794 120.616,54.832 121.908 C 54.933 125.397,55.901 125.096,44.577 125.096 L 34.950 125.096 34.290 124.312 C 33.927 123.880,33.568 123.221,33.491 122.847 C 33.415 122.472,32.977 121.420,32.518 120.510 L 31.684 118.854 28.772 118.781 C 25.507 118.699,24.910 118.881,24.441 120.098 C 23.870 121.583,22.371 124.565,22.071 124.813 C 21.907 124.950,19.736 125.098,17.246 125.142 C 13.562 125.208,12.674 125.294,12.478 125.605 C 12.327 125.844,12.259 147.672,12.297 183.687 L 12.357 241.386 12.994 241.708 C 14.148 242.293,243.278 242.177,243.722 241.592 C 243.999 241.227,244.062 234.902,244.068 206.482 C 244.077 168.760,244.127 170.107,242.759 171.381 C 241.478 172.573,239.813 172.739,229.101 172.739 L 219.166 172.739 218.743 171.847 C 218.243 170.793,217.899 170.751,216.478 171.567 C 214.458 172.728,214.164 172.739,185.377 172.739 C 159.665 172.739,158.017 172.712,157.641 172.293 C 157.320 171.936,157.224 171.021,157.155 167.682 L 157.070 163.518 156.327 162.926 C 155.309 162.115,154.088 161.920,153.128 162.417 L 152.357 162.816 152.357 167.211 C 152.357 173.292,153.060 172.739,145.327 172.739 C 140.015 172.739,138.997 172.678,138.462 172.327 L 137.834 171.916 137.834 166.986 C 137.834 161.366,137.663 160.887,136.077 162.060 C 135.008 162.849,133.657 163.034,128.842 163.046 C 123.104 163.061,123.312 162.874,123.312 168.014 C 123.312 173.231,124.333 172.739,113.509 172.739 C 103.321 172.739,104.124 172.930,101.666 169.924 C 99.125 166.816,98.935 166.624,98.390 166.624 C 98.063 166.624,97.313 167.262,96.386 168.327 C 95.571 169.263,94.363 170.610,93.702 171.320 L 92.499 172.611 76.505 172.681 C 61.649 172.745,60.488 172.719,60.192 172.314 C 59.776 171.745,59.722 137.572,60.136 136.799 C 60.393 136.319,60.843 136.306,76.472 136.306 L 92.544 136.306 93.444 137.095 C 93.938 137.530,95.203 138.905,96.255 140.153 C 98.685 143.034,98.991 143.080,100.829 140.828 C 101.544 139.952,102.771 138.605,103.557 137.834 L 104.985 136.433 118.275 136.363 L 131.565 136.292 133.663 136.960 C 134.817 137.328,135.952 137.839,136.185 138.097 C 136.738 138.707,137.675 138.324,138.093 137.316 C 138.512 136.305,138.409 136.313,150.465 136.309 L 161.439 136.306 163.326 136.947 C 164.363 137.300,165.654 137.882,166.195 138.240 C 167.369 139.016,167.770 138.922,167.991 137.817 C 168.310 136.219,167.509 136.305,182.006 136.310 C 196.194 136.314,195.771 136.278,196.035 137.498 C 196.310 138.763,196.709 138.933,197.722 138.214 C 200.180 136.469,201.361 136.306,211.556 136.306 C 221.548 136.306,221.101 136.243,221.586 137.707 C 221.870 138.564,222.877 138.702,223.662 137.991 C 225.135 136.658,227.666 136.306,235.778 136.306 C 241.417 136.306,243.546 136.224,243.771 136.000 C 244.296 135.475,244.206 13.802,243.680 13.050 L 243.283 12.484 128.457 12.492 C 43.335 12.498,13.499 12.574,13.121 12.789 M23.721 93.894 C 23.286 94.390,22.930 94.951,22.930 95.142 C 22.930 95.333,22.586 96.144,22.166 96.943 C 21.745 97.742,21.401 98.516,21.401 98.663 C 21.401 98.810,21.125 99.515,20.788 100.229 C 20.451 100.944,19.813 102.389,19.371 103.439 C 18.929 104.490,18.303 105.924,17.979 106.624 C 16.164 110.553,14.853 113.598,14.632 114.395 C 14.535 114.745,14.262 115.318,14.026 115.669 C 13.789 116.019,13.460 116.779,13.293 117.358 C 13.127 117.937,12.820 118.553,12.610 118.727 C 12.210 119.059,12.124 119.683,12.384 120.361 C 12.512 120.695,13.022 120.764,15.354 120.764 C 18.695 120.764,19.689 120.288,19.993 118.540 C 20.085 118.012,20.534 116.949,20.990 116.178 L 21.819 114.777 28.043 114.709 C 34.627 114.636,35.518 114.757,35.812 115.760 C 35.958 116.257,37.212 119.094,37.682 119.989 C 38.136 120.856,50.294 121.122,51.299 120.287 C 51.674 119.975,51.720 119.045,51.720 111.672 C 51.720 106.461,51.817 103.224,51.983 102.913 C 52.420 102.097,52.952 102.339,53.264 103.496 C 53.423 104.088,53.770 104.977,54.034 105.471 C 54.298 105.965,54.862 107.229,55.287 108.280 C 55.711 109.331,56.339 110.764,56.681 111.465 C 57.023 112.166,57.380 113.025,57.475 113.376 C 57.569 113.726,57.853 114.306,58.106 114.665 C 58.358 115.024,58.647 115.655,58.746 116.066 C 58.846 116.478,59.129 117.103,59.374 117.455 C 59.619 117.806,59.948 118.569,60.104 119.151 C 60.721 121.441,67.263 121.448,67.901 119.159 C 68.127 118.346,70.668 112.556,71.110 111.847 C 71.241 111.637,71.518 111.064,71.725 110.573 C 71.933 110.083,72.385 109.108,72.729 108.408 C 73.073 107.707,73.430 106.847,73.522 106.497 C 73.615 106.146,73.838 105.688,74.018 105.478 C 74.198 105.268,74.492 104.596,74.673 103.986 C 75.020 102.812,75.571 102.366,75.945 102.957 C 76.069 103.152,76.172 106.988,76.174 111.480 C 76.179 121.381,75.894 120.604,79.567 120.723 C 83.408 120.847,83.057 122.253,83.057 106.734 C 83.057 91.204,83.746 92.994,77.767 92.994 C 73.076 92.994,72.222 93.155,71.858 94.111 C 71.729 94.450,71.505 94.801,71.360 94.890 C 71.215 94.980,70.968 95.532,70.810 96.116 C 70.653 96.701,70.306 97.457,70.039 97.796 C 69.772 98.135,69.554 98.521,69.554 98.654 C 69.554 99.093,68.070 102.494,66.020 106.752 C 65.582 107.662,65.223 108.596,65.223 108.825 C 65.223 110.292,63.344 110.947,62.921 109.628 C 62.590 108.600,61.422 105.934,60.655 104.459 C 60.400 103.968,60.112 103.202,60.016 102.756 C 59.919 102.311,59.681 101.814,59.487 101.653 C 59.293 101.492,59.005 100.940,58.848 100.425 C 58.579 99.550,57.940 98.125,56.319 94.785 C 55.476 93.050,55.481 93.051,50.127 93.019 C 44.140 92.983,44.780 91.462,44.844 105.566 C 44.873 111.893,44.883 117.262,44.868 117.496 C 44.823 118.196,42.877 116.084,42.669 115.109 C 42.496 114.294,41.954 112.982,40.587 110.064 C 38.532 105.674,37.452 103.253,37.452 103.030 C 37.452 102.927,37.101 102.089,36.671 101.167 C 35.877 99.462,35.143 97.881,34.031 95.478 C 33.690 94.742,33.356 93.956,33.288 93.731 C 33.120 93.173,31.842 93.000,27.861 92.996 L 24.511 92.994 23.721 93.894 M88.344 93.269 C 87.695 93.647,87.651 119.716,88.298 120.364 C 88.649 120.715,89.959 120.764,98.827 120.764 L 108.956 120.764 109.510 120.175 C 109.972 119.682,110.064 119.283,110.064 117.754 C 110.064 114.788,110.386 114.904,102.205 114.904 C 94.003 114.904,94.381 115.050,94.578 111.967 C 94.751 109.276,94.282 109.439,102.107 109.347 C 106.404 109.297,109.023 109.168,109.229 108.998 C 109.618 108.674,109.672 105.820,109.306 104.857 L 109.057 104.204 102.203 104.204 C 94.196 104.204,94.650 104.364,94.650 101.528 C 94.650 98.694,94.201 98.854,102.169 98.854 C 110.522 98.854,110.124 99.008,110.012 95.803 C 109.941 93.791,109.893 93.622,109.299 93.323 C 108.486 92.912,89.042 92.862,88.344 93.269 M114.739 93.234 C 113.862 93.609,113.875 93.402,113.876 106.913 C 113.876 122.062,113.529 120.598,117.150 120.723 C 120.831 120.850,120.888 120.784,120.797 116.504 C 120.673 110.632,120.553 110.751,126.449 110.873 C 132.041 110.989,132.941 111.801,133.178 116.943 C 133.356 120.800,133.385 120.831,136.718 120.723 C 140.066 120.615,139.933 120.806,139.789 116.306 C 139.654 112.095,139.111 110.260,137.677 109.166 C 136.145 107.998,136.109 107.626,137.420 106.472 C 141.489 102.890,140.637 96.253,135.796 93.824 L 134.395 93.121 124.841 93.060 C 119.452 93.026,115.048 93.102,114.739 93.234 M143.965 93.439 L 143.415 93.885 143.415 106.879 L 143.415 119.873 143.965 120.318 C 144.823 121.014,148.730 120.957,149.647 120.236 L 150.318 119.708 150.318 106.740 L 150.318 93.771 149.567 93.382 C 148.454 92.807,144.698 92.845,143.965 93.439 M161.675 93.276 C 159.872 93.539,156.178 96.015,156.178 96.960 C 156.178 97.039,155.912 97.469,155.586 97.915 C 152.795 101.739,152.730 112.487,155.476 116.109 C 158.483 120.074,159.949 120.632,167.375 120.635 L 172.840 120.637 173.545 119.618 C 173.933 119.057,174.440 118.025,174.672 117.325 C 174.904 116.624,175.388 115.736,175.748 115.350 L 176.401 114.650 182.693 114.650 L 188.984 114.650 189.640 115.510 C 190.001 115.984,190.523 116.965,190.798 117.691 C 191.074 118.417,191.601 119.405,191.969 119.888 L 192.637 120.764 198.725 120.764 C 206.495 120.764,205.625 122.002,205.594 110.986 C 205.564 100.663,205.707 100.280,208.039 104.459 C 208.391 105.089,209.012 106.121,209.419 106.752 C 209.826 107.382,210.686 108.839,211.329 109.990 C 211.973 111.140,212.607 112.148,212.739 112.230 C 212.871 112.311,213.211 112.860,213.495 113.450 C 213.779 114.040,214.413 115.153,214.905 115.924 C 215.397 116.694,215.963 117.669,216.164 118.089 C 216.365 118.510,216.872 119.255,217.291 119.745 L 218.052 120.637 222.088 120.722 C 227.636 120.839,227.020 122.567,227.021 106.879 C 227.021 91.458,227.383 92.894,223.536 93.036 C 219.826 93.173,220.146 92.335,220.067 102.127 C 220.007 109.531,219.955 110.448,219.590 110.518 C 219.327 110.569,219.059 110.296,218.841 109.757 C 218.655 109.295,218.238 108.562,217.914 108.129 C 217.590 107.695,217.325 107.254,217.325 107.149 C 217.325 107.044,217.067 106.596,216.752 106.154 C 216.068 105.194,215.495 104.194,214.814 102.767 C 214.536 102.187,214.184 101.634,214.030 101.539 C 213.876 101.444,213.580 101.002,213.371 100.556 C 213.163 100.110,212.652 99.229,212.236 98.599 C 211.821 97.968,211.140 96.822,210.723 96.051 C 210.307 95.280,209.683 94.306,209.338 93.885 L 208.711 93.121 203.964 93.121 C 200.022 93.121,199.177 93.186,198.976 93.503 C 198.833 93.729,198.732 98.392,198.730 104.888 C 198.726 117.215,198.543 118.782,197.447 115.924 C 197.258 115.433,196.896 114.758,196.641 114.424 C 196.387 114.090,196.178 113.631,196.178 113.405 C 196.179 113.018,195.384 111.227,193.989 108.471 C 193.652 107.806,193.376 107.139,193.376 106.990 C 193.376 106.749,192.825 105.480,191.335 102.293 C 189.638 98.663,189.299 97.896,189.299 97.685 C 189.299 97.555,189.029 96.933,188.699 96.304 C 188.369 95.674,188.020 94.836,187.925 94.442 C 187.487 92.624,178.500 92.257,177.678 94.023 C 176.641 96.248,176.016 97.655,175.417 99.108 C 175.042 100.019,174.458 101.309,174.119 101.975 C 173.780 102.640,173.503 103.327,173.503 103.500 C 173.503 103.673,173.226 104.389,172.886 105.092 C 171.809 107.323,170.701 109.804,170.701 109.986 C 170.701 110.834,168.698 114.163,168.051 114.390 C 163.251 116.077,159.712 112.273,160.077 105.820 C 160.372 100.607,162.132 99.101,168.153 98.908 C 170.045 98.848,171.736 98.682,171.911 98.540 C 172.458 98.096,172.338 93.935,171.763 93.415 C 171.239 92.940,164.605 92.849,161.675 93.276 M132.029 100.062 C 133.557 101.590,133.557 102.742,132.029 104.270 L 130.948 105.350 126.219 105.350 C 120.539 105.350,120.764 105.482,120.764 102.174 C 120.764 98.703,120.592 98.806,126.264 98.902 L 130.949 98.981 132.029 100.062 M29.320 100.827 C 29.493 101.352,29.903 102.286,30.231 102.903 C 30.560 103.520,30.832 104.208,30.836 104.433 C 30.840 104.657,31.126 105.299,31.472 105.860 C 32.846 108.092,32.351 108.535,28.484 108.535 C 24.929 108.535,24.151 108.170,24.832 106.823 C 25.658 105.187,26.519 103.238,26.886 102.173 C 27.660 99.924,28.812 99.287,29.320 100.827 M183.363 100.434 C 183.530 100.568,183.836 101.213,184.041 101.867 C 184.600 103.648,185.743 106.316,186.144 106.772 C 187.319 108.110,186.362 108.563,182.540 108.479 C 178.653 108.394,178.370 108.215,179.303 106.437 C 179.616 105.839,180.031 104.892,180.226 104.331 C 180.549 103.401,181.090 101.953,181.685 100.429 C 181.920 99.827,182.606 99.829,183.363 100.434 M267.516 116.271 C 258.457 118.963,253.872 127.436,255.698 138.108 C 256.870 144.958,261.191 149.378,268.408 151.106 C 278.440 153.509,287.214 148.748,289.254 139.794 C 289.728 137.714,289.737 137.718,284.209 137.638 C 279.093 137.563,278.886 137.608,278.640 138.838 C 277.979 142.145,274.730 143.866,270.891 142.945 C 265.489 141.649,264.668 128.570,269.765 125.030 C 272.834 122.899,277.687 124.688,278.578 128.279 C 278.925 129.678,278.938 129.682,283.962 129.682 C 289.301 129.682,289.574 129.592,289.269 127.937 C 289.048 126.736,287.693 123.304,287.233 122.782 C 287.038 122.561,286.879 122.271,286.879 122.138 C 286.879 121.200,282.739 118.012,280.111 116.927 C 277.741 115.949,269.965 115.544,267.516 116.271 M358.694 117.168 C 358.266 117.713,358.217 118.270,358.217 122.582 C 358.217 128.119,358.375 127.872,355.754 126.433 C 353.235 125.051,348.746 124.983,346.497 126.294 C 344.455 127.485,341.401 131.016,341.401 132.187 C 341.401 132.349,341.143 133.199,340.828 134.075 C 340.085 136.142,339.995 141.430,340.675 143.066 C 340.907 143.622,341.281 144.600,341.506 145.239 C 343.525 150.959,352.775 153.600,357.055 149.679 C 358.134 148.691,358.602 148.686,358.973 149.660 C 359.104 150.005,359.439 150.409,359.716 150.558 C 360.295 150.867,367.097 150.925,367.570 150.624 C 368.008 150.346,368.079 117.595,367.643 117.070 C 367.038 116.341,359.277 116.427,358.694 117.168 M299.670 125.620 C 298.927 125.752,298.010 126.015,297.631 126.206 C 297.253 126.397,296.647 126.623,296.286 126.710 C 294.585 127.116,292.326 129.613,291.972 131.477 C 291.587 133.507,291.580 133.503,296.586 133.503 L 300.880 133.503 301.307 132.852 C 302.775 130.611,307.495 130.850,307.722 133.175 C 307.859 134.576,305.465 135.514,300.387 136.050 C 292.815 136.851,289.380 140.214,290.472 145.761 C 291.569 151.337,300.419 153.634,306.158 149.833 C 306.813 149.399,307.549 149.045,307.794 149.045 C 308.487 149.045,309.045 149.323,309.045 149.669 C 309.045 149.843,309.254 150.174,309.511 150.406 C 310.686 151.470,318.844 150.776,317.771 149.703 C 317.666 149.598,317.522 145.193,317.452 139.915 L 317.325 130.318 316.520 129.172 C 314.247 125.932,306.788 124.359,299.670 125.620 M333.564 125.614 C 332.551 126.021,331.154 127.079,330.685 127.795 C 330.435 128.176,329.877 128.637,329.446 128.818 L 328.662 129.147 328.662 128.175 C 328.662 127.574,328.459 126.944,328.129 126.524 L 327.596 125.846 323.996 125.917 C 320.445 125.986,320.392 125.996,320.068 126.624 C 319.576 127.578,319.720 149.803,320.222 150.407 C 320.676 150.953,328.676 151.046,329.117 150.510 C 329.273 150.320,329.418 147.825,329.475 144.331 L 329.570 138.471 330.421 136.772 C 331.414 134.787,333.163 133.758,335.540 133.758 C 337.483 133.758,337.580 133.554,337.580 129.460 C 337.580 127.079,337.482 125.864,337.274 125.656 C 336.920 125.302,334.412 125.273,333.564 125.614 M356.178 133.454 C 359.883 135.265,359.051 143.478,355.087 144.219 C 352.421 144.717,350.851 143.585,350.322 140.782 C 349.299 135.362,352.328 131.572,356.178 133.454 M307.772 140.511 C 308.228 141.060,307.909 142.669,307.069 144.060 C 305.046 147.412,298.495 146.078,300.256 142.673 C 300.667 141.879,300.845 141.787,303.312 141.104 C 307.150 140.042,307.360 140.014,307.772 140.511 M64.604 141.037 C 64.384 141.258,64.202 141.630,64.199 141.865 C 64.092 151.978,64.270 167.798,64.494 168.069 C 64.722 168.343,67.208 168.408,77.437 168.408 L 90.098 168.408 91.609 166.814 C 92.441 165.937,93.779 164.464,94.583 163.540 C 96.939 160.834,97.779 159.999,98.136 160.009 C 98.771 160.026,99.583 160.639,100.320 161.656 C 100.726 162.217,101.396 163.019,101.810 163.439 C 102.224 163.860,103.295 165.064,104.190 166.115 C 106.254 168.537,105.639 168.369,112.491 168.390 C 120.052 168.413,119.430 168.827,119.536 163.704 C 119.641 158.661,118.934 159.136,126.572 158.981 C 132.424 158.862,132.947 158.814,134.018 158.286 C 140.185 155.246,140.133 143.808,133.940 141.433 C 132.531 140.893,107.912 140.562,106.609 141.066 C 105.926 141.330,103.092 144.228,100.382 147.434 C 98.876 149.216,98.258 149.142,96.433 146.959 C 93.427 143.363,91.429 141.289,90.660 140.966 C 89.377 140.426,65.148 140.493,64.604 141.037 M171.847 140.941 C 171.567 141.100,171.253 141.355,171.150 141.507 C 170.867 141.925,170.920 167.447,171.205 167.898 C 171.522 168.400,192.429 168.622,193.021 168.130 C 193.388 167.825,193.542 164.041,193.221 163.206 C 193.086 162.852,192.240 162.803,186.359 162.803 C 177.731 162.803,177.845 162.842,177.838 159.840 C 177.833 157.214,177.438 157.347,185.653 157.197 C 193.669 157.051,193.111 157.255,193.117 154.468 C 193.122 152.011,193.400 152.102,185.893 152.102 C 177.792 152.102,177.845 152.121,177.838 149.149 C 177.833 146.676,177.578 146.752,185.948 146.752 C 190.910 146.752,192.848 146.668,193.070 146.446 C 193.505 146.011,193.465 141.668,193.021 141.083 C 192.603 140.533,172.801 140.400,171.847 140.941 M142.229 141.278 L 141.656 141.685 141.656 154.646 C 141.656 169.900,141.286 168.408,145.065 168.408 C 148.756 168.408,148.589 168.636,148.548 163.638 C 148.506 158.387,148.136 158.726,153.904 158.726 C 159.913 158.726,160.980 159.665,161.007 164.975 C 161.024 168.308,161.123 168.408,164.434 168.408 C 167.937 168.408,167.883 168.475,167.637 164.391 C 167.361 159.800,166.806 157.902,165.437 156.869 C 163.916 155.722,163.904 155.520,165.286 154.273 C 169.399 150.560,168.234 143.352,163.210 141.424 C 161.611 140.810,143.070 140.682,142.229 141.278 M201.146 141.363 C 197.704 142.500,196.124 144.919,196.134 149.035 C 196.148 154.948,198.698 157.016,206.497 157.436 C 211.673 157.714,212.646 158.215,212.303 160.426 C 211.987 162.462,210.780 162.776,203.232 162.791 C 196.393 162.805,196.688 162.685,196.688 165.468 C 196.688 168.762,196.448 168.665,204.557 168.654 C 213.659 168.641,214.964 168.381,217.459 166.081 C 219.934 163.799,220.627 159.359,219.045 155.924 C 217.590 152.767,215.897 152.089,207.710 151.381 C 203.237 150.994,201.788 149.688,203.703 147.771 L 204.593 146.879 211.321 146.752 C 215.021 146.682,218.143 146.529,218.259 146.413 C 218.695 145.975,218.679 142.199,218.238 141.525 L 217.823 140.892 210.122 140.917 C 203.693 140.938,202.210 141.011,201.146 141.363 M226.935 141.272 C 220.302 143.097,219.464 153.470,225.719 156.326 C 227.373 157.081,229.618 157.440,232.739 157.449 C 236.466 157.459,237.973 158.225,237.954 160.098 C 237.931 162.351,236.358 162.803,228.531 162.803 C 224.406 162.803,222.927 162.884,222.738 163.121 C 222.190 163.808,222.197 167.360,222.748 168.061 L 223.256 168.707 230.928 168.592 C 236.160 168.514,238.963 168.372,239.745 168.146 C 247.183 165.992,247.274 153.677,239.864 152.142 C 239.158 151.996,237.095 151.754,235.278 151.605 C 229.617 151.140,229.232 151.021,228.760 149.592 C 228.518 148.859,228.550 148.636,228.977 148.061 C 229.901 146.816,230.254 146.759,237.125 146.755 C 244.604 146.751,244.081 146.975,244.068 143.775 C 244.056 140.676,244.671 140.888,235.768 140.915 C 230.328 140.931,227.805 141.033,226.935 141.272 M112.611 154.493 L 112.611 164.272 112.038 164.429 C 111.490 164.579,111.251 164.393,110.106 162.929 C 109.996 162.788,108.573 161.106,106.944 159.190 C 102.521 153.989,102.589 154.457,105.765 151.054 C 107.507 149.188,110.355 146.009,110.857 145.371 C 111.160 144.987,111.632 144.713,111.993 144.713 L 112.611 144.713 112.611 154.493 M88.356 147.707 C 88.900 148.232,90.023 149.454,90.851 150.421 C 91.679 151.389,92.682 152.529,93.079 152.956 C 94.318 154.285,93.487 155.627,87.959 161.217 L 86.364 162.831 78.841 162.753 C 70.149 162.663,70.838 162.915,70.832 159.818 C 70.827 157.058,70.423 157.198,78.391 157.194 C 86.073 157.189,85.691 157.314,85.820 154.768 C 85.955 152.079,86.433 152.249,78.322 152.102 C 70.258 151.955,70.838 152.173,70.832 149.287 C 70.826 146.572,70.219 146.752,79.403 146.752 L 87.366 146.752 88.356 147.707 M130.821 147.898 C 131.923 149.162,132.034 150.542,131.139 151.869 C 130.199 153.264,129.763 153.368,124.826 153.372 C 119.127 153.377,119.363 153.520,119.363 150.064 C 119.363 146.547,119.094 146.698,125.157 146.799 L 129.932 146.879 130.821 147.898 M159.856 147.754 C 161.541 149.388,161.269 151.574,159.255 152.602 C 158.348 153.064,157.761 153.121,153.896 153.121 C 148.425 153.121,148.535 153.191,148.535 149.720 C 148.535 146.639,148.317 146.748,154.318 146.822 L 158.954 146.879 159.856 147.754 M385.245 183.162 C 384.521 183.628,327.389 240.897,327.389 241.158 C 327.389 241.919,328.064 242.038,332.376 242.038 C 334.782 242.038,337.139 241.966,337.611 241.877 C 338.553 241.700,385.305 195.196,386.115 193.631 C 386.437 193.007,386.495 191.987,386.439 187.967 C 386.366 182.843,386.280 182.496,385.245 183.162 M262.824 216.056 C 261.719 216.191,260.798 216.468,260.351 216.798 C 259.959 217.088,259.545 217.325,259.430 217.325 C 258.721 217.325,254.777 221.000,254.777 221.661 C 254.777 221.777,254.505 222.196,254.173 222.592 C 253.841 222.988,253.445 223.828,253.292 224.459 C 253.140 225.089,252.825 226.293,252.592 227.134 C 252.252 228.358,252.221 228.916,252.433 229.936 C 252.940 232.372,253.675 234.528,254.343 235.541 C 255.717 237.622,256.618 238.710,257.092 238.860 C 257.360 238.946,257.580 239.120,257.580 239.248 C 257.580 239.375,258.067 239.725,258.662 240.025 C 259.258 240.324,259.918 240.720,260.130 240.905 C 261.912 242.465,269.441 242.369,271.646 240.759 C 272.025 240.482,272.444 240.255,272.575 240.255 C 273.276 240.255,277.452 235.919,277.452 235.191 C 277.452 235.049,277.710 234.497,278.025 233.964 C 278.556 233.067,278.599 232.687,278.599 228.917 C 278.599 225.160,278.554 224.761,278.025 223.825 C 277.710 223.267,277.452 222.669,277.452 222.497 C 277.452 222.324,277.137 221.854,276.752 221.451 C 276.366 221.049,275.625 220.271,275.105 219.723 C 271.953 216.402,268.477 215.364,262.824 216.056 M270.446 218.318 C 272.099 219.170,272.081 219.158,273.331 220.191 C 274.360 221.041,276.178 223.417,276.178 223.912 C 276.178 224.110,276.436 224.686,276.752 225.193 C 277.603 226.562,277.603 231.271,276.751 232.642 C 276.436 233.149,276.178 233.725,276.178 233.922 C 276.178 235.057,273.172 238.111,270.942 239.242 L 269.197 240.127 265.617 240.124 C 262.063 240.120,262.027 240.114,260.510 239.290 C 258.943 238.439,256.051 235.841,256.051 235.284 C 256.051 235.113,255.811 234.669,255.518 234.296 C 254.013 232.383,254.041 226.420,255.569 223.514 C 258.372 218.178,265.405 215.723,270.446 218.318 M261.338 221.974 C 260.936 222.376,260.892 223.073,260.892 229.050 L 260.892 235.680 261.547 235.978 C 262.490 236.408,262.667 235.971,262.671 233.201 C 262.677 229.763,262.842 229.463,264.643 229.612 C 265.665 229.697,266.170 229.864,266.358 230.181 C 266.635 230.647,267.413 231.898,268.684 233.921 C 269.092 234.571,269.541 235.296,269.682 235.533 C 270.039 236.135,271.671 236.200,271.791 235.617 C 271.840 235.378,271.643 234.980,271.354 234.732 C 271.065 234.484,270.828 234.175,270.828 234.044 C 270.828 233.913,270.564 233.451,270.241 233.018 C 268.436 230.592,268.249 229.719,269.473 229.437 C 272.491 228.743,273.473 224.372,271.049 222.424 L 270.005 221.585 265.895 221.556 C 262.294 221.531,261.729 221.583,261.338 221.974 M269.618 223.533 C 270.944 224.548,270.996 226.075,269.745 227.247 C 268.671 228.254,263.442 228.473,262.939 227.533 C 262.515 226.740,262.613 223.897,263.087 223.219 C 263.755 222.266,268.244 222.483,269.618 223.533 " stroke="none" fill="#04abec" fill-rule="evenodd"></path><path id="path3" d="M5.457 4.368 C 5.166 4.509,4.736 4.949,4.502 5.346 C 3.830 6.483,3.846 248.575,4.518 249.713 C 4.791 250.175,5.302 250.560,5.856 250.719 C 6.457 250.892,70.513 250.952,200.978 250.902 L 395.204 250.828 395.691 250.227 C 396.458 249.280,396.458 5.752,395.691 4.805 L 395.204 4.204 200.596 4.157 C 69.965 4.126,5.813 4.195,5.457 4.368 M394.617 5.509 L 395.413 5.669 395.477 127.333 L 395.541 248.996 394.722 249.339 C 393.330 249.920,6.459 249.842,5.816 249.260 C 5.228 248.728,5.069 6.243,5.656 5.656 C 5.983 5.329,392.985 5.183,394.617 5.509 M344.804 199.851 C 308.381 236.309,303.925 240.854,303.996 241.472 L 304.076 242.166 308.908 242.235 C 315.202 242.326,314.390 242.743,321.146 235.938 C 324.229 232.833,326.924 230.120,327.134 229.910 C 327.344 229.700,329.780 227.270,332.548 224.510 C 371.913 185.242,386.425 170.526,386.584 169.713 C 387.085 167.148,386.670 159.251,386.023 159.035 C 385.836 158.973,367.883 176.750,344.804 199.851 M385.337 206.458 C 383.541 207.466,350.552 241.080,350.877 241.570 C 351.254 242.138,360.023 242.308,361.424 241.775 C 362.078 241.526,364.677 238.987,364.480 238.790 C 364.390 238.700,362.744 240.371,362.293 241.010 C 361.588 242.009,351.083 242.171,351.083 241.182 C 351.083 240.571,385.038 206.879,385.654 206.879 L 386.242 206.879 386.242 211.764 L 386.242 216.648 384.904 218.192 C 384.169 219.041,383.175 220.082,382.696 220.505 C 381.472 221.585,378.489 224.681,378.386 224.977 C 378.340 225.112,378.192 225.223,378.058 225.223 C 377.825 225.223,376.681 226.340,374.766 228.438 C 374.269 228.982,373.409 229.843,372.855 230.353 C 372.301 230.862,371.149 232.008,370.296 232.900 C 369.443 233.792,368.258 234.961,367.662 235.498 C 367.066 236.034,366.635 236.529,366.703 236.597 C 366.843 236.737,384.703 218.985,385.796 217.620 L 386.497 216.745 386.497 211.833 C 386.497 205.954,386.469 205.823,385.337 206.458 M365.919 237.338 C 365.608 237.555,365.222 237.985,365.060 238.293 C 364.855 238.683,365.048 238.582,365.692 237.962 C 366.202 237.471,366.620 237.041,366.621 237.006 C 366.627 236.878,366.470 236.952,365.919 237.338 " stroke="none" fill="#848484" fill-rule="evenodd"></path><path id="path4" d="M367.962 223.922 C 358.678 233.254,351.083 241.021,351.083 241.182 C 351.083 241.697,351.804 241.783,356.106 241.783 C 361.168 241.783,361.823 241.617,363.185 239.985 C 363.745 239.313,364.290 238.755,364.395 238.745 C 364.696 238.716,366.624 236.716,366.624 236.433 C 366.624 236.293,366.717 236.178,366.831 236.178 C 366.944 236.178,368.119 235.080,369.442 233.738 C 370.765 232.396,372.301 230.877,372.855 230.362 C 373.409 229.848,374.269 228.982,374.766 228.438 C 376.681 226.340,377.825 225.223,378.058 225.223 C 378.192 225.223,378.340 225.112,378.386 224.977 C 378.489 224.681,381.472 221.585,382.696 220.505 C 383.175 220.082,384.169 219.041,384.904 218.192 L 386.242 216.648 386.242 211.764 L 386.242 206.879 385.541 206.917 C 384.973 206.947,381.655 210.157,367.962 223.922 " stroke="none" fill="#6ab25a" fill-rule="evenodd"></path></g></svg>