<svg id="svg" version="1.1" width="400" height="260.73727325921595" viewBox="0 0 400 260.73727325921595" xmlns="http://www.w3.org/2000/svg" xmlns:xlink="http://www.w3.org/1999/xlink" ><g id="svgg"><path id="path0" d="M25.395 4.924 C 12.305 5.677,3.711 12.224,0.672 23.757 L 0.117 25.863 0.117 133.060 L 0.117 240.257 0.672 242.364 C 3.071 251.467,9.577 257.999,18.476 260.240 L 20.452 260.737 200.103 260.737 L 379.754 260.736 381.978 260.147 C 390.368 257.925,396.527 251.903,399.230 243.277 L 399.883 241.194 399.943 133.623 L 400.003 26.052 399.440 23.834 C 396.835 13.564,389.475 7.062,378.350 5.203 C 375.842 4.784,32.543 4.512,25.395 4.924 M376.690 10.307 C 387.693 11.568,394.084 18.360,395.072 29.842 C 395.408 33.740,395.408 232.381,395.072 236.279 C 394.075 247.866,387.609 254.648,376.430 255.830 C 374.862 255.996,318.565 256.051,198.479 256.003 L 22.820 255.932 20.699 255.436 C 12.504 253.520,7.130 247.994,5.455 239.760 C 4.793 236.505,4.797 29.596,5.459 26.337 C 7.352 17.024,13.901 11.295,23.874 10.227 C 25.957 10.004,374.734 10.083,376.690 10.307 M122.060 65.181 C 111.667 67.478,103.452 77.055,103.452 86.872 L 103.452 89.175 104.752 89.175 C 114.015 89.175,123.225 79.758,124.512 68.971 C 125.006 64.835,124.833 64.568,122.060 65.181 M187.829 73.975 C 185.286 74.172,181.026 74.699,177.238 75.286 L 174.839 75.658 174.839 122.791 L 174.839 169.924 179.169 169.924 L 183.499 169.924 183.499 150.064 L 183.499 130.204 184.728 130.402 C 211.564 134.724,230.889 119.125,227.397 95.962 C 224.940 79.660,211.426 72.150,187.829 73.975 M201.992 81.767 C 212.960 83.797,218.778 90.090,219.229 100.410 C 219.770 112.816,213.289 120.742,200.838 122.903 C 196.425 123.668,185.147 123.402,183.683 122.497 C 183.246 122.227,183.469 82.193,183.909 82.066 C 184.280 81.958,187.325 81.586,189.702 81.357 C 191.933 81.143,200.087 81.415,201.992 81.767 M122.460 90.586 C 120.287 90.883,117.463 91.660,114.687 92.726 C 106.286 95.951,106.051 95.964,99.786 93.546 C 89.328 89.512,82.754 89.967,74.866 95.272 C 56.872 107.375,58.915 141.887,78.967 164.544 C 85.075 171.445,89.505 172.311,98.811 168.422 C 105.197 165.753,109.737 165.808,116.793 168.639 C 127.839 173.070,133.449 170.269,142.557 155.775 C 144.783 152.232,149.002 143.026,148.572 142.651 C 148.537 142.620,147.872 142.276,147.094 141.887 C 131.535 134.089,130.151 110.816,144.704 101.692 C 146.068 100.836,146.087 101.038,144.462 99.100 C 139.462 93.132,130.162 89.533,122.460 90.586 M249.122 100.397 C 244.176 101.268,236.112 104.664,235.557 106.111 C 235.473 106.328,237.843 112.400,238.155 112.768 C 238.188 112.807,238.961 112.357,239.872 111.767 C 246.788 107.294,256.883 106.058,262.785 108.962 C 267.859 111.459,270.802 117.828,270.802 126.313 L 270.802 127.092 268.508 127.092 C 245.098 127.092,230.959 136.471,230.930 152.019 C 230.894 171.199,254.824 178.662,269.453 164.033 C 271.491 161.995,271.389 161.937,271.718 165.301 C 271.872 166.878,272.059 168.563,272.132 169.046 L 272.266 169.924 276.348 169.924 C 280.136 169.924,280.420 169.894,280.299 169.512 C 279.515 167.043,279.396 164.095,279.233 143.125 C 279.055 120.299,279.031 119.866,277.688 115.231 C 274.294 103.519,263.430 97.878,249.122 100.397 M287.523 101.755 C 287.608 101.981,293.256 116.510,300.074 134.042 C 313.761 169.240,312.904 166.829,312.344 168.558 C 308.964 178.990,298.309 190.675,289.497 193.612 C 288.908 193.809,291.972 200.714,292.616 200.642 C 293.641 200.526,299.716 197.347,301.697 195.889 C 310.717 189.251,316.330 179.929,325.294 156.700 C 326.983 152.323,332.566 138.104,337.701 125.102 L 347.036 101.463 342.589 101.399 C 340.143 101.364,338.102 101.375,338.053 101.424 C 337.861 101.617,320.745 148.307,319.393 152.329 C 318.600 154.688,317.861 156.636,317.751 156.659 C 317.642 156.681,316.800 154.488,315.881 151.785 C 314.962 149.081,310.210 136.627,305.321 124.109 L 296.431 101.348 291.900 101.347 C 287.682 101.346,287.380 101.374,287.523 101.755 M270.756 142.013 L 270.676 149.678 270.023 151.551 C 264.904 166.227,243.256 168.830,240.033 155.157 C 237.025 142.398,247.364 134.573,267.483 134.380 L 270.836 134.348 270.756 142.013 " stroke="none" fill="#0d0d0c" fill-rule="evenodd"></path><path id="path1" d="M0.019 13.049 C 0.035 24.809,0.069 25.947,0.364 24.576 C 2.560 14.339,10.021 7.284,20.831 5.222 C 24.324 4.556,375.350 4.561,379.169 5.227 C 389.335 7.001,396.811 13.592,399.391 23.054 L 399.966 25.161 399.983 12.580 L 400.000 0.000 200.000 0.000 L 0.000 0.000 0.019 13.049 M24.861 10.309 C 12.609 11.313,6.170 17.853,5.157 30.320 C 4.821 34.461,4.821 231.660,5.157 235.800 C 6.076 247.113,11.640 253.679,21.878 255.531 C 24.502 256.006,367.714 256.297,374.536 255.830 C 385.882 255.053,392.519 249.730,394.541 239.784 C 395.207 236.506,395.207 29.614,394.541 26.337 C 392.567 16.627,385.987 11.182,375.178 10.315 C 371.524 10.022,28.436 10.016,24.861 10.309 M124.690 67.700 C 124.229 78.350,115.968 87.889,106.068 89.207 C 103.043 89.610,103.122 89.686,103.289 86.536 C 103.852 75.924,114.165 64.949,123.671 64.846 L 124.815 64.833 124.690 67.700 M199.766 73.739 C 216.797 75.005,226.366 83.339,227.770 98.129 C 229.174 112.926,220.884 125.210,206.710 129.334 C 200.669 131.091,190.048 131.620,184.214 130.453 L 183.499 130.310 183.499 150.234 L 183.499 170.158 179.169 170.158 L 174.839 170.158 174.839 122.895 C 174.839 78.086,174.860 75.625,175.249 75.506 C 179.156 74.307,193.501 73.273,199.766 73.739 M188.648 81.581 C 188.455 81.623,187.218 81.781,185.898 81.932 L 183.499 82.206 183.499 102.276 L 183.499 122.346 184.843 122.616 C 189.006 123.452,196.671 123.523,200.936 122.766 C 212.616 120.691,218.633 114.021,219.012 102.725 C 219.419 90.644,213.616 83.838,201.170 81.798 C 199.295 81.491,189.826 81.327,188.648 81.581 M128.863 90.596 C 134.964 91.445,140.975 94.661,144.491 98.959 C 146.091 100.914,146.085 100.842,144.705 101.820 C 130.133 112.147,131.611 133.971,147.422 141.941 C 148.906 142.689,148.906 142.709,147.540 146.139 C 143.479 156.334,135.841 166.693,130.338 169.471 C 126.292 171.514,123.007 171.315,116.442 168.631 C 109.657 165.856,105.300 165.914,97.972 168.875 C 88.565 172.676,83.291 170.907,76.428 161.645 C 58.063 136.863,57.488 106.662,75.158 94.957 C 82.740 89.934,89.490 89.421,99.097 93.137 C 105.963 95.792,106.135 95.794,112.797 93.291 C 120.356 90.452,123.741 89.884,128.863 90.596 M262.390 100.381 C 270.206 102.165,275.953 107.900,278.047 116.004 C 279.117 120.145,279.218 121.929,279.235 137.039 C 279.254 153.980,279.526 164.278,280.030 167.232 C 280.228 168.391,280.392 169.526,280.394 169.754 C 280.398 170.138,280.090 170.164,276.243 170.105 L 272.089 170.041 271.699 166.530 C 271.485 164.599,271.301 162.873,271.290 162.693 C 271.279 162.514,270.348 163.256,269.221 164.342 C 254.326 178.701,230.778 171.231,230.778 152.146 C 230.778 136.173,244.981 126.972,269.807 126.861 L 270.568 126.858 270.568 125.389 C 270.568 117.615,267.638 111.451,262.830 109.111 C 256.395 105.979,245.877 107.541,238.596 112.710 C 238.113 113.053,234.978 106.616,235.342 106.028 C 235.593 105.621,239.936 103.162,241.781 102.382 C 247.714 99.873,256.451 99.025,262.390 100.381 M305.475 124.166 C 310.354 136.653,315.086 149.024,315.989 151.658 C 316.893 154.291,317.669 156.483,317.714 156.528 C 317.759 156.573,318.226 155.314,318.752 153.729 C 319.277 152.145,323.791 139.712,328.783 126.102 L 337.858 101.355 342.497 101.350 L 347.135 101.346 346.968 101.872 C 346.876 102.162,342.357 113.669,336.926 127.443 C 331.495 141.217,326.076 155.015,324.884 158.104 C 314.828 184.166,307.969 193.795,295.260 199.693 C 291.839 201.281,292.268 201.497,290.547 197.328 C 289.728 195.344,289.084 193.697,289.116 193.668 C 289.149 193.640,290.386 193.013,291.867 192.275 C 298.378 189.030,302.785 185.015,307.445 178.083 C 309.803 174.576,312.463 168.697,312.463 166.993 C 312.463 166.559,307.323 153.030,300.273 134.906 C 293.568 117.671,287.890 103.067,287.654 102.453 L 287.227 101.336 291.915 101.400 L 296.603 101.463 305.475 124.166 M264.189 134.597 C 254.120 135.202,247.631 137.420,243.382 141.708 C 238.258 146.879,238.539 156.999,243.926 161.279 C 250.061 166.155,261.737 163.934,267.026 156.887 C 270.187 152.675,270.560 151.072,270.564 141.662 L 270.568 134.348 268.871 134.382 C 267.937 134.401,265.831 134.498,264.189 134.597 M0.019 250.380 L 0.000 260.737 9.772 260.725 L 19.544 260.712 17.582 260.132 C 8.718 257.512,2.304 250.589,0.364 241.545 C 0.066 240.156,0.036 240.923,0.019 250.380 M399.364 243.070 C 397.202 251.431,390.178 258.337,381.756 260.383 C 380.597 260.664,381.517 260.700,390.228 260.718 L 400.000 260.737 400.000 250.907 C 400.000 245.500,399.973 241.077,399.940 241.077 C 399.906 241.077,399.647 241.974,399.364 243.070 " stroke="none" fill="#fbfbfb" fill-rule="evenodd"></path><path id="path2" d="M6.890 12.229 L 6.202 12.990 6.963 12.303 C 7.382 11.925,7.724 11.582,7.724 11.542 C 7.724 11.361,7.531 11.520,6.890 12.229 M395.201 132.943 C 395.201 187.718,395.228 210.126,395.260 182.738 C 395.293 155.351,395.293 110.535,395.260 83.148 C 395.228 55.761,395.201 78.169,395.201 132.943 M193.856 73.666 C 194.596 73.713,195.807 73.713,196.548 73.666 C 197.288 73.620,196.682 73.582,195.202 73.582 C 193.721 73.582,193.116 73.620,193.856 73.666 M193.388 81.390 C 194.128 81.436,195.339 81.436,196.080 81.390 C 196.820 81.344,196.214 81.306,194.734 81.306 C 193.253 81.306,192.648 81.344,193.388 81.390 M103.292 88.824 C 103.331 89.212,103.519 89.295,104.391 89.311 L 105.442 89.330 104.462 89.240 C 103.795 89.179,103.444 89.023,103.364 88.753 C 103.277 88.463,103.258 88.482,103.292 88.824 M88.180 90.749 C 88.599 90.801,89.283 90.801,89.702 90.749 C 90.120 90.697,89.778 90.654,88.941 90.654 C 88.104 90.654,87.762 90.697,88.180 90.749 M143.008 97.484 C 143.444 97.934,143.854 98.303,143.919 98.303 C 143.983 98.303,143.678 97.934,143.242 97.484 C 142.805 97.033,142.395 96.665,142.331 96.665 C 142.266 96.665,142.571 97.033,143.008 97.484 M227.819 100.995 C 227.818 102.153,227.857 102.657,227.907 102.114 C 227.956 101.570,227.956 100.622,227.908 100.007 C 227.859 99.392,227.819 99.836,227.819 100.995 M219.150 101.580 C 219.150 102.417,219.193 102.759,219.245 102.341 C 219.297 101.922,219.297 101.238,219.245 100.819 C 219.193 100.401,219.150 100.743,219.150 101.580 M213.560 116.852 L 212.873 117.613 213.634 116.925 C 214.052 116.547,214.394 116.205,214.394 116.165 C 214.394 115.984,214.201 116.143,213.560 116.852 M62.313 124.517 C 62.313 124.968,62.361 125.152,62.420 124.927 C 62.479 124.702,62.479 124.333,62.420 124.108 C 62.361 123.882,62.313 124.067,62.313 124.517 M268.163 127.027 C 268.579 127.078,269.316 127.079,269.802 127.029 C 270.287 126.978,269.947 126.936,269.046 126.935 C 268.145 126.934,267.748 126.975,268.163 127.027 M265.594 134.513 C 265.884 134.569,266.358 134.569,266.647 134.513 C 266.937 134.457,266.700 134.411,266.121 134.411 C 265.541 134.411,265.304 134.457,265.594 134.513 M140.433 136.761 C 140.433 136.802,140.775 137.144,141.194 137.522 L 141.954 138.209 141.267 137.449 C 140.626 136.740,140.433 136.581,140.433 136.761 M279.315 155.998 C 279.316 157.414,279.354 157.963,279.401 157.218 C 279.447 156.473,279.447 155.314,279.400 154.643 C 279.353 153.972,279.315 154.582,279.315 155.998 M251.437 164.006 C 251.793 164.060,252.319 164.059,252.607 164.003 C 252.895 163.948,252.604 163.904,251.960 163.905 C 251.317 163.907,251.081 163.953,251.437 164.006 M250.735 171.730 C 251.090 171.784,251.617 171.783,251.905 171.727 C 252.193 171.672,251.902 171.628,251.258 171.629 C 250.614 171.631,250.379 171.676,250.735 171.730 M301.101 185.898 L 300.176 186.893 301.170 185.968 C 302.095 185.107,302.273 184.903,302.095 184.903 C 302.057 184.903,301.610 185.351,301.101 185.898 M6.319 253.321 C 6.319 253.361,6.662 253.703,7.080 254.081 L 7.841 254.769 7.153 254.008 C 6.513 253.299,6.319 253.140,6.319 253.321 M26.039 255.983 C 26.264 256.042,26.633 256.042,26.858 255.983 C 27.083 255.925,26.899 255.876,26.448 255.876 C 25.998 255.876,25.813 255.925,26.039 255.983 M373.376 255.983 C 373.602 256.042,373.970 256.042,374.195 255.983 C 374.421 255.925,374.236 255.876,373.786 255.876 C 373.335 255.876,373.151 255.925,373.376 255.983 " stroke="none" fill="#a0a19f" fill-rule="evenodd"></path><path id="path3" d="M26.858 4.846 C 27.147 4.902,27.621 4.902,27.911 4.846 C 28.201 4.790,27.964 4.745,27.384 4.745 C 26.805 4.745,26.568 4.790,26.858 4.846 M372.326 4.847 C 372.617 4.903,373.038 4.900,373.262 4.842 C 373.486 4.783,373.248 4.738,372.733 4.740 C 372.218 4.743,372.035 4.791,372.326 4.847 M392.969 12.229 C 393.542 12.841,394.043 13.341,394.080 13.341 C 394.256 13.341,394.070 13.131,393.037 12.161 L 391.925 11.118 392.969 12.229 M395.139 32.300 C 395.139 32.750,395.187 32.934,395.246 32.709 C 395.305 32.484,395.305 32.115,395.246 31.890 C 395.187 31.665,395.139 31.849,395.139 32.300 M103.288 87.068 C 103.288 87.776,103.332 88.066,103.386 87.712 C 103.440 87.358,103.440 86.779,103.386 86.425 C 103.332 86.071,103.288 86.360,103.288 87.068 M213.458 86.908 C 213.458 86.948,213.800 87.290,214.219 87.668 L 214.980 88.356 214.292 87.595 C 213.651 86.886,213.458 86.727,213.458 86.908 M254.834 99.879 C 255.384 99.929,256.227 99.928,256.706 99.878 C 257.185 99.827,256.735 99.787,255.705 99.788 C 254.675 99.789,254.283 99.830,254.834 99.879 M134.402 120.070 C 134.402 120.521,134.450 120.705,134.509 120.480 C 134.568 120.255,134.568 119.886,134.509 119.661 C 134.450 119.435,134.402 119.620,134.402 120.070 M219.544 121.826 C 218.975 122.405,218.563 122.879,218.627 122.879 C 218.691 122.879,219.209 122.405,219.778 121.826 C 220.346 121.246,220.759 120.772,220.694 120.772 C 220.630 120.772,220.112 121.246,219.544 121.826 M62.329 122.177 C 62.329 122.885,62.373 123.174,62.426 122.820 C 62.480 122.466,62.480 121.887,62.426 121.533 C 62.373 121.179,62.329 121.469,62.329 122.177 M134.402 121.943 C 134.402 122.393,134.450 122.578,134.509 122.352 C 134.568 122.127,134.568 121.758,134.509 121.533 C 134.450 121.308,134.402 121.492,134.402 121.943 M270.640 125.805 C 270.641 126.577,270.685 126.865,270.737 126.444 C 270.789 126.023,270.788 125.391,270.735 125.040 C 270.681 124.688,270.639 125.032,270.640 125.805 M190.465 131.002 C 190.756 131.058,191.177 131.056,191.401 130.998 C 191.625 130.939,191.387 130.893,190.872 130.896 C 190.357 130.898,190.174 130.946,190.465 131.002 M270.672 141.486 C 270.672 145.477,270.703 147.142,270.743 145.187 C 270.782 143.232,270.782 139.967,270.743 137.932 C 270.704 135.896,270.672 137.496,270.672 141.486 M236.966 136.747 L 236.279 137.507 237.039 136.820 C 237.458 136.442,237.800 136.099,237.800 136.059 C 237.800 135.878,237.607 136.038,236.966 136.747 M279.291 160.328 C 279.291 160.907,279.337 161.144,279.393 160.854 C 279.449 160.565,279.449 160.091,279.393 159.801 C 279.337 159.511,279.291 159.748,279.291 160.328 M177.016 170.099 C 178.278 170.141,180.279 170.141,181.463 170.098 C 182.647 170.056,181.615 170.021,179.169 170.021 C 176.723 170.022,175.754 170.056,177.016 170.099 M274.125 170.098 C 275.245 170.141,277.141 170.141,278.338 170.098 C 279.535 170.056,278.619 170.021,276.302 170.021 C 273.985 170.020,273.005 170.055,274.125 170.098 M306.484 191.750 L 305.559 192.744 306.554 191.819 C 307.101 191.310,307.548 190.863,307.548 190.824 C 307.548 190.647,307.344 190.824,306.484 191.750 M395.139 233.821 C 395.139 234.272,395.187 234.456,395.246 234.231 C 395.305 234.005,395.305 233.637,395.246 233.411 C 395.187 233.186,395.139 233.370,395.139 233.821 M392.978 253.833 C 392.410 254.412,391.997 254.886,392.062 254.886 C 392.126 254.886,392.644 254.412,393.212 253.833 C 393.781 253.253,394.193 252.779,394.129 252.779 C 394.065 252.779,393.547 253.253,392.978 253.833 " stroke="none" fill="#7c7c7c" fill-rule="evenodd"></path><path id="path4" d="M124.342 170.787 C 124.567 170.846,124.936 170.846,125.161 170.787 C 125.386 170.729,125.202 170.680,124.751 170.680 C 124.301 170.680,124.116 170.729,124.342 170.787 " stroke="none" fill="#848483" fill-rule="evenodd"></path></g></svg>