<svg id="svg" version="1.1" width="400" height="400" viewBox="0 0 400 400" xmlns="http://www.w3.org/2000/svg" xmlns:xlink="http://www.w3.org/1999/xlink" ><g id="svgg"><path id="path0" d="M93.500 66.524 C 71.313 69.622,59.212 87.549,65.638 107.800 C 71.033 124.799,91.301 133.457,110.700 127.049 C 139.436 117.557,138.720 76.254,109.676 67.924 C 105.369 66.689,97.311 65.991,93.500 66.524 M272.500 149.820 C 251.680 150.649,235.446 159.703,223.644 177.066 L 221.900 179.633 221.849 166.816 L 221.797 154.000 191.586 154.000 L 161.376 154.000 161.538 155.450 C 161.735 157.214,161.711 309.264,161.511 324.650 L 161.369 335.600 191.584 335.600 L 221.800 335.600 221.802 283.250 C 221.804 230.575,221.831 228.384,222.527 224.211 C 224.068 214.970,231.691 204.951,240.492 200.600 C 247.837 196.968,257.815 196.349,265.700 199.036 C 275.397 202.339,281.642 210.762,284.209 224.000 C 285.340 229.836,285.274 226.378,285.344 283.250 L 285.409 335.600 315.604 335.600 L 345.800 335.600 345.800 281.322 C 345.800 219.820,345.804 220.004,344.088 209.700 C 337.508 170.205,311.291 148.276,272.500 149.820 M67.600 244.800 L 67.600 335.600 97.800 335.600 L 128.000 335.600 128.000 244.800 L 128.000 154.000 97.800 154.000 L 67.600 154.000 67.600 244.800 " stroke="none" fill="#fbfbfb" fill-rule="evenodd"></path><path id="path1" d="M98.700 17.418 C 69.336 19.794,43.729 35.741,28.400 61.200 C 25.613 65.830,20.599 76.800,21.270 76.800 C 21.344 76.800,182.293 22.652,192.500 19.194 L 198.300 17.228 149.500 17.242 C 122.660 17.250,99.800 17.329,98.700 17.418 M96.641 66.348 C 97.379 66.386,98.639 66.387,99.441 66.349 C 100.244 66.311,99.640 66.279,98.100 66.279 C 96.560 66.279,95.904 66.310,96.641 66.348 M72.694 75.850 L 71.500 77.100 72.750 75.906 C 73.911 74.797,74.092 74.600,73.944 74.600 C 73.913 74.600,73.350 75.163,72.694 75.850 M122.900 75.600 C 123.442 76.150,123.930 76.600,123.985 76.600 C 124.040 76.600,123.642 76.150,123.100 75.600 C 122.558 75.050,122.070 74.600,122.015 74.600 C 121.960 74.600,122.358 75.050,122.900 75.600 M131.846 96.200 C 131.846 96.585,131.888 96.743,131.938 96.550 C 131.988 96.358,131.988 96.043,131.938 95.850 C 131.888 95.658,131.846 95.815,131.846 96.200 M131.846 99.800 C 131.846 100.185,131.888 100.343,131.938 100.150 C 131.988 99.958,131.988 99.642,131.938 99.450 C 131.888 99.258,131.846 99.415,131.846 99.800 M64.046 100.400 C 64.046 100.785,64.088 100.942,64.138 100.750 C 64.188 100.558,64.188 100.243,64.138 100.050 C 64.088 99.858,64.046 100.015,64.046 100.400 M96.657 129.148 C 97.294 129.188,98.284 129.187,98.857 129.147 C 99.431 129.107,98.910 129.074,97.700 129.075 C 96.490 129.075,96.021 129.108,96.657 129.148 M273.555 149.747 C 274.026 149.789,274.746 149.788,275.155 149.745 C 275.565 149.702,275.180 149.668,274.300 149.669 C 273.420 149.669,273.085 149.704,273.555 149.747 M277.755 149.747 C 278.226 149.789,278.946 149.788,279.355 149.745 C 279.765 149.702,279.380 149.668,278.500 149.669 C 277.620 149.669,277.285 149.704,277.755 149.747 M82.650 153.950 C 90.983 153.979,104.618 153.979,112.950 153.950 C 121.283 153.921,114.465 153.897,97.800 153.897 C 81.135 153.897,74.318 153.921,82.650 153.950 M176.450 153.950 C 184.783 153.979,198.418 153.979,206.750 153.950 C 215.083 153.921,208.265 153.897,191.600 153.897 C 174.935 153.897,168.118 153.921,176.450 153.950 M161.470 156.800 C 161.470 157.735,161.504 158.118,161.546 157.650 C 161.589 157.183,161.589 156.418,161.546 155.950 C 161.504 155.483,161.470 155.865,161.470 156.800 M231.996 166.750 L 230.300 168.500 232.050 166.804 C 233.013 165.872,233.800 165.084,233.800 165.054 C 233.800 164.909,233.570 165.125,231.996 166.750 M322.800 166.455 C 322.800 166.485,323.498 167.183,324.350 168.005 L 325.900 169.500 324.405 167.950 C 323.016 166.510,322.800 166.309,322.800 166.455 M161.692 177.400 C 161.692 182.185,161.718 184.143,161.750 181.750 C 161.782 179.358,161.782 175.442,161.750 173.050 C 161.718 170.658,161.692 172.615,161.692 177.400 M232.000 206.700 C 231.514 207.195,231.162 207.600,231.217 207.600 C 231.272 207.600,231.714 207.195,232.200 206.700 C 232.686 206.205,233.038 205.800,232.983 205.800 C 232.928 205.800,232.486 206.205,232.000 206.700 M345.654 224.800 C 345.654 225.295,345.693 225.498,345.741 225.250 C 345.789 225.003,345.789 224.597,345.741 224.350 C 345.693 224.103,345.654 224.305,345.654 224.800 M221.867 231.400 C 221.867 232.225,221.903 232.563,221.946 232.150 C 221.989 231.738,221.989 231.063,221.946 230.650 C 221.903 230.238,221.867 230.575,221.867 231.400 M285.250 233.700 C 285.253 234.140,285.294 234.296,285.341 234.048 C 285.389 233.799,285.387 233.439,285.337 233.248 C 285.287 233.056,285.248 233.260,285.250 233.700 M161.696 252.100 C 161.696 261.450,161.720 265.246,161.750 260.535 C 161.780 255.824,161.780 248.174,161.750 243.535 C 161.720 238.896,161.696 242.750,161.696 252.100 M161.493 316.200 C 161.493 321.755,161.518 324.028,161.550 321.250 C 161.581 318.473,161.581 313.928,161.550 311.150 C 161.518 308.373,161.493 310.645,161.493 316.200 M82.650 335.750 C 90.983 335.779,104.618 335.779,112.950 335.750 C 121.283 335.721,114.465 335.697,97.800 335.697 C 81.135 335.697,74.318 335.721,82.650 335.750 M176.450 335.750 C 184.783 335.779,198.418 335.779,206.750 335.750 C 215.083 335.721,208.265 335.697,191.600 335.697 C 174.935 335.697,168.118 335.721,176.450 335.750 M300.450 335.750 C 308.783 335.779,322.418 335.779,330.750 335.750 C 339.083 335.721,332.265 335.697,315.600 335.697 C 298.935 335.697,292.118 335.721,300.450 335.750 " stroke="none" fill="#5398ba" fill-rule="evenodd"></path><path id="path2" d="M55.100 0.136 C 26.479 2.634,3.650 24.895,0.295 53.576 C -0.152 57.393,-0.152 342.607,0.295 346.424 C 3.500 373.823,24.007 395.060,51.500 399.453 L 54.300 399.900 200.000 399.900 L 345.700 399.900 348.500 399.453 C 375.929 395.071,396.504 373.790,399.696 346.499 C 400.158 342.552,400.158 57.452,399.697 53.499 C 396.515 26.257,376.092 5.093,348.600 0.550 L 345.900 0.104 200.900 0.085 C 121.150 0.074,55.540 0.097,55.100 0.136 M297.500 17.775 C 302.344 18.781,311.204 21.245,311.198 21.584 C 311.196 21.648,270.112 35.515,219.898 52.400 C 169.366 69.392,128.639 83.189,128.686 83.300 C 137.198 103.256,128.240 122.820,108.273 127.882 C 88.981 132.772,70.573 124.048,65.474 107.600 C 65.082 106.335,64.702 105.158,64.630 104.984 C 64.521 104.718,60.660 105.962,40.300 112.824 C 26.990 117.310,15.979 120.985,15.830 120.990 C 15.416 121.005,15.621 101.542,16.074 97.800 C 21.492 53.055,56.176 19.998,100.649 17.195 C 102.107 17.103,146.365 17.065,199.000 17.110 L 294.700 17.193 297.500 17.775 M282.400 149.802 C 317.526 152.412,339.988 175.595,344.891 214.300 C 345.902 222.278,345.863 219.880,345.943 279.850 L 346.016 335.800 315.714 335.800 L 285.412 335.800 285.348 284.050 C 285.288 236.244,285.257 232.080,284.933 229.409 C 282.472 209.076,273.763 198.911,257.652 197.568 C 240.922 196.174,225.821 207.759,222.549 224.500 L 222.119 226.700 222.056 281.250 L 221.992 335.800 191.729 335.800 L 161.466 335.800 161.483 244.799 L 161.500 153.799 191.700 153.849 L 221.900 153.900 221.952 166.587 L 222.003 179.273 223.353 177.287 C 237.098 157.050,256.764 147.896,282.400 149.802 M128.000 244.800 L 128.000 335.800 97.700 335.800 L 67.400 335.800 67.400 244.933 C 67.400 194.957,67.460 154.007,67.533 153.933 C 67.607 153.860,81.242 153.800,97.833 153.800 L 128.000 153.800 128.000 244.800 " stroke="none" fill="#04649c" fill-rule="evenodd"></path><path id="path3" d="M109.828 47.013 C 61.169 63.394,21.285 76.752,21.197 76.698 C 20.970 76.558,19.329 81.717,18.397 85.500 C 17.556 88.915,16.571 94.200,16.776 94.200 C 16.844 94.200,29.560 89.939,45.032 84.730 L 73.165 75.261 74.732 73.997 C 81.047 68.905,89.179 66.200,98.177 66.200 L 100.111 66.200 170.205 42.617 C 208.757 29.647,241.470 18.627,242.900 18.130 L 245.500 17.225 221.900 17.228 L 198.300 17.230 109.828 47.013 M42.194 43.350 L 40.900 44.700 42.250 43.406 C 42.993 42.694,43.600 42.086,43.600 42.056 C 43.600 41.909,43.396 42.096,42.194 43.350 M221.894 166.700 C 221.894 173.740,221.919 176.591,221.950 173.036 C 221.981 169.480,221.981 163.720,221.950 160.236 C 221.919 156.751,221.894 159.660,221.894 166.700 M161.674 188.000 C 161.674 189.155,161.707 189.628,161.747 189.050 C 161.788 188.472,161.788 187.528,161.747 186.950 C 161.707 186.373,161.674 186.845,161.674 188.000 M161.683 231.500 C 161.684 233.590,161.713 234.418,161.749 233.340 C 161.785 232.261,161.785 230.551,161.749 229.540 C 161.713 228.528,161.683 229.410,161.683 231.500 M345.899 283.300 C 345.899 312.120,345.922 323.880,345.950 309.434 C 345.978 294.988,345.978 271.408,345.950 257.034 C 345.922 242.660,345.899 254.480,345.899 283.300 M221.846 233.400 C 221.846 233.785,221.888 233.943,221.938 233.750 C 221.988 233.558,221.988 233.243,221.938 233.050 C 221.888 232.857,221.846 233.015,221.846 233.400 M161.472 304.400 C 161.472 305.445,161.506 305.873,161.547 305.350 C 161.588 304.828,161.588 303.973,161.547 303.450 C 161.506 302.928,161.472 303.355,161.472 304.400 " stroke="none" fill="#3c8cb4" fill-rule="evenodd"></path><path id="path4" d="M136.966 17.150 C 155.593 17.178,186.013 17.178,204.566 17.150 C 223.120 17.122,207.880 17.099,170.700 17.099 C 133.520 17.099,118.340 17.122,136.966 17.150 M172.947 41.670 C 112.915 61.884,100.507 66.123,101.047 66.231 C 101.406 66.302,102.645 66.467,103.800 66.596 C 114.155 67.756,123.409 73.681,127.895 82.025 L 128.500 83.150 219.848 52.425 C 270.089 35.526,311.196 21.648,311.198 21.584 C 311.205 21.243,302.297 18.769,297.500 17.779 L 294.700 17.202 270.100 17.221 L 245.500 17.241 172.947 41.670 M44.087 41.450 L 43.500 42.100 44.150 41.513 C 44.756 40.965,44.892 40.800,44.737 40.800 C 44.703 40.800,44.410 41.093,44.087 41.450 M40.287 45.250 L 39.700 45.900 40.350 45.313 C 40.956 44.765,41.092 44.600,40.937 44.600 C 40.903 44.600,40.610 44.893,40.287 45.250 M44.842 84.770 C 21.031 92.800,16.569 94.363,16.489 94.700 C 15.816 97.548,15.173 121.000,15.768 121.000 C 16.083 121.000,64.277 104.781,64.454 104.616 C 64.539 104.536,64.460 103.535,64.279 102.391 C 62.841 93.310,65.829 83.135,71.817 76.723 C 72.599 75.885,73.208 75.209,73.170 75.220 C 73.131 75.231,60.384 79.528,44.842 84.770 M123.091 119.650 L 122.300 120.500 123.150 119.709 C 123.618 119.275,124.000 118.892,124.000 118.859 C 124.000 118.708,123.826 118.860,123.091 119.650 M67.499 244.900 C 67.499 294.950,67.522 315.455,67.550 290.466 C 67.578 265.478,67.578 224.528,67.550 199.466 C 67.522 174.405,67.499 194.850,67.499 244.900 M161.457 160.100 C 161.459 160.650,161.498 160.851,161.544 160.547 C 161.589 160.243,161.588 159.793,161.541 159.547 C 161.493 159.301,161.456 159.550,161.457 160.100 M161.696 208.900 C 161.696 219.350,161.720 223.654,161.750 218.465 C 161.780 213.276,161.780 204.726,161.750 199.465 C 161.720 194.204,161.696 198.450,161.696 208.900 M345.864 229.800 C 345.864 230.515,345.900 230.808,345.945 230.450 C 345.989 230.093,345.989 229.507,345.945 229.150 C 345.900 228.793,345.864 229.085,345.864 229.800 M221.898 284.900 C 221.898 312.950,221.922 324.395,221.950 310.334 C 221.978 296.273,221.978 273.323,221.950 259.334 C 221.922 245.345,221.898 256.850,221.898 284.900 M161.484 298.800 C 161.484 300.945,161.513 301.822,161.549 300.750 C 161.585 299.678,161.585 297.923,161.549 296.850 C 161.513 295.778,161.484 296.655,161.484 298.800 " stroke="none" fill="#2c80aa" fill-rule="evenodd"></path></g></svg>